<svg xmlns="http://www.w3.org/2000/svg" xmlns:xlink="http://www.w3.org/1999/xlink" preserveAspectRatio="xMidYMid" width="40" height="40" viewBox="0 0 500 500">
  <defs>
    <style>
      .cls-1 {
        fill: #fff;
        fill-rule: evenodd;
      }
    </style>
  </defs>
  <g>
    <path d="M479.836,195.821 C480.113,194.995 480.268,194.110 480.268,193.188 L480.268,96.442 C480.268,91.855 476.553,88.139 471.974,88.139 L425.811,88.139 L425.811,191.114 C425.811,192.767 425.512,194.348 424.985,195.821 L419.571,195.821 C419.847,194.995 420.003,194.110 420.003,193.188 L420.003,60.314 C420.003,55.728 416.288,52.011 411.709,52.011 L339.282,52.011 C334.701,52.011 330.990,55.728 330.990,60.314 L330.990,193.188 C330.990,194.110 331.147,194.995 331.422,195.821 L326.010,195.821 C325.482,194.348 325.184,192.767 325.184,191.114 L325.184,88.139 L280.126,88.139 C275.545,88.139 271.834,91.855 271.834,96.442 L271.834,193.188 C271.834,194.110 271.991,194.995 272.264,195.821 L258.010,195.821 L258.010,212.985 L492.984,212.985 L492.984,195.821 L479.836,195.821 L479.836,195.821 ZM296.710,161.908 L284.823,161.908 L284.823,150.006 L296.710,150.006 L296.710,161.908 ZM296.710,141.009 L284.823,141.009 L284.823,129.106 L296.710,129.106 L296.710,141.009 ZM296.710,120.801 L284.823,120.801 L284.823,108.898 L296.710,108.898 L296.710,120.801 ZM315.234,161.908 L303.346,161.908 L303.346,150.006 L315.234,150.006 L315.234,161.908 ZM315.234,141.009 L303.346,141.009 L303.346,129.106 L315.234,129.106 L315.234,141.009 ZM315.234,120.801 L303.346,120.801 L303.346,108.898 L315.234,108.898 L315.234,120.801 ZM393.949,195.267 L359.048,195.267 L359.048,151.666 L393.949,151.666 L393.949,195.267 ZM375.496,114.294 C359.351,114.294 346.264,101.187 346.264,85.021 C346.264,68.852 359.354,55.745 375.496,55.745 C391.643,55.745 404.730,68.852 404.730,85.021 C404.730,101.189 391.643,114.294 375.496,114.294 ZM450.966,161.908 L439.080,161.908 L439.080,150.006 L450.966,150.006 L450.966,161.908 ZM450.966,141.009 L439.080,141.009 L439.080,129.106 L450.966,129.106 L450.966,141.009 ZM450.966,120.801 L439.080,120.801 L439.080,108.898 L450.966,108.898 L450.966,120.801 ZM469.485,161.908 L457.600,161.908 L457.600,150.006 L469.485,150.006 L469.485,161.908 ZM469.485,141.009 L457.600,141.009 L457.600,129.106 L469.485,129.106 L469.485,141.009 ZM469.485,120.801 L457.600,120.801 L457.600,108.898 L469.485,108.898 L469.485,120.801 ZM382.751,77.756 L393.947,77.756 L393.947,92.287 L382.751,92.287 L382.751,103.503 L368.241,103.503 L368.241,92.287 L357.045,92.287 L357.045,77.756 L368.241,77.756 L368.241,66.543 L382.751,66.543 L382.751,77.756 Z" class="cls-1"/>
    <path d="M216.814,359.373 L216.814,465.000 L30.185,465.000 L30.185,359.373 L17.000,359.373 L32.400,287.000 L214.599,287.000 L230.000,359.373 L216.814,359.373 ZM123.499,297.106 C108.046,297.106 95.519,309.658 95.519,325.142 C95.519,340.626 108.046,353.179 123.499,353.179 C138.952,353.179 151.481,340.626 151.481,325.142 C151.481,309.658 138.952,297.106 123.499,297.106 ZM156.673,379.437 L152.934,379.437 L152.934,365.757 L150.966,365.757 L145.975,369.172 L147.311,371.168 L150.227,369.192 L150.227,379.437 L146.486,379.437 L146.486,381.845 L156.673,381.845 L156.673,379.437 ZM168.998,379.437 L165.262,379.437 L165.262,365.757 L163.290,365.757 L158.298,369.172 L159.636,371.168 L162.551,369.192 L162.551,379.437 L158.814,379.437 L158.814,381.845 L168.998,381.845 L168.998,379.437 ZM181.222,379.437 L176.210,379.437 L174.770,379.458 L179.392,374.418 C180.666,373.039 181.221,372.093 181.221,370.284 L181.221,369.933 C181.221,367.711 179.720,365.530 176.024,365.530 C172.476,365.530 170.829,367.321 170.829,370.715 L170.829,371.148 L173.542,371.148 C173.542,368.800 174.423,367.938 175.942,367.938 L176.107,367.938 C177.504,367.938 178.488,368.800 178.488,370.427 L178.488,370.632 C178.488,371.599 178.121,372.217 177.256,373.142 L170.829,380.136 L170.829,380.136 L170.829,381.845 L181.222,381.845 L181.222,379.437 ZM199.896,360.677 L190.790,360.677 L190.790,387.814 L136.407,387.814 L136.407,360.677 L47.103,360.677 L47.103,448.048 L63.794,448.048 L63.794,396.749 L183.206,396.749 L183.206,448.048 L199.896,448.048 L199.896,360.677 ZM129.168,343.980 C126.756,338.541 124.262,332.499 125.496,327.100 C119.667,330.796 118.574,337.775 119.759,343.980 C115.064,342.150 111.403,338.925 110.415,336.857 C108.789,333.452 109.371,329.224 112.026,325.229 C115.316,320.007 122.355,313.140 121.399,303.697 C130.312,310.930 136.838,319.020 136.838,328.351 C136.838,333.016 136.581,338.985 129.168,343.980 Z" class="cls-1"/>
    <path d="M224.682,198.097 L196.008,198.097 C196.045,197.516 196.070,196.931 196.070,196.341 C196.070,181.195 183.754,168.873 168.616,168.873 C153.479,168.873 141.164,181.195 141.164,196.341 C141.164,196.931 141.189,197.516 141.226,198.097 L94.855,198.097 C94.892,197.516 94.917,196.931 94.917,196.341 C94.917,181.195 82.602,168.873 67.464,168.873 C52.326,168.873 40.011,181.195 40.011,196.341 C40.011,196.931 40.036,197.516 40.073,198.097 L24.316,198.097 C15.891,198.097 9.000,191.200 9.000,182.770 L9.000,153.650 C9.000,145.221 18.248,134.113 26.672,134.113 C37.983,134.113 43.404,117.870 44.227,114.616 L52.586,89.996 C55.295,82.014 64.405,75.484 72.829,75.484 L152.889,75.484 C161.313,75.484 171.374,81.609 175.248,89.094 L188.897,115.333 C192.770,122.818 201.203,130.710 211.067,133.276 C219.255,135.406 240.000,135.406 239.999,159.928 L239.999,182.770 C239.999,191.200 233.107,198.097 224.682,198.097 ZM93.600,87.247 L77.721,87.247 C70.595,87.247 62.888,92.771 60.597,99.523 L53.525,120.351 C53.177,121.726 51.858,125.842 49.435,129.617 L93.600,129.617 L93.600,87.247 ZM120.208,150.688 L124.620,154.990 C125.927,156.266 126.745,158.783 126.436,160.584 L125.395,166.658 C125.087,168.460 126.157,169.237 127.773,168.387 L133.224,165.520 C134.841,164.669 137.486,164.669 139.103,165.520 L144.553,168.387 C146.171,169.237 147.240,168.460 146.932,166.658 L145.890,160.584 C145.582,158.783 146.400,156.266 147.707,154.990 L152.119,150.688 C153.426,149.412 153.018,148.153 151.211,147.890 L145.116,147.004 C143.307,146.741 141.168,145.186 140.360,143.547 L137.633,138.020 C136.825,136.381 135.503,136.381 134.694,138.020 L131.968,143.547 C131.159,145.186 129.019,146.741 127.212,147.004 L121.117,147.890 C119.309,148.153 118.901,149.412 120.208,150.688 ZM175.911,120.959 L164.365,98.761 C161.087,92.429 152.577,87.247 145.450,87.247 L108.823,87.247 L108.823,129.617 L182.834,129.617 C179.859,126.990 177.454,123.939 175.911,120.959 ZM145.504,62.928 L133.565,62.929 C132.587,62.929 131.796,62.150 131.796,61.189 C131.796,60.229 132.587,59.449 133.563,59.448 L145.504,59.449 C146.479,59.448 147.270,60.229 147.270,61.189 C147.270,62.150 146.478,62.928 145.504,62.928 ZM132.688,55.419 C131.999,56.098 130.879,56.099 130.190,55.419 C129.500,54.739 129.500,53.638 130.190,52.958 L141.926,43.964 C142.615,43.284 143.735,43.285 144.424,43.964 C145.114,44.644 145.114,45.745 144.424,46.425 L132.688,55.419 ZM125.761,48.265 C125.452,49.177 124.451,49.668 123.525,49.363 C122.599,49.058 122.100,48.072 122.409,47.161 L127.095,35.461 C127.404,34.549 128.405,34.058 129.330,34.363 C130.255,34.668 130.754,35.654 130.444,36.565 L125.761,48.265 ZM114.086,48.010 C113.111,48.010 112.319,47.231 112.319,46.270 L112.319,31.740 C112.319,30.779 113.111,29.999 114.086,29.999 C115.063,29.999 115.852,30.779 115.852,31.740 L115.852,46.270 C115.852,47.231 115.062,48.010 114.086,48.010 ZM104.646,49.363 C103.722,49.668 102.721,49.177 102.411,48.265 L97.727,37.258 C97.417,36.348 97.917,35.362 98.841,35.056 C99.767,34.752 100.768,35.243 101.078,36.154 L105.762,47.161 C106.072,48.072 105.572,49.058 104.646,49.363 ZM113.814,51.141 C119.301,51.141 124.129,53.049 126.946,55.942 C128.670,57.460 129.790,59.860 129.790,62.570 C129.790,67.161 126.593,70.882 122.647,70.882 L104.938,70.882 C100.993,70.882 97.795,67.161 97.795,62.570 C97.795,59.692 99.053,57.157 100.962,55.665 C103.812,52.928 108.503,51.141 113.814,51.141 ZM97.983,55.419 C97.293,56.098 96.174,56.098 95.484,55.419 L83.749,46.425 C83.060,45.745 83.060,44.644 83.749,43.964 C84.440,43.285 85.560,43.285 86.248,43.964 L97.983,52.957 C98.672,53.638 98.674,54.739 97.983,55.419 ZM95.791,61.188 C95.789,62.149 94.998,62.927 94.024,62.927 L82.083,62.928 C81.106,62.928 80.315,62.150 80.315,61.188 C80.315,60.228 81.107,59.448 82.082,59.448 L94.024,59.448 C95.000,59.448 95.791,60.228 95.791,61.188 ZM67.464,173.680 C79.978,173.680 90.113,183.821 90.113,196.340 C90.113,208.859 79.978,219.000 67.464,219.000 C54.954,219.000 44.816,208.859 44.816,196.340 C44.816,183.821 54.953,173.680 67.464,173.680 ZM67.464,206.192 C72.902,206.192 77.311,201.783 77.311,196.340 C77.311,190.895 72.902,186.489 67.464,186.489 C62.025,186.489 57.619,190.895 57.619,196.340 C57.619,201.782 62.025,206.192 67.464,206.192 ZM168.617,173.680 C181.131,173.680 191.266,183.821 191.266,196.340 C191.266,208.859 181.131,219.000 168.617,219.000 C156.107,219.000 145.969,208.859 145.969,196.340 C145.969,183.821 156.107,173.680 168.617,173.680 ZM168.617,206.192 C174.055,206.192 178.465,201.783 178.465,196.340 C178.465,190.895 174.055,186.489 168.617,186.489 C163.179,186.489 158.772,190.895 158.772,196.340 C158.772,201.782 163.179,206.192 168.617,206.192 Z" class="cls-1"/>
    <path d="M457.079,288.424 L340.304,288.424 C324.357,288.424 311.383,301.363 311.383,317.268 L311.383,325.793 L275.914,325.793 L275.914,280.442 C275.914,277.436 273.470,275.000 270.457,275.000 C267.444,275.000 265.000,277.436 265.000,280.442 L265.000,470.558 C265.000,473.564 267.444,476.000 270.457,476.000 C273.470,476.000 275.914,473.564 275.914,470.558 L275.914,425.206 L311.383,425.206 L311.383,433.732 C311.383,449.637 324.357,462.576 340.304,462.576 L457.079,462.576 C473.026,462.576 486.000,449.637 486.000,433.732 L486.000,317.269 C486.000,301.363 473.026,288.424 457.079,288.424 ZM275.914,336.678 L311.383,336.678 L311.383,414.320 L275.914,414.320 L275.914,336.678 ZM449.803,392.910 C449.803,395.917 447.359,398.352 444.346,398.352 L421.604,398.352 L421.604,421.034 C421.604,424.040 419.161,426.476 416.148,426.476 L381.235,426.476 C378.222,426.476 375.778,424.040 375.778,421.034 L375.778,398.352 L353.037,398.352 C350.023,398.352 347.580,395.917 347.580,392.910 L347.580,358.091 C347.580,355.085 350.023,352.649 353.037,352.649 L375.778,352.649 L375.778,329.966 C375.778,326.960 378.222,324.524 381.235,324.524 L416.148,324.524 C419.161,324.524 421.604,326.960 421.604,329.966 L421.604,352.649 L444.346,352.649 C447.359,352.649 449.803,355.085 449.803,358.091 L449.803,392.910 Z" class="cls-1"/>
  </g>
</svg>
