<svg xmlns="http://www.w3.org/2000/svg" xmlns:xlink="http://www.w3.org/1999/xlink" preserveAspectRatio="xMidYMid" width="64" height="64" viewBox="0 0 500 500">
  <defs>
    <style>
      .cls-1 {
        fill: #1abc9c;
      }

      .cls-1, .cls-2, .cls-3 {
        fill-rule: evenodd;
      }

      .cls-2 {
        fill: #000;
        opacity: 0.15;
      }

      .cls-3 {
        fill: #fff;
      }
    </style>
  </defs>
  <path d="M177.000,426.000 L323.500,426.000 L250.000,500.000 " class="cls-1"/>
  <path d="M177.000,426.000 L250.000,500.000 L324.000,426.000 " class="cls-2"/>
  <path d="M-0.000,250.000 L250.000,-0.000 L500.000,250.000 L352.500,398.000 L148.500,398.000 " class="cls-1"/>
  <path d="M366.533,229.263 L366.533,361.000 L133.465,361.000 L133.465,229.263 L117.000,229.263 L136.232,139.000 L363.767,139.000 L383.000,229.263 L366.533,229.263 ZM249.999,151.604 C230.700,151.604 215.057,167.258 215.057,186.570 C215.057,205.882 230.701,221.537 249.999,221.537 C269.296,221.537 284.943,205.882 284.943,186.570 C284.943,167.259 269.296,151.604 249.999,151.604 ZM291.427,254.286 L286.758,254.286 L286.758,237.225 L284.300,237.225 L278.067,241.484 L279.736,243.973 L283.377,241.510 L283.377,254.286 L278.705,254.286 L278.705,257.290 L291.427,257.290 L291.427,254.286 ZM306.819,254.286 L302.154,254.286 L302.154,237.225 L299.691,237.225 L293.457,241.484 L295.127,243.973 L298.768,241.510 L298.768,254.286 L294.101,254.286 L294.101,257.290 L306.819,257.290 L306.819,254.286 ZM322.084,254.286 L315.826,254.286 L314.028,254.313 L319.799,248.027 C321.391,246.307 322.084,245.127 322.084,242.871 L322.084,242.434 C322.084,239.662 320.209,236.942 315.594,236.942 C311.162,236.942 309.105,239.175 309.105,243.408 L309.105,243.948 L312.494,243.948 C312.494,241.021 313.594,239.946 315.491,239.946 L315.697,239.946 C317.442,239.946 318.670,241.021 318.670,243.049 L318.670,243.305 C318.670,244.511 318.212,245.282 317.132,246.436 L309.105,255.159 L309.106,255.159 L309.106,257.290 L322.084,257.290 L322.084,254.286 ZM345.405,230.890 L334.033,230.890 L334.033,264.734 L266.118,264.734 L266.118,230.890 L154.593,230.890 L154.593,339.857 L175.437,339.857 L175.437,275.878 L324.563,275.878 L324.563,339.857 L345.405,339.857 L345.405,230.890 ZM257.078,210.065 C254.066,203.281 250.952,195.746 252.493,189.012 C245.214,193.622 243.849,202.326 245.328,210.065 C239.465,207.782 234.893,203.760 233.659,201.182 C231.628,196.934 232.356,191.662 235.671,186.679 C239.780,180.166 248.570,171.602 247.377,159.825 C258.508,168.845 266.657,178.935 266.657,190.573 C266.657,196.391 266.336,203.835 257.078,210.065 Z" class="cls-3"/>
  <path d="M126.500,375.000 L375.500,125.031 L500.000,250.000 L352.500,398.000 L148.500,398.000 L126.500,375.000 Z" class="cls-2"/>
</svg>
