<svg xmlns="http://www.w3.org/2000/svg" xmlns:xlink="http://www.w3.org/1999/xlink" preserveAspectRatio="xMidYMid" width="64" height="64" viewBox="0 0 500 500">
  <defs>
    <style>
      .cls-1 {
        fill: #1abc9c;
      }

      .cls-1, .cls-2, .cls-3 {
        fill-rule: evenodd;
      }

      .cls-2 {
        fill: #000;
        opacity: 0.15;
      }

      .cls-3 {
        fill: #fff;
      }
    </style>
  </defs>
  <path d="M177.000,426.000 L323.500,426.000 L250.000,500.000 " class="cls-1"/>
  <path d="M177.000,426.000 L250.000,500.000 L324.000,426.000 " class="cls-2"/>
  <path d="M-0.000,250.000 L250.000,-0.000 L500.000,250.000 L352.500,398.000 L148.500,398.000 " class="cls-1"/>
  <path d="M377.903,315.874 C378.243,314.857 378.433,313.768 378.433,312.635 L378.433,193.655 C378.433,188.014 373.880,183.444 368.267,183.444 L311.685,183.444 L311.685,310.085 C311.685,312.118 311.319,314.061 310.673,315.874 L304.036,315.874 C304.376,314.857 304.566,313.768 304.566,312.635 L304.566,149.225 C304.566,143.585 300.013,139.013 294.400,139.013 L205.627,139.013 C200.012,139.013 195.463,143.585 195.463,149.225 L195.463,312.635 C195.463,313.768 195.655,314.857 195.993,315.874 L189.359,315.874 C188.712,314.061 188.347,312.118 188.347,310.085 L188.347,183.444 L133.120,183.444 C127.505,183.444 122.956,188.014 122.956,193.655 L122.956,312.635 C122.956,313.768 123.148,314.857 123.483,315.874 L106.012,315.874 L106.012,336.981 L394.019,336.981 L394.019,315.874 L377.903,315.874 L377.903,315.874 ZM153.447,274.166 L138.877,274.166 L138.877,259.529 L153.447,259.529 L153.447,274.166 ZM153.447,248.465 L138.877,248.465 L138.877,233.826 L153.447,233.826 L153.447,248.465 ZM153.447,223.613 L138.877,223.613 L138.877,208.974 L153.447,208.974 L153.447,223.613 ZM176.151,274.166 L161.580,274.166 L161.580,259.529 L176.151,259.529 L176.151,274.166 ZM176.151,248.465 L161.580,248.465 L161.580,233.826 L176.151,233.826 L176.151,248.465 ZM176.151,223.613 L161.580,223.613 L161.580,208.974 L176.151,208.974 L176.151,223.613 ZM272.632,315.192 L229.854,315.192 L229.854,261.571 L272.632,261.571 L272.632,315.192 ZM250.014,215.610 C230.226,215.610 214.185,199.491 214.185,179.610 C214.185,159.725 230.229,143.606 250.014,143.606 C269.805,143.606 285.846,159.725 285.846,179.610 C285.846,199.494 269.805,215.610 250.014,215.610 ZM342.517,274.166 L327.949,274.166 L327.949,259.529 L342.517,259.529 L342.517,274.166 ZM342.517,248.465 L327.949,248.465 L327.949,233.826 L342.517,233.826 L342.517,248.465 ZM342.517,223.613 L327.949,223.613 L327.949,208.974 L342.517,208.974 L342.517,223.613 ZM365.216,274.166 L350.648,274.166 L350.648,259.529 L365.216,259.529 L365.216,274.166 ZM365.216,248.465 L350.648,248.465 L350.648,233.826 L365.216,233.826 L365.216,248.465 ZM365.216,223.613 L350.648,223.613 L350.648,208.974 L365.216,208.974 L365.216,223.613 ZM258.907,170.675 L272.629,170.675 L272.629,188.545 L258.907,188.545 L258.907,202.339 L241.121,202.339 L241.121,188.545 L227.399,188.545 L227.399,170.675 L241.121,170.675 L241.121,156.886 L258.907,156.886 L258.907,170.675 Z" class="cls-3"/>
  <path d="M126.500,375.000 L375.500,125.031 L500.000,250.000 L352.500,398.000 L148.500,398.000 L126.500,375.000 Z" class="cls-2"/>
</svg>
