<svg xmlns="http://www.w3.org/2000/svg" xmlns:xlink="http://www.w3.org/1999/xlink" preserveAspectRatio="xMidYMid" width="64" height="64" viewBox="0 0 500 500">
  <defs>
    <style>
      .cls-1 {
        fill: #1abc9c;
      }

      .cls-1, .cls-2, .cls-3 {
        fill-rule: evenodd;
      }

      .cls-2 {
        fill: #000;
        opacity: 0.15;
      }

      .cls-3 {
        fill: #fff;
      }
    </style>
  </defs>
  <path d="M177.000,426.000 L323.500,426.000 L250.000,500.000 " class="cls-1"/>
  <path d="M177.000,426.000 L250.000,500.000 L324.000,426.000 " class="cls-2"/>
  <path d="M-0.000,250.000 L250.000,-0.000 L500.000,250.000 L352.500,398.000 L148.500,398.000 " class="cls-1"/>
  <path d="M351.677,153.027 L221.163,153.027 C203.340,153.027 188.839,167.511 188.839,185.314 L188.839,194.858 L149.197,194.858 L149.197,144.092 C149.197,140.727 146.466,138.000 143.099,138.000 C139.731,138.000 137.000,140.727 137.000,144.092 L137.000,356.908 C137.000,360.273 139.731,363.000 143.099,363.000 C146.466,363.000 149.197,360.273 149.197,356.908 L149.197,306.141 L188.839,306.141 L188.839,315.686 C188.839,333.489 203.340,347.973 221.163,347.973 L351.677,347.973 C369.500,347.973 384.000,333.489 384.000,315.686 L384.000,185.316 C384.000,167.511 369.500,153.027 351.677,153.027 ZM149.197,207.042 L188.839,207.042 L188.839,293.955 L149.197,293.955 L149.197,207.042 ZM343.544,269.989 C343.544,273.354 340.813,276.081 337.446,276.081 L312.028,276.081 L312.028,301.470 C312.028,304.836 309.297,307.562 305.930,307.562 L266.910,307.562 C263.542,307.562 260.811,304.836 260.811,301.470 L260.811,276.081 L235.394,276.081 C232.026,276.081 229.295,273.354 229.295,269.989 L229.295,231.012 C229.295,227.647 232.026,224.920 235.394,224.920 L260.811,224.920 L260.811,199.530 C260.811,196.164 263.542,193.438 266.910,193.438 L305.930,193.438 C309.297,193.438 312.028,196.164 312.028,199.530 L312.028,224.920 L337.446,224.920 C340.813,224.920 343.544,227.647 343.544,231.012 L343.544,269.989 Z" class="cls-3"/>
  <path d="M126.500,375.000 L375.500,125.031 L500.000,250.000 L352.500,398.000 L148.500,398.000 L126.500,375.000 Z" class="cls-2"/>
</svg>
