<svg xmlns="http://www.w3.org/2000/svg" xmlns:xlink="http://www.w3.org/1999/xlink" preserveAspectRatio="xMidYMid" width="64" height="64" viewBox="0 0 500 500">
  <defs>
    <style>
      .cls-1 {
        fill: #1abc9c;
      }

      .cls-1, .cls-2, .cls-3 {
        fill-rule: evenodd;
      }

      .cls-2 {
        fill: #000;
        opacity: 0.15;
      }

      .cls-3 {
        fill: #fff;
      }
    </style>
  </defs>
  <path d="M177.000,426.000 L323.500,426.000 L250.000,500.000 " class="cls-1"/>
  <path d="M177.000,426.000 L250.000,500.000 L324.000,426.000 " class="cls-2"/>
  <path d="M-0.000,250.000 L250.000,-0.000 L500.000,250.000 L352.500,398.000 L148.500,398.000 " class="cls-1"/>
  <path d="M386.245,327.687 L347.391,327.687 C347.441,326.899 347.475,326.108 347.475,325.308 C347.475,304.793 330.788,288.103 310.276,288.103 C289.765,288.103 273.079,304.793 273.079,325.308 C273.079,326.108 273.114,326.899 273.163,327.687 L210.332,327.687 C210.382,326.899 210.416,326.108 210.416,325.308 C210.416,304.793 193.729,288.103 173.217,288.103 C152.706,288.103 136.020,304.793 136.020,325.308 C136.020,326.108 136.054,326.899 136.104,327.687 L114.752,327.687 C103.338,327.687 94.000,318.345 94.000,306.927 L94.000,267.483 C94.000,256.066 106.531,241.020 117.946,241.020 C133.271,241.020 140.616,219.020 141.732,214.612 L153.058,181.264 C156.729,170.453 169.073,161.608 180.487,161.608 L288.967,161.608 C300.381,161.608 314.013,169.904 319.263,180.043 L337.756,215.583 C343.004,225.722 354.431,236.411 367.796,239.887 C378.891,242.772 407.000,242.772 406.998,275.987 L406.998,306.927 C406.998,318.345 397.661,327.687 386.245,327.687 ZM208.631,177.541 L187.116,177.541 C177.460,177.541 167.017,185.023 163.912,194.169 L154.330,222.381 C153.858,224.243 152.072,229.817 148.788,234.931 L208.631,234.931 L208.631,177.541 ZM244.685,263.471 L250.662,269.299 C252.434,271.027 253.542,274.437 253.124,276.876 L251.713,285.103 C251.295,287.543 252.745,288.597 254.935,287.445 L262.321,283.561 C264.512,282.409 268.096,282.409 270.286,283.561 L277.672,287.445 C279.863,288.597 281.313,287.543 280.895,285.103 L279.484,276.876 C279.066,274.437 280.174,271.027 281.945,269.299 L287.923,263.471 C289.694,261.743 289.141,260.038 286.693,259.682 L278.434,258.482 C275.984,258.126 273.085,256.019 271.989,253.799 L268.295,246.313 C267.199,244.092 265.409,244.092 264.313,246.313 L260.619,253.799 C259.523,256.019 256.624,258.126 254.174,258.482 L245.916,259.682 C243.467,260.038 242.913,261.743 244.685,263.471 ZM320.161,223.204 L304.516,193.137 C300.075,184.560 288.543,177.542 278.887,177.542 L229.258,177.542 L229.258,234.932 L329.541,234.932 C325.510,231.373 322.252,227.240 320.161,223.204 ZM278.960,144.601 L262.782,144.602 C261.458,144.602 260.387,143.547 260.387,142.245 C260.387,140.944 261.458,139.888 262.781,139.888 L278.960,139.888 C280.281,139.888 281.352,140.944 281.352,142.245 C281.352,143.547 280.280,144.601 278.960,144.601 ZM261.595,134.429 C260.660,135.350 259.144,135.351 258.209,134.429 C257.275,133.509 257.275,132.017 258.209,131.096 L274.111,118.914 C275.046,117.993 276.563,117.994 277.497,118.914 C278.431,119.836 278.431,121.326 277.497,122.247 L261.595,134.429 ZM252.209,124.740 C251.790,125.975 250.433,126.641 249.179,126.227 C247.925,125.813 247.248,124.478 247.667,123.244 L254.016,107.397 C254.435,106.162 255.792,105.496 257.044,105.910 C258.298,106.323 258.974,107.658 258.554,108.893 L252.209,124.740 ZM236.389,124.395 C235.069,124.395 233.995,123.340 233.995,122.038 L233.995,102.357 C233.995,101.055 235.069,99.999 236.389,99.999 C237.713,99.999 238.783,101.055 238.783,102.357 L238.783,122.038 C238.783,123.340 237.712,124.395 236.389,124.395 ZM223.598,126.227 C222.346,126.640 220.989,125.975 220.570,124.740 L214.223,109.831 C213.803,108.598 214.481,107.263 215.733,106.849 C216.987,106.436 218.344,107.101 218.763,108.336 L225.110,123.244 C225.530,124.478 224.853,125.813 223.598,126.227 ZM236.020,128.635 C243.456,128.635 249.997,131.220 253.815,135.139 C256.151,137.194 257.667,140.445 257.668,144.116 C257.668,150.335 253.336,155.375 247.990,155.375 L223.994,155.375 C218.649,155.375 214.315,150.335 214.315,144.116 C214.315,140.218 216.020,136.783 218.606,134.763 C222.468,131.057 228.825,128.635 236.020,128.635 ZM214.570,134.429 C213.635,135.350 212.119,135.350 211.184,134.429 L195.284,122.247 C194.349,121.326 194.349,119.835 195.284,118.914 C196.220,117.994 197.737,117.994 198.670,118.914 L214.570,131.096 C215.504,132.017 215.506,133.509 214.570,134.429 ZM211.599,142.244 C211.598,143.546 210.525,144.600 209.205,144.600 L193.026,144.601 C191.702,144.601 190.630,143.547 190.630,142.244 C190.630,140.944 191.704,139.888 193.024,139.887 L209.205,139.888 C210.528,139.887 211.599,140.944 211.599,142.244 ZM173.217,294.614 C190.173,294.614 203.906,308.350 203.906,325.307 C203.906,342.265 190.173,356.001 173.217,356.001 C156.266,356.001 142.529,342.265 142.529,325.307 C142.529,308.350 156.265,294.614 173.217,294.614 ZM173.217,338.652 C180.586,338.652 186.561,332.679 186.561,325.307 C186.561,317.932 180.586,311.963 173.217,311.963 C165.848,311.963 159.877,317.932 159.877,325.307 C159.877,332.678 165.848,338.652 173.217,338.652 ZM310.278,294.614 C327.234,294.614 340.967,308.350 340.967,325.307 C340.967,342.265 327.234,356.001 310.278,356.001 C293.327,356.001 279.590,342.265 279.590,325.307 C279.590,308.350 293.326,294.614 310.278,294.614 ZM310.278,338.652 C317.647,338.652 323.621,332.679 323.621,325.307 C323.621,317.932 317.647,311.963 310.278,311.963 C302.909,311.963 296.938,317.932 296.938,325.307 C296.938,332.678 302.909,338.652 310.278,338.652 Z" class="cls-3"/>
  <path d="M126.500,375.000 L375.500,125.031 L500.000,250.000 L352.500,398.000 L148.500,398.000 L126.500,375.000 Z" class="cls-2"/>
</svg>
