<svg xmlns="http://www.w3.org/2000/svg" xmlns:xlink="http://www.w3.org/1999/xlink" preserveAspectRatio="xMidYMid" width="64" height="64" viewBox="0 0 500 500">
  <defs>
    <style>
      .cls-1 {
        fill: #e74c3c;
      }

      .cls-1, .cls-2, .cls-3 {
        fill-rule: evenodd;
      }

      .cls-2 {
        fill: #000;
        opacity: 0.15;
      }

      .cls-3 {
        fill: #fff;
      }
    </style>
  </defs>
  <path d="M177.000,426.000 L323.500,426.000 L250.000,500.000 " class="cls-1"/>
  <path d="M177.000,426.000 L250.000,500.000 L324.000,426.000 " class="cls-2"/>
  <path d="M-0.000,250.000 L250.000,-0.000 L500.000,250.000 L352.500,398.000 L148.500,398.000 " class="cls-1"/>
  <path d="M369.292,353.673 C373.199,357.222 374.540,365.937 369.498,370.934 C364.484,375.986 355.758,374.646 352.220,370.744 C319.475,335.581 286.735,300.408 253.993,265.234 L250.270,261.262 C216.017,298.031 181.774,334.822 147.531,371.613 C144.004,375.509 135.291,376.855 130.282,371.803 C125.227,366.794 126.560,358.068 130.461,354.525 C167.371,320.198 204.257,285.854 241.156,251.511 C241.156,251.511 223.297,232.247 215.599,223.980 C197.574,236.898 170.872,231.987 154.816,212.167 C137.551,191.251 122.655,153.855 137.074,138.542 C152.401,124.116 189.781,139.041 210.693,156.289 C230.509,172.359 235.450,199.024 222.502,217.056 C231.781,225.703 241.061,234.326 250.349,242.967 C250.330,242.984 250.319,242.994 250.297,243.011 C250.297,243.011 250.875,243.466 250.349,242.967 C259.032,234.882 267.714,226.802 276.397,218.717 C269.060,206.193 273.934,188.627 285.851,178.605 C299.515,167.153 350.147,123.687 351.514,125.066 C352.871,126.417 317.358,159.968 293.633,183.760 L297.589,187.710 C322.910,165.520 358.667,132.234 360.045,133.591 C361.402,134.953 326.996,169.597 304.052,194.184 L307.981,198.102 C332.532,175.137 367.187,140.737 368.527,142.086 C369.889,143.453 336.602,179.204 314.406,204.527 L318.335,208.447 C342.115,184.729 375.652,149.221 377.020,150.564 C378.393,151.931 323.572,216.161 323.501,216.256 C323.490,216.245 335.131,202.576 323.458,216.223 C312.311,229.263 295.662,233.208 283.354,225.697 C275.361,234.271 267.389,242.845 259.406,251.418 C258.706,250.757 332.673,319.585 369.292,353.673 Z" class="cls-3"/>
  <path d="M126.500,375.000 L375.500,125.031 L500.000,250.000 L352.500,398.000 L148.500,398.000 L126.500,375.000 Z" class="cls-2"/>
</svg>
