<svg xmlns="http://www.w3.org/2000/svg" xmlns:xlink="http://www.w3.org/1999/xlink" preserveAspectRatio="xMidYMid" width="64" height="64" viewBox="0 0 500 500">
  <defs>
    <style>
      .cls-1 {
        fill: #4c1c17;
      }

      .cls-1, .cls-2, .cls-3 {
        fill-rule: evenodd;
      }

      .cls-2 {
        fill: #000;
        opacity: 0.15;
      }

      .cls-3 {
        fill: #fff;
      }
    </style>
  </defs>
  <path d="M177.000,426.000 L323.500,426.000 L250.000,500.000 " class="cls-1"/>
  <path d="M177.000,426.000 L250.000,500.000 L324.000,426.000 " class="cls-2"/>
  <path d="M-0.000,250.000 L250.000,-0.000 L500.000,250.000 L352.500,398.000 L148.500,398.000 " class="cls-1"/>
  <path d="M407.947,270.124 C406.523,303.964 368.706,313.627 345.202,314.091 C334.409,330.143 318.138,342.192 293.604,349.376 L197.725,349.376 C135.773,331.230 125.986,282.544 125.986,215.095 L365.349,215.095 C365.349,222.114 365.197,228.861 364.943,235.455 C374.020,234.409 387.800,234.547 397.587,242.805 C402.647,247.087 408.558,255.291 407.947,270.124 ZM386.528,257.107 C380.998,252.402 370.054,253.104 363.697,254.178 C362.223,269.116 359.553,282.690 355.053,294.738 C368.731,292.764 389.604,286.865 390.342,269.342 C390.710,260.660 387.544,257.969 386.528,257.107 ZM254.204,202.417 C265.581,194.140 267.933,184.530 259.994,167.603 C250.079,146.554 273.571,145.779 273.571,145.779 C273.571,145.779 263.630,150.517 270.837,163.792 C290.706,194.398 254.204,202.417 254.204,202.417 ZM248.178,162.083 C269.058,202.132 223.498,205.625 223.498,205.625 C223.498,205.625 242.433,195.591 227.401,170.426 C186.423,112.674 256.689,94.011 256.689,94.011 C235.237,111.057 231.411,129.925 248.178,162.083 ZM339.582,368.781 L301.181,368.781 C300.646,372.281 297.875,375.011 294.367,375.011 L207.068,375.011 C203.566,375.011 200.794,372.281 200.261,368.781 L161.858,368.781 C155.375,368.781 150.119,363.294 150.119,356.533 L351.342,356.533 C351.342,363.294 346.079,368.781 339.582,368.781 Z" class="cls-3"/>
  <path d="M126.500,375.000 L375.500,125.031 L500.000,250.000 L352.500,398.000 L148.500,398.000 L126.500,375.000 Z" class="cls-2"/>
</svg>
