<svg xmlns="http://www.w3.org/2000/svg" xmlns:xlink="http://www.w3.org/1999/xlink" preserveAspectRatio="xMidYMid" width="64" height="64" viewBox="0 0 500 500">
  <defs>
    <style>
      .cls-1 {
        fill: #8e44ad;
      }

      .cls-1, .cls-2, .cls-3 {
        fill-rule: evenodd;
      }

      .cls-2 {
        fill: #000;
        opacity: 0.15;
      }

      .cls-3 {
        fill: #fff;
      }
    </style>
  </defs>
  <path d="M177.000,426.000 L323.500,426.000 L250.000,500.000 " class="cls-1"/>
  <path d="M177.000,426.000 L250.000,500.000 L324.000,426.000 " class="cls-2"/>
  <path d="M-0.000,250.000 L250.000,-0.000 L500.000,250.000 L352.500,398.000 L148.500,398.000 " class="cls-1"/>
  <path d="M339.143,163.896 L327.629,157.843 L316.114,163.896 L318.289,151.064 L308.971,141.976 L321.872,140.107 L327.629,128.441 L333.398,140.107 L346.275,141.976 L336.946,151.064 L339.143,163.896 ZM307.044,129.995 L296.893,122.624 L286.753,129.995 L290.629,118.069 L280.478,110.704 L293.018,110.704 L296.893,98.780 L300.769,110.704 L313.321,110.704 L303.169,118.069 L307.044,129.995 ZM306.267,112.974 L299.091,112.974 L296.881,106.161 L294.663,112.974 L287.486,112.974 L293.299,117.197 L291.102,124.009 L296.871,119.792 L302.673,123.999 L300.453,117.185 L306.267,112.974 ZM276.320,95.564 L272.738,92.958 L269.143,95.564 L270.518,91.341 L266.934,88.735 L271.374,88.735 L272.738,84.517 L274.100,88.735 L278.517,88.735 L274.946,91.341 L276.320,95.564 ZM359.987,264.919 C359.987,266.630 359.829,268.296 359.773,269.974 L359.773,275.357 L359.525,275.357 C354.805,329.061 313.613,369.915 256.784,377.370 C256.784,377.370 253.359,378.316 247.354,377.888 C240.221,377.134 237.800,376.538 237.800,376.538 C182.795,367.179 144.049,327.293 139.474,275.357 L139.013,275.357 L139.013,268.522 L139.181,268.522 C139.148,267.306 139.013,266.134 139.013,264.919 C139.013,207.853 180.406,162.247 240.176,152.815 L240.176,126.960 L258.856,126.960 L258.856,152.990 C318.030,161.948 359.998,207.577 359.987,264.919 ZM246.091,367.798 L246.091,327.271 C246.046,327.271 245.978,327.271 245.911,327.271 C230.216,327.271 216.043,325.288 203.537,322.327 C213.192,337.439 227.185,352.371 246.091,367.798 ZM236.559,369.443 C216.955,352.394 202.940,336.200 193.768,319.714 C174.537,314.017 160.272,306.359 152.205,301.314 C164.870,336.132 195.796,361.751 236.559,369.443 ZM145.839,264.919 C145.839,266.134 145.975,267.306 145.997,268.499 L180.181,268.499 C180.181,268.499 180.181,268.499 180.181,268.477 C180.159,264.558 180.372,260.751 180.722,257.001 C180.744,256.855 180.767,256.710 180.767,256.563 C182.254,240.854 186.783,226.767 192.755,214.267 C169.714,221.552 154.775,231.513 150.302,234.745 C147.451,244.288 145.839,254.378 145.839,264.919 ZM154.155,224.103 C162.976,218.800 177.668,211.310 197.058,205.962 C208.281,185.979 222.837,170.839 233.315,161.025 C196.123,169.245 167.494,192.759 154.155,224.103 ZM246.080,161.520 C239.365,166.779 221.879,181.576 207.660,203.405 C219.175,200.945 232.031,199.380 246.080,199.390 L246.080,161.520 ZM246.103,275.357 L187.313,275.357 C188.304,288.724 192.044,301.494 198.681,314.038 C212.189,317.777 228.143,320.423 246.091,320.390 L246.103,320.390 L246.103,275.357 ZM353.205,264.919 C353.205,254.536 351.763,244.638 349.115,235.325 C332.237,225.798 316.069,219.041 300.735,214.464 C308.205,230.015 313.411,248.072 313.321,268.409 C313.321,268.432 313.321,268.477 313.321,268.499 L353.025,268.499 C353.070,267.306 353.193,266.134 353.205,264.919 ZM347.245,300.030 C330.986,308.746 315.337,315.030 300.487,319.309 C291.587,336.673 278.033,353.520 259.522,369.983 C301.884,363.204 334.457,336.583 347.245,300.030 ZM252.942,363.970 C269.740,349.353 282.088,335.638 290.730,321.854 C277.412,324.984 264.794,326.606 252.942,327.056 L252.942,363.970 ZM252.919,320.277 C266.113,319.782 280.320,317.732 295.384,313.656 C297.209,310.120 298.910,306.562 300.250,302.958 C300.465,302.372 300.713,301.765 300.904,301.156 C301.129,300.571 301.287,299.940 301.512,299.332 C304.037,291.449 305.580,283.466 306.177,275.347 L252.931,275.347 L252.919,275.347 L252.919,320.277 ZM252.931,206.300 L252.931,268.499 L306.481,268.499 C306.503,265.335 306.335,262.261 306.098,259.198 C305.895,256.788 305.591,254.401 305.219,252.036 C305.151,251.608 305.106,251.180 305.061,250.763 C302.718,236.698 297.704,223.663 291.462,211.925 C277.852,208.534 264.963,206.784 252.931,206.300 ZM260.400,160.067 C267.509,167.021 275.993,176.232 284.060,187.302 C288.365,192.989 292.533,199.318 296.386,206.147 C312.035,210.308 328.609,216.665 345.892,225.798 C332.452,191.570 301.264,166.931 260.400,160.067 ZM220.426,129.741 L212.539,124.021 L204.675,129.741 L207.671,120.491 L199.819,114.776 L209.542,114.776 L212.539,105.525 L215.547,114.776 L225.282,114.776 L217.418,120.491 L220.426,129.741 ZM196.867,136.673 L198.760,130.788 L200.664,136.673 L206.838,136.673 L201.846,140.304 L203.751,146.171 L198.760,142.550 L193.746,146.171 L195.661,140.304 L190.670,136.673 L196.867,136.673 ZM198.073,101.938 L191.245,96.995 L184.451,101.938 L187.053,93.937 L180.237,88.999 L188.642,88.999 L191.245,80.999 L193.848,88.999 L202.264,88.999 L195.470,93.937 L198.073,101.938 ZM177.341,149.403 L172.857,146.138 L168.362,149.403 L170.074,144.134 L165.601,140.878 L171.145,140.878 L172.857,135.597 L174.570,140.878 L180.114,140.878 L175.618,144.134 L177.341,149.403 Z" class="cls-3"/>
  <path d="M126.500,375.000 L375.500,125.031 L500.000,250.000 L352.500,398.000 L148.500,398.000 L126.500,375.000 Z" class="cls-2"/>
</svg>
