<svg xmlns="http://www.w3.org/2000/svg" xmlns:xlink="http://www.w3.org/1999/xlink" preserveAspectRatio="xMidYMid" width="64" height="64" viewBox="0 0 500 500">
  <defs>
    <style>
      .cls-1 {
        fill: #e947ae;
      }

      .cls-1, .cls-2, .cls-3 {
        fill-rule: evenodd;
      }

      .cls-2 {
        fill: #000;
        opacity: 0.15;
      }

      .cls-3 {
        fill: #fff;
      }
    </style>
  </defs>
  <path d="M177.000,426.000 L323.500,426.000 L250.000,500.000 " class="cls-1"/>
  <path d="M177.000,426.000 L250.000,500.000 L324.000,426.000 " class="cls-2"/>
  <path d="M-0.000,250.000 L250.000,-0.000 L500.000,250.000 L352.500,398.000 L148.500,398.000 " class="cls-1"/>
  <path d="M328.169,127.274 C327.292,127.274 326.522,126.945 325.709,126.784 L304.269,165.194 L344.978,165.194 L269.783,277.801 L263.164,277.801 L263.164,376.107 C287.898,376.801 306.247,379.414 306.247,382.527 C306.247,386.185 280.925,389.139 249.658,389.139 C218.380,389.139 193.032,386.185 193.032,382.527 C193.032,379.414 211.413,376.801 236.153,376.118 L236.153,277.812 L229.539,277.812 L170.976,190.105 C170.190,190.349 169.474,190.573 168.570,190.787 C149.985,195.148 131.325,183.632 126.946,165.098 C122.567,146.566 134.133,127.957 152.713,123.607 C171.282,119.234 189.951,130.751 194.320,149.285 C195.635,154.840 195.593,160.193 194.400,165.194 L297.094,165.194 L319.977,124.204 C316.972,121.772 314.930,118.232 314.930,114.074 C314.930,106.780 320.854,100.861 328.169,100.861 C335.483,100.861 341.428,106.780 341.428,114.074 C341.428,121.367 335.483,127.274 328.169,127.274 ZM165.117,185.892 L163.453,178.844 L156.893,169.034 L148.002,183.375 C153.161,185.871 159.106,186.841 165.117,185.892 ZM143.328,180.571 L155.335,161.229 L133.015,166.463 C134.951,172.274 138.640,177.105 143.328,180.571 ZM178.499,134.249 L166.892,152.932 L163.149,153.816 L162.261,150.073 L173.901,131.327 C168.854,128.757 163.058,127.616 157.134,128.341 L162.261,150.073 L160.224,153.337 L156.962,151.321 L151.803,129.504 C146.023,131.337 141.125,134.835 137.612,139.368 L156.952,151.321 L157.824,155.064 L154.081,155.928 L134.689,143.942 C132.037,149.124 130.908,155.107 131.753,161.174 L154.091,155.928 L157.364,157.964 L155.351,161.214 L159.085,160.353 L159.972,164.096 L159.284,165.194 L160.224,165.194 L159.972,164.096 L161.988,160.811 L165.271,162.859 L165.833,165.194 L169.084,165.194 L165.271,162.859 L164.384,159.095 L168.129,158.234 L164.865,156.205 L166.892,152.932 L188.256,147.920 C186.385,142.342 182.910,137.661 178.499,134.249 ZM189.502,153.219 L168.155,158.239 L179.440,165.205 L188.604,165.205 C189.711,161.398 190.085,157.336 189.502,153.219 ZM281.503,205.907 L274.339,205.929 L290.100,177.702 L177.777,177.702 L236.249,265.282 L263.057,265.282 L321.539,177.702 L297.265,177.702 L281.503,205.907 ZM260.586,262.851 L239.547,262.851 L199.753,205.972 L274.339,205.940 L247.252,254.405 L252.717,257.434 L281.503,205.907 L299.542,205.907 L260.586,262.851 ZM223.539,212.264 C221.423,212.264 219.685,213.969 219.685,216.102 C219.685,218.224 221.423,219.941 223.539,219.941 C225.663,219.941 227.389,218.214 227.389,216.102 C227.389,213.969 225.663,212.264 223.539,212.264 ZM255.048,230.733 C258.908,230.733 262.041,227.608 262.041,223.779 C262.041,219.919 258.908,216.806 255.048,216.806 C251.219,216.806 248.086,219.919 248.086,223.779 C248.086,227.608 251.219,230.733 255.048,230.733 ZM255.048,219.919 C257.186,219.919 258.908,221.647 258.908,223.769 C258.908,225.891 257.186,227.608 255.048,227.608 C252.930,227.608 251.198,225.891 251.198,223.769 C251.198,221.647 252.930,219.919 255.048,219.919 ZM161.582,154.168 L163.149,153.816 L163.507,155.362 L161.582,154.168 ZM160.641,159.969 L159.085,160.353 L158.711,158.797 L160.641,159.969 ZM162.828,159.468 L161.988,160.811 L160.641,159.969 L162.828,159.468 ZM164.026,157.538 L164.384,159.095 L162.828,159.468 L164.026,157.538 ZM157.353,157.954 L158.208,156.610 L158.711,158.797 L157.353,157.954 ZM157.839,155.064 L159.390,154.702 L158.208,156.610 L157.839,155.064 ZM160.235,153.337 L161.582,154.168 L159.390,154.702 L160.235,153.337 ZM164.865,156.194 L164.026,157.538 L163.507,155.362 L164.865,156.194 Z" class="cls-3"/>
  <path d="M126.500,375.000 L375.500,125.031 L500.000,250.000 L352.500,398.000 L148.500,398.000 L126.500,375.000 Z" class="cls-2"/>
</svg>
