<svg xmlns="http://www.w3.org/2000/svg" xmlns:xlink="http://www.w3.org/1999/xlink" preserveAspectRatio="xMidYMid" width="64" height="64" viewBox="0 0 500 500">
  <defs>
    <style>
      .cls-1 {
        fill: #e67e22;
      }

      .cls-1, .cls-2, .cls-3 {
        fill-rule: evenodd;
      }

      .cls-2 {
        fill: #000;
        opacity: 0.15;
      }

      .cls-3 {
        fill: #fff;
      }
    </style>
  </defs>
  <path d="M177.000,426.000 L323.500,426.000 L250.000,500.000 " class="cls-1"/>
  <path d="M177.000,426.000 L250.000,500.000 L324.000,426.000 " class="cls-2"/>
  <path d="M-0.000,250.000 L250.000,-0.000 L500.000,250.000 L352.500,398.000 L148.500,398.000 " class="cls-1"/>
  <path d="M350.597,202.660 C349.203,200.777 346.975,199.663 344.608,199.663 L177.811,199.663 C177.487,199.663 177.165,199.682 176.854,199.724 L169.990,180.246 C169.278,178.231 167.712,176.626 165.698,175.845 L131.103,162.467 C127.290,160.998 122.987,162.841 121.490,166.590 C119.995,170.340 121.867,174.578 125.678,176.052 L157.099,188.202 L195.558,297.325 C193.860,297.905 192.422,299.187 191.767,300.983 L180.647,331.388 C179.966,333.250 180.247,335.322 181.406,336.942 C182.564,338.562 184.448,339.526 186.459,339.526 L192.170,339.526 C188.631,343.402 186.459,348.510 186.459,354.120 C186.459,366.192 196.438,376.012 208.699,376.012 C220.960,376.012 230.939,366.192 230.939,354.120 C230.939,348.510 228.767,343.402 225.228,339.526 L273.714,339.526 C270.177,343.402 268.005,348.510 268.005,354.120 C268.005,366.192 277.981,376.012 290.244,376.012 C302.508,376.012 312.484,366.192 312.484,354.120 C312.484,348.510 310.312,343.402 306.775,339.526 L313.720,339.526 C317.132,339.526 319.897,336.804 319.897,333.445 C319.897,330.086 317.132,327.364 313.720,327.364 L195.249,327.364 L202.135,308.534 C203.026,308.903 203.986,309.121 204.992,309.121 L313.720,309.121 C316.944,309.121 319.796,307.071 320.776,304.052 L351.664,209.189 C352.388,206.968 351.992,204.542 350.597,202.660 ZM208.699,363.850 C203.248,363.850 198.815,359.486 198.815,354.120 C198.815,348.754 203.248,344.391 208.699,344.391 C214.150,344.391 218.583,348.754 218.583,354.120 C218.583,359.486 214.150,363.850 208.699,363.850 ZM290.244,363.850 C284.793,363.850 280.360,359.486 280.360,354.120 C280.360,348.754 284.793,344.391 290.244,344.391 C295.696,344.391 300.129,348.754 300.129,354.120 C300.129,359.486 295.696,363.850 290.244,363.850 ZM329.101,230.676 L291.275,230.676 L291.275,214.258 L334.449,214.258 L329.101,230.676 ZM318.208,264.122 L291.275,264.122 L291.275,245.271 L324.350,245.271 L318.208,264.122 ZM242.264,264.122 L242.264,245.271 L276.448,245.271 L276.448,264.122 L242.264,264.122 ZM276.448,278.716 L276.448,294.527 L242.264,294.527 L242.264,278.716 L276.448,278.716 ZM192.906,245.271 L227.437,245.271 L227.437,264.122 L199.551,264.122 L192.906,245.271 ZM242.264,230.676 L242.264,214.258 L276.448,214.258 L276.448,230.676 L242.264,230.676 ZM227.437,214.258 L227.437,230.676 L187.761,230.676 L181.975,214.258 L227.437,214.258 ZM204.696,278.716 L227.437,278.716 L227.437,294.527 L210.268,294.527 L204.696,278.716 ZM291.275,294.527 L291.275,278.716 L313.459,278.716 L308.314,294.527 L291.275,294.527 Z" class="cls-3"/>
  <path d="M126.500,375.000 L375.500,125.031 L500.000,250.000 L352.500,398.000 L148.500,398.000 L126.500,375.000 Z" class="cls-2"/>
</svg>
