<svg xmlns="http://www.w3.org/2000/svg" xmlns:xlink="http://www.w3.org/1999/xlink" preserveAspectRatio="xMidYMid" width="64" height="64" viewBox="0 0 500 500">
  <defs>
    <style>
      .cls-1 {
        fill: #346c29;
      }

      .cls-1, .cls-2, .cls-3 {
        fill-rule: evenodd;
      }

      .cls-2 {
        fill: #000;
        opacity: 0.15;
      }

      .cls-3 {
        fill: #fff;
      }
    </style>
  </defs>
  <path d="M177.000,426.000 L323.500,426.000 L250.000,500.000 " class="cls-1"/>
  <path d="M177.000,426.000 L250.000,500.000 L324.000,426.000 " class="cls-2"/>
  <path d="M-0.000,250.000 L250.000,-0.000 L500.000,250.000 L352.500,398.000 L148.500,398.000 " class="cls-1"/>
  <path d="M292.486,306.989 L292.486,204.996 L258.493,204.996 L258.493,306.989 L292.486,306.989 ZM343.499,306.989 L343.499,204.996 L309.497,204.996 L309.497,306.989 L343.499,306.989 ZM360.509,184.972 L250.012,120.000 L139.500,184.972 C139.500,184.972 131.873,191.845 139.500,196.490 L360.509,196.490 C360.509,196.490 366.691,191.433 360.509,184.972 ZM241.507,306.989 L241.507,204.996 L207.504,204.996 L207.504,306.989 L241.507,306.989 ZM190.508,306.989 L190.508,204.996 L156.496,204.996 L156.496,306.989 L190.508,306.989 ZM353.046,319.005 L149.679,319.572 L131.004,343.972 L131.004,358.000 L368.995,358.000 L368.995,343.972 L353.046,319.005 Z" class="cls-3"/>
  <path d="M126.500,375.000 L375.500,125.031 L500.000,250.000 L352.500,398.000 L148.500,398.000 L126.500,375.000 Z" class="cls-2"/>
</svg>
