<svg xmlns="http://www.w3.org/2000/svg" xmlns:xlink="http://www.w3.org/1999/xlink" preserveAspectRatio="xMidYMid" width="64" height="64" viewBox="0 0 500 500">
  <defs>
    <style>
      .cls-1 {
        fill: #2980b9;
      }

      .cls-1, .cls-2, .cls-3 {
        fill-rule: evenodd;
      }

      .cls-2 {
        fill: #000;
        opacity: 0.15;
      }

      .cls-3 {
        fill: #fff;
      }
    </style>
  </defs>
  <path d="M177.000,426.000 L323.500,426.000 L250.000,500.000 " class="cls-1"/>
  <path d="M177.000,426.000 L250.000,500.000 L324.000,426.000 " class="cls-2"/>
  <path d="M-0.000,250.000 L250.000,-0.000 L500.000,250.000 L352.500,398.000 L148.500,398.000 " class="cls-1"/>
  <path d="M350.257,127.699 L340.671,137.153 L367.366,164.444 L367.366,305.760 C367.366,308.077 366.880,309.683 365.908,310.685 C363.637,312.924 357.951,312.766 355.102,312.739 C348.839,312.739 344.139,311.488 341.893,309.210 C340.461,307.748 340.423,306.182 340.436,305.734 L340.436,168.434 L316.880,168.434 L316.880,100.935 L185.550,100.935 L185.550,344.000 L156.914,344.000 L156.914,377.801 L345.465,377.801 L345.465,344.000 L316.866,344.000 L316.866,181.970 L326.950,181.970 L326.964,305.207 C326.925,305.958 326.544,312.476 331.821,318.270 C336.733,323.589 344.519,326.289 354.957,326.289 L357.006,326.314 C361.969,326.314 369.873,325.709 375.323,320.323 C378.973,316.742 380.837,311.870 380.837,305.787 L380.837,158.926 L350.257,127.699 ZM300.020,195.486 L205.731,195.486 L205.731,127.930 L300.007,127.930 L300.007,195.486 L300.020,195.486 Z" class="cls-3"/>
  <path d="M126.500,375.000 L375.500,125.031 L500.000,250.000 L352.500,398.000 L148.500,398.000 L126.500,375.000 Z" class="cls-2"/>
</svg>
