<svg xmlns="http://www.w3.org/2000/svg" xmlns:xlink="http://www.w3.org/1999/xlink" preserveAspectRatio="xMidYMid" width="64" height="64" viewBox="0 0 500 500">
  <defs>
    <style>
      .cls-1 {
        fill: #2980b9;
      }

      .cls-1, .cls-2, .cls-3 {
        fill-rule: evenodd;
      }

      .cls-2 {
        fill: #000;
        opacity: 0.15;
      }

      .cls-3 {
        fill: #fff;
      }
    </style>
  </defs>
  <path d="M177.000,426.000 L323.500,426.000 L250.000,500.000 " class="cls-1"/>
  <path d="M177.000,426.000 L250.000,500.000 L324.000,426.000 " class="cls-2"/>
  <path d="M-0.000,250.000 L250.000,-0.000 L500.000,250.000 L352.500,398.000 L148.500,398.000 " class="cls-1"/>
  <path d="M344.471,377.994 L153.528,377.994 C136.672,377.994 123.007,364.317 123.007,347.434 L123.007,150.566 C123.007,133.688 136.667,120.006 153.528,120.006 L344.471,120.006 C361.333,120.006 374.992,133.683 374.992,150.566 L374.992,347.434 C374.992,364.311 361.333,377.994 344.471,377.994 ZM356.180,342.538 L356.180,155.821 C356.180,146.641 348.750,139.196 339.576,139.196 L158.070,139.196 C148.897,139.196 141.461,146.641 141.461,155.821 L141.461,342.538 C141.461,351.718 148.897,359.163 158.070,359.163 L339.582,359.163 C348.750,359.163 356.185,351.724 356.185,342.538 L356.180,342.538 ZM339.576,347.445 L158.070,347.445 C155.362,347.445 153.169,345.244 153.169,342.544 L153.169,155.826 C153.169,153.115 155.367,150.925 158.070,150.925 L339.576,150.925 C342.279,150.925 344.471,153.115 344.471,155.821 L344.471,342.544 C344.471,345.250 342.273,347.445 339.576,347.445 ZM288.543,191.237 C279.055,183.635 264.970,179.834 245.153,179.834 C225.550,179.834 211.733,181.103 201.797,182.793 L201.797,323.269 L233.383,323.269 L233.383,272.278 C236.579,272.699 240.185,272.912 244.396,272.912 C263.372,272.912 279.650,268.269 290.607,257.933 C299.046,249.915 303.700,238.096 303.706,224.155 C303.706,210.231 297.605,198.407 288.543,191.237 ZM244.189,248.214 C239.551,248.214 236.221,248.006 233.383,247.372 L233.383,205.375 C235.867,204.740 240.179,204.112 246.718,204.112 C262.732,204.112 271.799,211.916 271.805,225.003 C271.805,239.556 261.263,248.214 244.189,248.214 Z" class="cls-3"/>
  <path d="M126.500,375.000 L375.500,125.031 L500.000,250.000 L352.500,398.000 L148.500,398.000 L126.500,375.000 Z" class="cls-2"/>
</svg>
