<svg xmlns="http://www.w3.org/2000/svg" xmlns:xlink="http://www.w3.org/1999/xlink" preserveAspectRatio="xMidYMid" width="64" height="64" viewBox="0 0 500 500">
  <defs>
    <style>
      .cls-1 {
        fill: #2980b9;
      }

      .cls-1, .cls-2, .cls-3 {
        fill-rule: evenodd;
      }

      .cls-2 {
        fill: #000;
        opacity: 0.15;
      }

      .cls-3 {
        fill: #fff;
      }
    </style>
  </defs>
  <path d="M177.000,426.000 L323.500,426.000 L250.000,500.000 " class="cls-1"/>
  <path d="M177.000,426.000 L250.000,500.000 L324.000,426.000 " class="cls-2"/>
  <path d="M-0.000,250.000 L250.000,-0.000 L500.000,250.000 L352.500,398.000 L148.500,398.000 " class="cls-1"/>
  <path d="M369.240,230.280 L368.103,230.280 L370.068,235.068 C373.898,244.408 377.016,260.220 377.016,270.315 L377.016,337.227 C377.016,345.373 370.395,352.000 362.256,352.000 L344.516,352.000 C336.378,352.000 329.756,345.373 329.756,337.227 L329.756,320.782 L170.057,320.782 L170.057,337.227 C170.057,345.373 163.437,352.000 155.297,352.000 L137.554,352.000 C129.415,352.000 122.794,345.373 122.794,337.227 L122.794,270.315 C122.794,260.220 125.911,244.408 129.742,235.068 L131.707,230.280 L130.760,230.280 C122.622,230.280 116.000,223.654 116.000,215.508 L116.000,208.379 C116.000,201.402 120.808,196.337 127.431,196.336 C128.639,196.336 129.881,196.510 131.120,196.851 L143.966,200.393 L157.705,166.899 C161.827,156.847 174.016,148.669 184.874,148.669 L194.217,148.669 L194.217,120.864 C194.217,115.976 198.189,112.000 203.073,112.000 L296.928,112.000 C301.812,112.000 305.784,115.976 305.784,120.864 L305.784,148.669 L314.939,148.669 C325.797,148.669 337.985,156.848 342.107,166.900 L355.866,200.440 L368.881,196.852 C370.120,196.510 371.361,196.337 372.570,196.337 C379.193,196.337 384.000,201.402 384.000,208.379 L384.000,215.508 C384.000,223.654 377.379,230.280 369.240,230.280 ZM149.910,268.738 L149.910,287.684 C149.910,290.934 152.566,293.593 155.813,293.593 L195.717,293.593 C198.964,293.593 201.621,290.934 201.621,287.684 L201.621,268.738 C201.621,265.488 198.964,262.829 195.717,262.829 L155.813,262.829 C152.566,262.829 149.910,265.488 149.910,268.738 ZM229.139,123.819 C229.139,123.624 228.979,123.465 228.784,123.465 L204.094,123.465 C203.899,123.465 203.740,123.624 203.740,123.819 L203.740,128.166 C203.740,128.361 203.899,128.520 204.094,128.520 L212.295,128.520 C212.490,128.520 212.649,128.680 212.649,128.875 L212.649,148.398 C212.649,148.516 212.716,148.606 212.805,148.669 L220.027,148.669 C220.115,148.604 220.182,148.516 220.182,148.398 L220.182,128.875 C220.182,128.680 220.342,128.520 220.537,128.520 L228.784,128.520 C228.979,128.520 229.139,128.361 229.139,128.166 L229.139,123.819 ZM281.746,148.477 L272.663,137.233 C272.542,137.082 272.529,136.826 272.637,136.663 L281.205,123.761 C281.312,123.598 281.242,123.466 281.047,123.466 L273.461,123.466 C273.267,123.466 273.023,123.600 272.922,123.767 L268.506,130.931 C268.404,131.098 268.237,131.098 268.135,130.931 L263.722,123.767 C263.621,123.602 263.378,123.466 263.183,123.466 L255.601,123.466 C255.406,123.466 255.334,123.598 255.443,123.761 L264.003,136.663 C264.111,136.824 264.099,137.082 263.976,137.233 L255.057,148.277 L245.326,123.795 C245.254,123.613 245.035,123.466 244.841,123.466 L236.642,123.466 C236.448,123.466 236.229,123.613 236.155,123.797 L226.232,148.425 C226.190,148.528 226.215,148.610 226.273,148.671 L233.569,148.671 C233.674,148.610 233.764,148.525 233.802,148.419 L235.603,143.290 C235.667,143.106 235.880,142.955 236.074,142.955 L245.367,142.955 C245.562,142.955 245.771,143.107 245.831,143.292 L247.503,148.416 C247.538,148.524 247.627,148.609 247.731,148.671 L262.901,148.671 C263.007,148.615 263.103,148.541 263.158,148.452 L268.131,140.469 C268.235,140.304 268.403,140.304 268.507,140.469 L273.491,148.452 C273.547,148.541 273.642,148.615 273.748,148.671 L281.799,148.671 C281.821,148.621 281.807,148.551 281.746,148.477 ZM293.105,123.820 C293.105,123.625 292.945,123.466 292.751,123.466 L285.928,123.466 C285.733,123.466 285.574,123.625 285.574,123.820 L285.574,148.398 C285.574,148.516 285.641,148.604 285.730,148.669 L292.949,148.669 C293.038,148.604 293.105,148.516 293.105,148.398 L293.105,123.820 ZM345.418,222.046 L324.512,171.078 C322.046,165.065 314.714,160.145 308.220,160.145 L191.592,160.145 C185.098,160.145 177.767,165.065 175.300,171.078 L154.394,222.046 C151.928,228.059 155.223,232.979 161.717,232.979 L338.095,232.979 C344.589,232.979 347.885,228.059 345.418,222.046 ZM349.520,268.738 C349.520,265.488 346.863,262.829 343.616,262.829 L303.713,262.829 C300.466,262.829 297.809,265.488 297.809,268.738 L297.809,287.684 C297.809,290.934 300.466,293.593 303.713,293.593 L343.616,293.593 C346.863,293.593 349.520,290.934 349.520,287.684 L349.520,268.738 ZM243.709,137.900 L237.783,137.900 C237.588,137.900 237.496,137.756 237.576,137.578 L240.693,130.775 C240.773,130.598 240.903,130.600 240.981,130.779 L243.923,137.575 C244.000,137.753 243.904,137.900 243.709,137.900 Z" class="cls-3"/>
  <path d="M126.500,375.000 L375.500,125.031 L500.000,250.000 L352.500,398.000 L148.500,398.000 L126.500,375.000 Z" class="cls-2"/>
</svg>
