<svg xmlns="http://www.w3.org/2000/svg" xmlns:xlink="http://www.w3.org/1999/xlink" preserveAspectRatio="xMidYMid" width="64" height="64" viewBox="0 0 500 500">
  <defs>
    <style>
      .cls-1 {
        fill: #000;
        fill-rule: evenodd;
      }
    </style>
  </defs>
  <g>
    <path d="M234.410,123.396 L233.362,123.396 L235.173,127.826 C238.704,136.465 241.577,151.091 241.577,160.428 L241.577,222.322 C241.577,229.857 235.475,235.987 227.973,235.987 L211.622,235.987 C204.121,235.987 198.018,229.857 198.018,222.322 L198.018,207.110 L50.824,207.110 L50.824,222.322 C50.824,229.857 44.722,235.987 37.220,235.987 L20.866,235.987 C13.364,235.987 7.262,229.857 7.262,222.322 L7.262,160.428 C7.262,151.091 10.135,136.465 13.666,127.826 L15.477,123.396 L14.604,123.396 C7.103,123.396 1.000,117.267 1.000,109.732 L1.000,103.139 C1.000,96.685 5.432,92.000 11.536,91.998 C12.649,91.998 13.794,92.159 14.936,92.475 L26.776,95.751 L39.439,64.770 C43.239,55.472 54.473,47.907 64.480,47.907 L73.092,47.907 L73.092,22.187 C73.092,17.666 76.753,13.988 81.255,13.988 L167.761,13.988 C172.262,13.988 175.923,17.666 175.923,22.187 L175.923,47.907 L184.361,47.907 C194.369,47.907 205.603,55.473 209.402,64.771 L222.083,95.795 L234.079,92.476 C235.221,92.159 236.365,92.000 237.479,92.000 C243.584,92.000 248.014,96.685 248.014,103.139 L248.014,109.732 C248.014,117.267 241.912,123.396 234.410,123.396 ZM32.254,158.970 L32.254,176.495 C32.254,179.501 34.703,181.961 37.696,181.961 L74.474,181.961 C77.467,181.961 79.916,179.501 79.916,176.495 L79.916,158.970 C79.916,155.964 77.467,153.504 74.474,153.504 L37.696,153.504 C34.703,153.504 32.254,155.964 32.254,158.970 ZM105.279,24.921 C105.279,24.740 105.132,24.593 104.953,24.593 L82.196,24.593 C82.017,24.593 81.870,24.740 81.870,24.921 L81.870,28.941 C81.870,29.122 82.017,29.269 82.196,29.269 L89.754,29.269 C89.934,29.269 90.081,29.417 90.081,29.597 L90.081,47.656 C90.081,47.765 90.143,47.848 90.225,47.907 L96.881,47.907 C96.962,47.847 97.024,47.765 97.024,47.656 L97.024,29.597 C97.024,29.417 97.171,29.269 97.351,29.269 L104.953,29.269 C105.132,29.269 105.279,29.122 105.279,28.941 L105.279,24.921 ZM153.767,47.729 L145.396,37.329 C145.284,37.189 145.272,36.952 145.372,36.801 L153.269,24.867 C153.368,24.716 153.302,24.594 153.123,24.594 L146.131,24.594 C145.952,24.594 145.728,24.719 145.634,24.873 L141.564,31.499 C141.470,31.653 141.316,31.653 141.222,31.499 L137.155,24.873 C137.061,24.720 136.837,24.594 136.658,24.594 L129.670,24.594 C129.490,24.594 129.424,24.716 129.524,24.867 L137.414,36.801 C137.513,36.951 137.502,37.189 137.389,37.329 L129.168,47.544 L120.199,24.899 C120.133,24.731 119.931,24.594 119.752,24.594 L112.196,24.594 C112.016,24.594 111.815,24.731 111.746,24.900 L102.600,47.681 C102.562,47.776 102.585,47.852 102.638,47.908 L109.363,47.908 C109.460,47.852 109.542,47.774 109.577,47.675 L111.238,42.931 C111.297,42.761 111.493,42.622 111.672,42.622 L120.237,42.622 C120.417,42.622 120.609,42.762 120.665,42.933 L122.206,47.673 C122.237,47.773 122.320,47.851 122.416,47.908 L136.398,47.908 C136.496,47.857 136.584,47.788 136.635,47.706 L141.219,40.322 C141.315,40.169 141.469,40.169 141.565,40.322 L146.159,47.706 C146.210,47.788 146.298,47.857 146.396,47.908 L153.816,47.908 C153.837,47.862 153.824,47.798 153.767,47.729 ZM164.237,24.922 C164.237,24.742 164.090,24.594 163.910,24.594 L157.622,24.594 C157.442,24.594 157.295,24.742 157.295,24.922 L157.295,47.656 C157.295,47.765 157.357,47.847 157.439,47.907 L164.093,47.907 C164.175,47.847 164.237,47.765 164.237,47.656 L164.237,24.922 ZM212.453,115.781 L193.185,68.635 C190.911,63.073 184.154,58.522 178.168,58.522 L70.673,58.522 C64.687,58.522 57.930,63.073 55.656,68.635 L36.388,115.781 C34.114,121.342 37.152,125.893 43.137,125.893 L205.704,125.893 C211.690,125.893 214.727,121.342 212.453,115.781 ZM216.234,158.970 C216.234,155.964 213.786,153.504 210.793,153.504 L174.014,153.504 C171.021,153.504 168.573,155.964 168.573,158.970 L168.573,176.495 C168.573,179.501 171.021,181.961 174.014,181.961 L210.793,181.961 C213.786,181.961 216.234,179.501 216.234,176.495 L216.234,158.970 ZM118.709,37.945 L113.247,37.945 C113.067,37.945 112.982,37.812 113.056,37.648 L115.928,31.355 C116.002,31.191 116.122,31.193 116.194,31.358 L118.906,37.645 C118.977,37.810 118.889,37.945 118.709,37.945 Z" class="cls-1"/>
    <path d="M445.730,28.333 L437.394,36.575 L460.609,60.369 L460.609,183.578 C460.609,185.599 460.187,186.999 459.342,187.873 C457.367,189.824 452.422,189.687 449.944,189.663 C444.497,189.663 440.409,188.572 438.456,186.587 C437.211,185.312 437.177,183.946 437.189,183.556 L437.189,63.848 L416.702,63.848 L416.702,4.998 L302.487,4.998 L302.487,216.919 L277.582,216.919 L277.582,246.389 L441.562,246.389 L441.562,216.919 L416.691,216.919 L416.691,75.650 L425.460,75.650 L425.472,183.096 C425.438,183.751 425.107,189.434 429.697,194.486 C433.969,199.123 440.740,201.477 449.818,201.477 L451.600,201.499 C455.916,201.499 462.790,200.971 467.530,196.276 C470.704,193.154 472.325,188.906 472.325,183.602 L472.325,55.559 L445.730,28.333 ZM402.040,87.434 L320.038,87.434 L320.038,28.534 L402.028,28.534 L402.028,87.434 L402.040,87.434 Z" class="cls-1"/>
    <path d="M457.698,489.557 L291.638,489.557 C276.979,489.557 265.094,477.633 265.094,462.913 L265.094,291.269 C265.094,276.554 276.974,264.625 291.638,264.625 L457.698,264.625 C472.363,264.625 484.242,276.550 484.242,291.269 L484.242,462.913 C484.242,477.628 472.363,489.557 457.698,489.557 ZM467.881,458.644 L467.881,295.851 C467.881,287.848 461.419,281.357 453.441,281.357 L295.588,281.357 C287.610,281.357 281.143,287.848 281.143,295.851 L281.143,458.644 C281.143,466.648 287.610,473.139 295.588,473.139 L453.446,473.139 C461.419,473.139 467.886,466.653 467.886,458.644 L467.881,458.644 ZM453.441,462.923 L295.588,462.923 C293.232,462.923 291.326,461.004 291.326,458.649 L291.326,295.856 C291.326,293.492 293.237,291.583 295.588,291.583 L453.441,291.583 C455.792,291.583 457.698,293.492 457.698,295.851 L457.698,458.649 C457.698,461.009 455.787,462.923 453.441,462.923 ZM409.058,326.730 C400.807,320.102 388.557,316.788 371.323,316.788 C354.274,316.788 342.258,317.894 333.616,319.368 L333.616,441.844 L361.087,441.844 L361.087,397.386 C363.866,397.754 367.002,397.940 370.664,397.940 C387.167,397.940 401.324,393.891 410.853,384.879 C418.192,377.889 422.240,367.585 422.245,355.430 C422.245,343.290 416.939,332.981 409.058,326.730 ZM370.484,376.406 C366.451,376.406 363.554,376.225 361.087,375.672 L361.087,339.056 C363.247,338.503 366.997,337.954 372.683,337.954 C386.611,337.954 394.497,344.759 394.502,356.169 C394.502,368.858 385.333,376.406 370.484,376.406 Z" class="cls-1"/>
    <path d="M221.099,315.469 C219.180,296.711 216.126,282.104 211.289,276.362 C191.362,252.761 51.758,251.034 35.905,276.362 C32.028,282.569 29.309,297.125 27.484,315.499 C21.597,316.190 17.010,321.150 17.010,327.221 L17.010,350.201 C17.010,355.312 20.247,359.620 24.765,361.302 C23.695,397.489 24.563,435.252 26.166,454.030 C26.166,468.525 35.900,466.121 35.900,466.121 L45.026,466.121 L45.026,481.773 C45.026,487.975 51.422,493.000 59.300,493.000 C67.189,493.000 73.583,487.975 73.583,481.773 L73.583,466.121 L179.741,466.121 L179.741,481.773 C179.741,487.975 186.127,493.000 194.018,493.000 C201.899,493.000 208.290,487.975 208.290,481.773 L208.290,466.121 L211.289,466.121 C211.289,466.121 222.750,467.692 223.482,460.869 C223.482,442.141 224.658,400.636 223.688,361.459 C228.495,359.954 231.999,355.529 231.999,350.201 L231.999,327.221 C231.999,321.009 227.193,315.963 221.099,315.469 ZM70.001,279.731 L177.196,279.731 L177.196,295.953 L70.001,295.953 L70.001,279.731 ZM71.531,447.641 C63.115,447.641 56.296,440.818 56.296,432.394 C56.296,423.979 63.115,417.161 71.531,417.161 C79.946,417.161 86.773,423.979 86.773,432.394 C86.773,440.818 79.952,447.641 71.531,447.641 ZM176.625,447.641 C168.215,447.641 161.378,440.818 161.378,432.394 C161.378,423.979 168.204,417.161 176.625,417.161 C185.037,417.161 191.857,423.979 191.857,432.394 C191.862,440.818 185.037,447.641 176.625,447.641 ZM195.992,380.928 L51.202,380.928 L51.202,304.953 L195.992,304.953 L195.992,380.928 Z" class="cls-1"/>
  </g>
</svg>
