<svg xmlns="http://www.w3.org/2000/svg" xmlns:xlink="http://www.w3.org/1999/xlink" preserveAspectRatio="xMidYMid" width="64" height="64" viewBox="0 0 500 500">
  <defs>
    <style>
      .cls-1 {
        fill: #2980b9;
      }

      .cls-1, .cls-2, .cls-3 {
        fill-rule: evenodd;
      }

      .cls-2 {
        fill: #000;
        opacity: 0.15;
      }

      .cls-3 {
        fill: #fff;
      }
    </style>
  </defs>
  <path d="M177.000,426.000 L323.500,426.000 L250.000,500.000 " class="cls-1"/>
  <path d="M177.000,426.000 L250.000,500.000 L324.000,426.000 " class="cls-2"/>
  <path d="M-0.000,250.000 L250.000,-0.000 L500.000,250.000 L352.500,398.000 L148.500,398.000 " class="cls-1"/>
  <path d="M350.800,179.174 C348.818,159.857 345.662,144.815 340.665,138.901 C320.076,114.596 175.839,112.817 159.460,138.901 C155.454,145.294 152.645,160.283 150.760,179.205 C144.677,179.917 139.939,185.025 139.939,191.277 L139.939,214.942 C139.939,220.206 143.282,224.643 147.951,226.375 C146.845,263.641 147.742,302.530 149.398,321.868 C149.398,336.795 159.455,334.320 159.455,334.320 L168.883,334.320 L168.883,350.438 C168.883,356.825 175.492,362.000 183.632,362.000 C191.782,362.000 198.388,356.825 198.388,350.438 L198.388,334.320 L308.069,334.320 L308.069,350.438 C308.069,356.825 314.667,362.000 322.820,362.000 C330.962,362.000 337.566,356.825 337.566,350.438 L337.566,334.320 L340.665,334.320 C340.665,334.320 352.505,335.937 353.262,328.911 C353.262,309.625 354.477,266.881 353.475,226.536 C358.441,224.986 362.061,220.430 362.061,214.942 L362.061,191.277 C362.061,184.880 357.096,179.684 350.800,179.174 ZM194.687,142.370 L305.440,142.370 L305.440,159.077 L194.687,159.077 L194.687,142.370 ZM196.268,315.288 C187.573,315.288 180.528,308.262 180.528,299.586 C180.528,290.921 187.573,283.900 196.268,283.900 C204.963,283.900 212.016,290.921 212.016,299.586 C212.016,308.262 204.968,315.288 196.268,315.288 ZM304.850,315.288 C296.160,315.288 289.097,308.262 289.097,299.586 C289.097,290.921 296.150,283.900 304.850,283.900 C313.541,283.900 320.587,290.921 320.587,299.586 C320.593,308.262 313.541,315.288 304.850,315.288 ZM324.859,246.586 L175.265,246.586 L175.265,168.345 L324.859,168.345 L324.859,246.586 Z" class="cls-3"/>
  <path d="M126.500,375.000 L375.500,125.031 L500.000,250.000 L352.500,398.000 L148.500,398.000 L126.500,375.000 Z" class="cls-2"/>
</svg>
