<svg xmlns="http://www.w3.org/2000/svg" xmlns:xlink="http://www.w3.org/1999/xlink" preserveAspectRatio="xMidYMid" width="40" height="40" viewBox="0 0 500 500">
  <defs>
    <style>
      .cls-1 {
        fill: #fff;
        fill-rule: evenodd;
      }
    </style>
  </defs>
  <path d="M313.700,250.865 L458.000,125.163 L458.000,373.646 L313.700,250.865 ZM49.492,107.160 C54.869,102.110 62.100,99.000 70.060,99.000 L427.940,99.000 C435.956,99.000 443.188,102.080 448.553,107.103 L249.000,278.400 L49.492,107.160 ZM40.000,373.646 L40.000,125.249 L184.300,250.865 L40.000,373.646 ZM249.000,308.300 L300.725,262.969 L448.493,389.882 C443.131,394.905 435.900,398.000 427.940,398.000 L70.060,398.000 C62.058,398.000 54.812,394.905 49.432,389.882 L197.290,262.969 L249.000,308.300 Z" class="cls-1"/>
</svg>
