<svg xmlns="http://www.w3.org/2000/svg" xmlns:xlink="http://www.w3.org/1999/xlink" preserveAspectRatio="xMidYMid" width="49.99" height="50" viewBox="0 -8.014 146 146.028">
  <defs>
    <style>
      .cls-1 {
        fill: #fff;
        fill-rule: evenodd;
      }
    </style>
  </defs>
  <path d="M120.072,63.767 C114.105,48.993 97.992,41.605 71.732,41.605 L59.357,41.605 L59.357,27.527 C59.357,26.573 59.007,25.749 58.307,25.052 C57.607,24.355 56.779,24.007 55.822,24.007 C54.863,24.007 54.035,24.355 53.335,25.052 L25.049,53.208 C24.350,53.905 24.000,54.730 24.000,55.683 C24.000,56.636 24.350,57.461 25.049,58.158 L53.335,86.314 C54.035,87.010 54.864,87.360 55.822,87.360 C56.779,87.360 57.607,87.010 58.307,86.314 C59.007,85.618 59.357,84.793 59.357,83.840 L59.357,69.761 L71.732,69.761 C75.341,69.761 78.573,69.871 81.427,70.091 C84.281,70.311 87.118,70.705 89.935,71.274 C92.753,71.842 95.202,72.620 97.283,73.611 C99.364,74.601 101.306,75.874 103.111,77.433 C104.917,78.992 106.390,80.842 107.532,82.987 C108.673,85.132 109.566,87.669 110.211,90.603 C110.855,93.536 111.178,96.854 111.178,100.556 C111.178,102.572 111.085,104.827 110.902,107.320 C110.902,107.540 110.856,107.970 110.764,108.612 C110.672,109.254 110.626,109.739 110.626,110.070 C110.626,110.619 110.782,111.077 111.094,111.444 C111.408,111.810 111.842,111.993 112.393,111.993 C112.983,111.993 113.498,111.681 113.940,111.058 C114.197,110.728 114.436,110.325 114.659,109.848 C114.879,109.371 115.128,108.822 115.404,108.199 C115.681,107.575 115.875,107.137 115.984,106.880 C120.661,96.432 123.000,88.165 123.000,82.080 C123.000,74.784 122.024,68.680 120.072,63.767 Z" class="cls-1"/>
</svg>
