<svg xmlns="http://www.w3.org/2000/svg" xmlns:xlink="http://www.w3.org/1999/xlink" preserveAspectRatio="xMidYMid" width="64" height="64" viewBox="0 0 500 500">
  <defs>
    <style>
      .cls-1 {
        fill: #e74c3c;
      }

      .cls-1, .cls-4, .cls-5, .cls-6, .cls-7 {
        fill-rule: evenodd;
      }

      .cls-2, .cls-6 {
        fill: #fff;
      }

      .cls-3 {
        fill: #f5f7fa;
      }

      .cls-4 {
        fill: #8cbae2;
      }

      .cls-5 {
        fill: #f6bb42;
      }

      .cls-7 {
        fill: #000;
        opacity: 0.15;
      }
    </style>
  </defs>
  <path d="M177.000,426.000 L323.500,426.000 L250.000,500.000 " class="cls-1"/>
  <path d="M-0.000,250.000 L250.000,-0.000 L500.000,250.000 L352.500,398.000 L148.500,398.000 " class="cls-1"/>
  <g>
    <rect x="109" y="179" width="282" height="188" rx="25.636" ry="25.636" class="cls-2"/>
    <g>
      <rect x="116" y="183" width="268" height="180" rx="24.364" ry="24.364" class="cls-3"/>
      <path d="M116.000,183.000 L384.000,183.000 L384.000,232.787 L116.000,232.787 L116.000,183.000 Z" class="cls-4"/>
      <path d="M116.000,313.213 L384.000,313.213 L384.000,363.000 L116.000,363.000 L116.000,313.213 Z" class="cls-4"/>
      <path d="M273.961,280.678 C273.956,279.677 274.362,278.149 274.863,277.282 L276.424,274.576 C276.925,273.709 276.924,272.291 276.424,271.424 L274.813,268.634 C274.313,267.767 273.900,266.239 273.896,265.237 L273.883,262.015 C273.879,261.014 273.165,259.788 272.296,259.291 L269.584,257.741 C268.716,257.244 267.596,256.128 267.095,255.261 L265.534,252.556 C265.034,251.689 263.806,250.979 262.805,250.979 L259.584,250.979 C258.583,250.979 257.053,250.573 256.185,250.076 L253.388,248.476 C252.519,247.979 251.101,247.985 250.237,248.489 L247.539,250.063 C246.674,250.567 245.148,250.979 244.147,250.979 L241.024,250.979 C240.023,250.979 238.795,251.689 238.295,252.556 L236.684,255.346 C236.184,256.213 235.067,257.335 234.202,257.839 L231.420,259.461 C230.556,259.966 229.851,261.197 229.856,262.198 L229.869,265.322 C229.873,266.323 229.467,267.851 228.966,268.718 L227.405,271.424 C226.905,272.291 226.905,273.709 227.405,274.576 L229.015,277.367 C229.516,278.234 229.929,279.762 229.933,280.763 L229.946,283.985 C229.950,284.986 230.664,286.212 231.533,286.709 L234.244,288.259 C235.113,288.756 236.233,289.872 236.733,290.739 L238.295,293.445 C238.795,294.312 240.023,295.021 241.024,295.021 L244.246,295.021 C245.246,295.021 246.776,295.428 247.644,295.925 L250.441,297.524 C251.309,298.021 252.728,298.015 253.592,297.511 L256.290,295.938 C257.155,295.433 258.681,295.021 259.682,295.021 L262.805,295.021 C263.806,295.021 265.034,294.312 265.534,293.445 L267.145,290.654 C267.645,289.787 268.762,288.665 269.626,288.161 L272.409,286.539 C273.274,286.035 273.978,284.803 273.974,283.802 L273.961,280.678 Z" class="cls-5"/>
    </g>
    <path d="M301.601,158.576 C303.320,160.137 303.909,163.971 301.692,166.170 C299.486,168.393 295.647,167.803 294.091,166.086 C279.687,150.616 265.285,135.141 250.882,119.666 L249.244,117.918 C234.177,134.095 219.113,150.282 204.050,166.468 C202.499,168.183 198.666,168.775 196.463,166.552 C194.239,164.348 194.825,160.509 196.542,158.950 C212.778,143.848 229.004,128.738 245.235,113.628 C245.235,113.628 237.379,105.152 233.993,101.515 C226.064,107.199 214.318,105.038 207.255,96.318 C199.660,87.115 193.108,70.662 199.450,63.925 C206.193,57.578 222.636,64.145 231.835,71.733 C240.551,78.804 242.725,90.535 237.029,98.469 C241.111,102.273 245.193,106.067 249.279,109.869 C249.271,109.876 249.266,109.881 249.256,109.888 C249.256,109.888 249.510,110.088 249.279,109.869 C253.098,106.312 256.918,102.757 260.737,99.199 C257.510,93.689 259.654,85.961 264.896,81.552 C270.907,76.513 293.179,57.390 293.781,57.996 C294.377,58.591 278.756,73.352 268.319,83.820 L270.059,85.558 C281.198,75.794 296.927,61.150 297.533,61.747 C298.130,62.346 282.995,77.588 272.902,88.406 L274.631,90.130 C285.430,80.026 300.675,64.891 301.264,65.484 C301.863,66.086 287.221,81.815 277.457,92.956 L279.185,94.681 C289.646,84.246 304.399,68.624 305.000,69.215 C305.604,69.816 281.489,98.075 281.458,98.117 C281.453,98.112 286.574,92.098 281.439,98.102 C276.536,103.839 269.212,105.575 263.798,102.271 C260.281,106.043 256.775,109.815 253.263,113.587 C252.955,113.296 285.492,143.578 301.601,158.576 Z" class="cls-6"/>
  </g>
  <path d="M126.500,375.000 L375.500,125.031 L500.000,250.000 L352.500,398.000 L148.500,398.000 L126.500,375.000 Z" class="cls-7"/>
</svg>
