<svg xmlns="http://www.w3.org/2000/svg" xmlns:xlink="http://www.w3.org/1999/xlink" preserveAspectRatio="xMidYMid" width="64" height="64" viewBox="0 0 500 500">
  <defs>
    <style>
      .cls-1, .cls-3 {
        fill: #e74c3c;
      }

      .cls-1, .cls-4, .cls-5, .cls-6 {
        fill-rule: evenodd;
      }

      .cls-2, .cls-5 {
        fill: #fff;
      }

      .cls-4 {
        fill: #f6bb42;
      }

      .cls-6 {
        fill: #000;
        opacity: 0.15;
      }
    </style>
  </defs>
  <path d="M177.000,426.000 L323.500,426.000 L250.000,500.000 " class="cls-1"/>
  <path d="M-0.000,250.000 L250.000,-0.000 L500.000,250.000 L352.500,398.000 L148.500,398.000 " class="cls-1"/>
  <g>
    <g>
      <rect x="109" y="179" width="282" height="188" rx="25.636" ry="25.636" class="cls-2"/>
      <rect x="116" y="184" width="267" height="178" rx="24.273" ry="24.273" class="cls-3"/>
      <path d="M155.304,281.362 C152.157,283.582 150.327,282.333 151.239,278.587 L154.631,264.639 C155.542,260.893 153.897,255.774 150.977,253.262 L140.708,244.435 C137.788,241.924 138.546,239.781 142.393,239.673 L156.767,239.270 C160.614,239.162 164.656,236.049 165.748,232.352 L170.252,217.115 C171.345,213.418 173.308,213.360 174.615,216.987 L180.029,232.017 C181.336,235.644 185.554,238.643 189.402,238.681 L204.064,238.828 C207.912,238.867 208.684,240.967 205.778,243.496 L194.621,253.207 C191.716,255.735 190.218,260.834 191.293,264.536 L194.856,276.807 C195.931,280.509 194.126,281.891 190.844,279.876 L178.932,272.566 C175.650,270.552 170.390,270.720 167.243,272.940 L155.304,281.362 Z" class="cls-4"/>
      <path d="M220.671,222.435 C219.608,223.206 218.990,222.772 219.298,221.471 L220.443,216.629 C220.751,215.328 220.196,213.550 219.209,212.678 L215.742,209.613 C214.756,208.741 215.011,207.997 216.310,207.960 L221.165,207.820 C222.464,207.782 223.829,206.701 224.198,205.418 L225.719,200.127 C226.088,198.844 226.751,198.824 227.192,200.083 L229.021,205.301 C229.462,206.561 230.886,207.602 232.185,207.615 L237.137,207.666 C238.436,207.680 238.697,208.409 237.716,209.287 L233.948,212.659 C232.967,213.537 232.461,215.307 232.824,216.593 L234.027,220.853 C234.390,222.139 233.780,222.619 232.672,221.919 L228.650,219.381 C227.541,218.681 225.765,218.740 224.703,219.511 L220.671,222.435 Z" class="cls-4"/>
      <path d="M220.671,293.446 C219.608,294.216 218.990,293.783 219.298,292.482 L220.443,287.639 C220.751,286.338 220.196,284.561 219.209,283.689 L215.742,280.624 C214.756,279.752 215.011,279.008 216.310,278.971 L221.165,278.830 C222.464,278.793 223.829,277.712 224.198,276.428 L225.719,271.138 C226.088,269.854 226.751,269.834 227.192,271.093 L229.021,276.312 C229.462,277.571 230.886,278.613 232.185,278.626 L237.137,278.677 C238.436,278.691 238.697,279.420 237.716,280.298 L233.948,283.670 C232.967,284.548 232.461,286.318 232.824,287.603 L234.027,291.864 C234.390,293.150 233.780,293.629 232.672,292.930 L228.650,290.392 C227.541,289.692 225.765,289.751 224.703,290.521 L220.671,293.446 Z" class="cls-4"/>
      <path d="M247.117,273.157 C246.054,273.928 245.436,273.494 245.744,272.194 L246.889,267.350 C247.197,266.050 246.642,264.272 245.655,263.400 L242.188,260.335 C241.201,259.463 241.457,258.719 242.756,258.682 L247.610,258.542 C248.910,258.504 250.275,257.423 250.643,256.139 L252.165,250.849 C252.533,249.566 253.196,249.545 253.637,250.805 L255.466,256.023 C255.907,257.283 257.332,258.324 258.631,258.337 L263.583,258.388 C264.882,258.402 265.142,259.131 264.161,260.009 L260.394,263.381 C259.412,264.259 258.907,266.029 259.270,267.315 L260.473,271.575 C260.836,272.861 260.226,273.341 259.118,272.641 L255.095,270.103 C253.987,269.403 252.211,269.462 251.148,270.233 L247.117,273.157 Z" class="cls-4"/>
      <path d="M247.117,246.105 C246.054,246.876 245.436,246.442 245.744,245.142 L246.889,240.299 C247.197,238.998 246.642,237.220 245.655,236.349 L242.188,233.283 C241.201,232.411 241.457,231.668 242.756,231.630 L247.610,231.490 C248.910,231.452 250.275,230.372 250.643,229.088 L252.165,223.797 C252.533,222.514 253.196,222.494 253.637,223.753 L255.466,228.971 C255.907,230.231 257.332,231.272 258.631,231.286 L263.583,231.337 C264.882,231.350 265.142,232.079 264.161,232.958 L260.394,236.329 C259.412,237.207 258.907,238.977 259.270,240.263 L260.473,244.524 C260.836,245.809 260.226,246.289 259.118,245.590 L255.095,243.051 C253.987,242.352 252.211,242.410 251.148,243.181 L247.117,246.105 Z" class="cls-4"/>
    </g>
    <path d="M301.601,158.576 C303.320,160.137 303.909,163.971 301.692,166.170 C299.486,168.393 295.647,167.803 294.091,166.086 C279.687,150.616 265.285,135.141 250.882,119.666 L249.244,117.918 C234.177,134.095 219.113,150.282 204.050,166.468 C202.499,168.183 198.666,168.775 196.463,166.552 C194.239,164.348 194.825,160.509 196.542,158.950 C212.778,143.848 229.004,128.738 245.235,113.628 C245.235,113.628 237.379,105.152 233.993,101.515 C226.064,107.199 214.318,105.038 207.255,96.318 C199.660,87.115 193.108,70.662 199.450,63.925 C206.193,57.578 222.636,64.145 231.835,71.733 C240.551,78.804 242.725,90.535 237.029,98.469 C241.111,102.273 245.193,106.067 249.279,109.869 C249.271,109.876 249.266,109.881 249.256,109.888 C249.256,109.888 249.510,110.088 249.279,109.869 C253.098,106.312 256.918,102.757 260.737,99.199 C257.510,93.689 259.654,85.961 264.896,81.552 C270.907,76.513 293.179,57.390 293.781,57.996 C294.377,58.591 278.756,73.352 268.319,83.820 L270.059,85.558 C281.198,75.794 296.927,61.150 297.533,61.747 C298.130,62.346 282.995,77.588 272.902,88.406 L274.631,90.130 C285.430,80.026 300.675,64.891 301.264,65.484 C301.863,66.086 287.221,81.815 277.457,92.956 L279.185,94.681 C289.646,84.246 304.399,68.624 305.000,69.215 C305.604,69.816 281.489,98.075 281.458,98.117 C281.453,98.112 286.574,92.098 281.439,98.102 C276.536,103.839 269.212,105.575 263.798,102.271 C260.281,106.043 256.775,109.815 253.263,113.587 C252.955,113.296 285.492,143.578 301.601,158.576 Z" class="cls-5"/>
  </g>
  <path d="M126.500,375.000 L375.500,125.031 L500.000,250.000 L352.500,398.000 L148.500,398.000 L126.500,375.000 Z" class="cls-6"/>
</svg>
