<svg xmlns="http://www.w3.org/2000/svg" xmlns:xlink="http://www.w3.org/1999/xlink" preserveAspectRatio="xMidYMid" width="64" height="64" viewBox="0 0 500 500">
  <defs>
    <style>
      .cls-1 {
        fill: #e74c3c;
      }

      .cls-1, .cls-2, .cls-3 {
        fill-rule: evenodd;
      }

      .cls-2 {
        fill: #fff;
      }

      .cls-3 {
        fill: #000;
        opacity: 0.15;
      }
    </style>
  </defs>
  <path d="M177.000,426.000 L323.500,426.000 L250.000,500.000 " class="cls-1"/>
  <path d="M-0.000,250.000 L250.000,-0.000 L500.000,250.000 L352.500,398.000 L148.500,398.000 " class="cls-1"/>
  <path d="M364.676,352.695 C368.379,356.059 369.650,364.320 364.872,369.057 C360.120,373.846 351.849,372.576 348.496,368.877 C317.461,335.545 286.432,302.203 255.400,268.861 L251.872,265.096 C219.408,299.950 186.954,334.825 154.500,369.700 C151.156,373.394 142.899,374.669 138.152,369.880 C133.361,365.132 134.624,356.861 138.321,353.502 C173.303,320.963 208.262,288.408 243.234,255.852 C243.234,255.852 226.307,237.592 219.011,229.756 C201.928,242.000 176.621,237.345 161.404,218.558 C145.041,198.731 130.923,163.282 144.588,148.766 C159.115,135.092 194.542,149.239 214.362,165.589 C233.143,180.822 237.826,206.099 225.554,223.192 C234.349,231.389 243.144,239.562 251.946,247.753 C251.928,247.769 251.918,247.779 251.897,247.795 C251.897,247.795 252.445,248.227 251.946,247.753 C260.176,240.090 268.405,232.430 276.634,224.766 C269.680,212.894 274.299,196.243 285.594,186.743 C298.545,175.887 346.531,134.685 347.827,135.992 C349.113,137.272 315.455,169.076 292.969,191.630 L296.719,195.374 C320.717,174.339 354.606,142.787 355.913,144.073 C357.198,145.364 324.590,178.204 302.844,201.511 L306.568,205.225 C329.836,183.456 362.681,150.847 363.951,152.125 C365.242,153.422 333.693,187.311 312.658,211.315 L316.381,215.031 C338.919,192.548 370.704,158.890 372.000,160.162 C373.302,161.458 321.345,222.343 321.278,222.433 C321.267,222.423 332.300,209.466 321.237,222.403 C310.672,234.763 294.893,238.502 283.228,231.383 C275.652,239.511 268.096,247.638 260.531,255.765 C259.867,255.138 329.970,320.381 364.676,352.695 Z" class="cls-2"/>
  <path d="M126.500,375.000 L375.500,125.031 L500.000,250.000 L352.500,398.000 L148.500,398.000 L126.500,375.000 Z" class="cls-3"/>
</svg>
