<svg xmlns="http://www.w3.org/2000/svg" xmlns:xlink="http://www.w3.org/1999/xlink" preserveAspectRatio="xMidYMid" width="40" height="40" viewBox="0 0 500 500">
  <defs>
    <style>
      .cls-1 {
        fill: #e74c3c;
      }

      .cls-1, .cls-4, .cls-5, .cls-6, .cls-7 {
        fill-rule: evenodd;
      }

      .cls-2, .cls-6 {
        fill: #fff;
      }

      .cls-3 {
        fill: #ffce54;
      }

      .cls-4 {
        fill: #ed5565;
      }

      .cls-5 {
        fill: #5575ed;
      }

      .cls-7 {
        fill: #000;
        opacity: 0.15;
      }
    </style>
  </defs>
  <path d="M177.000,426.000 L323.500,426.000 L250.000,500.000 " class="cls-1"/>
  <path d="M-0.000,250.000 L250.000,-0.000 L500.000,250.000 L352.500,398.000 L148.500,398.000 " class="cls-1"/>
  <g>
    <rect x="109" y="179" width="282" height="188" rx="25.636" ry="25.636" class="cls-2"/>
    <g>
      <rect x="114" y="183" width="272" height="180" rx="24.727" ry="24.727" class="cls-3"/>
      <path d="M114.000,183.000 L386.000,183.000 L386.000,221.298 L114.000,221.298 L114.000,183.000 Z" class="cls-4"/>
      <path d="M114.000,324.702 L386.000,324.702 L386.000,363.000 L114.000,363.000 L114.000,324.702 Z" class="cls-4"/>
    </g>
    <g>
      <rect x="114" y="183" width="272" height="180" rx="24.727" ry="24.727" class="cls-2"/>
      <path d="M114.000,183.000 L386.000,183.000 L386.000,240.978 L114.000,240.978 L114.000,183.000 Z" class="cls-4"/>
      <path d="M114.000,304.987 L386.000,304.987 L386.000,363.000 L114.000,363.000 L114.000,304.987 Z" class="cls-5"/>
    </g>
    <path d="M302.524,160.406 C304.274,161.995 304.875,165.898 302.617,168.137 C300.371,170.400 296.463,169.799 294.878,168.052 C280.212,152.302 265.548,136.548 250.883,120.793 L249.216,119.014 C233.874,135.483 218.537,151.962 203.200,168.441 C201.620,170.186 197.718,170.789 195.475,168.526 C193.211,166.282 193.807,162.374 195.555,160.787 C212.086,145.412 228.607,130.029 245.134,114.646 C245.134,114.646 237.135,106.018 233.687,102.315 C225.614,108.101 213.654,105.902 206.463,97.024 C198.730,87.656 192.058,70.906 198.516,64.047 C205.382,57.586 222.123,64.271 231.490,71.996 C240.365,79.194 242.578,91.137 236.779,99.214 C240.935,103.087 245.091,106.949 249.251,110.820 C249.243,110.827 249.238,110.832 249.228,110.839 C249.228,110.839 249.487,111.043 249.251,110.820 C253.140,107.198 257.029,103.579 260.918,99.958 C257.632,94.348 259.814,86.480 265.152,81.991 C271.272,76.862 293.949,57.393 294.562,58.011 C295.169,58.616 279.264,73.644 268.637,84.300 L270.409,86.070 C281.750,76.130 297.765,61.221 298.383,61.829 C298.990,62.439 283.580,77.957 273.304,88.969 L275.064,90.724 C286.060,80.438 301.581,65.030 302.182,65.634 C302.792,66.247 287.883,82.260 277.942,93.602 L279.701,95.358 C290.352,84.734 305.373,68.830 305.985,69.432 C306.600,70.044 282.047,98.813 282.015,98.855 C282.010,98.851 287.224,92.728 281.996,98.841 C277.003,104.681 269.546,106.448 264.034,103.084 C260.454,106.925 256.883,110.765 253.308,114.605 C252.994,114.309 286.123,145.137 302.524,160.406 Z" class="cls-6"/>
  </g>
  <path d="M126.500,375.000 L375.500,125.031 L500.000,250.000 L352.500,398.000 L148.500,398.000 L126.500,375.000 Z" class="cls-7"/>
</svg>
