<svg xmlns="http://www.w3.org/2000/svg" xmlns:xlink="http://www.w3.org/1999/xlink" preserveAspectRatio="xMidYMid" width="64" height="64" viewBox="0 0 500 500">
  <defs>
    <style>
      .cls-1 {
        fill: #e74c3c;
      }

      .cls-1, .cls-3, .cls-4, .cls-5, .cls-6, .cls-7, .cls-8 {
        fill-rule: evenodd;
      }

      .cls-2, .cls-7 {
        fill: #fff;
      }

      .cls-3 {
        fill: #f5f7fa;
      }

      .cls-4 {
        fill: #ed5565;
      }

      .cls-5 {
        fill: #57a863;
      }

      .cls-6 {
        fill: #f6d660;
        stroke: #f6d660;
        stroke-linejoin: round;
        stroke-width: 2px;
      }

      .cls-8 {
        fill: #000;
        opacity: 0.15;
      }
    </style>
  </defs>
  <path d="M177.000,426.000 L323.500,426.000 L250.000,500.000 " class="cls-1"/>
  <path d="M-0.000,250.000 L250.000,-0.000 L500.000,250.000 L352.500,398.000 L148.500,398.000 " class="cls-1"/>
  <g>
    <rect x="109" y="179" width="282" height="188" rx="25.636" ry="25.636" class="cls-2"/>
    <g>
      <path d="M140.125,183.000 L358.875,183.000 C372.299,183.000 383.181,193.928 383.181,207.409 L383.181,337.591 C383.181,351.072 372.299,362.000 358.875,362.000 L140.125,362.000 C126.701,362.000 115.820,351.072 115.820,337.591 L115.820,207.409 C115.820,193.928 126.701,183.000 140.125,183.000 Z" class="cls-3"/>
      <path d="M295.334,183.000 L387.000,183.000 L387.000,362.000 L295.334,362.000 L295.334,183.000 Z" class="cls-4"/>
      <path d="M112.000,183.000 L203.667,183.000 L203.667,362.000 L112.000,362.000 L112.000,183.000 Z" class="cls-5"/>
      <path d="M249.500,243.936 C266.376,243.936 280.056,257.577 280.056,274.404 C280.056,291.231 266.376,304.872 249.500,304.872 C232.625,304.872 218.945,291.231 218.945,274.404 C218.945,257.577 232.625,243.936 249.500,243.936 Z" class="cls-6"/>
    </g>
    <path d="M301.601,158.576 C303.320,160.137 303.909,163.971 301.692,166.170 C299.486,168.393 295.647,167.803 294.091,166.086 C279.687,150.616 265.285,135.141 250.882,119.666 L249.244,117.918 C234.177,134.095 219.113,150.282 204.050,166.468 C202.499,168.183 198.666,168.775 196.463,166.552 C194.239,164.348 194.825,160.509 196.542,158.950 C212.778,143.848 229.004,128.738 245.235,113.628 C245.235,113.628 237.379,105.152 233.993,101.515 C226.064,107.199 214.318,105.038 207.255,96.318 C199.660,87.115 193.108,70.662 199.450,63.925 C206.193,57.578 222.636,64.145 231.835,71.733 C240.551,78.804 242.725,90.535 237.029,98.469 C241.111,102.273 245.193,106.067 249.279,109.869 C249.271,109.876 249.266,109.881 249.256,109.888 C249.256,109.888 249.510,110.088 249.279,109.869 C253.098,106.312 256.918,102.757 260.737,99.199 C257.510,93.689 259.654,85.961 264.896,81.552 C270.907,76.513 293.179,57.390 293.781,57.996 C294.377,58.591 278.756,73.352 268.319,83.820 L270.059,85.558 C281.198,75.794 296.927,61.150 297.533,61.747 C298.130,62.346 282.995,77.588 272.902,88.406 L274.631,90.130 C285.430,80.026 300.675,64.891 301.264,65.484 C301.863,66.086 287.221,81.815 277.457,92.956 L279.185,94.681 C289.646,84.246 304.399,68.624 305.000,69.215 C305.604,69.816 281.489,98.075 281.458,98.117 C281.453,98.112 286.574,92.098 281.439,98.102 C276.536,103.839 269.212,105.575 263.798,102.271 C260.281,106.043 256.775,109.815 253.263,113.587 C252.955,113.296 285.492,143.578 301.601,158.576 Z" class="cls-7"/>
  </g>
  <path d="M126.500,375.000 L375.500,125.031 L500.000,250.000 L352.500,398.000 L148.500,398.000 L126.500,375.000 Z" class="cls-8"/>
</svg>
