<svg xmlns="http://www.w3.org/2000/svg" xmlns:xlink="http://www.w3.org/1999/xlink" preserveAspectRatio="xMidYMid" width="64" height="64" viewBox="0 0 500 500">
  <defs>
    <style>
      .cls-1 {
        fill: #e67e22;
      }

      .cls-1, .cls-2, .cls-3 {
        fill-rule: evenodd;
      }

      .cls-2 {
        fill: #000;
        opacity: 0.15;
      }

      .cls-3 {
        fill: #fff;
      }
    </style>
  </defs>
  <path d="M177.000,426.000 L323.500,426.000 L250.000,500.000 " class="cls-1"/>
  <path d="M177.000,426.000 L250.000,500.000 L324.000,426.000 " class="cls-2"/>
  <path d="M-0.000,250.000 L250.000,-0.000 L500.000,250.000 L352.500,398.000 L148.500,398.000 " class="cls-1"/>
  <path d="M335.365,304.117 C260.165,310.328 79.224,298.477 79.224,298.477 C75.258,285.721 75.483,277.212 77.210,271.519 L80.567,272.107 C93.567,274.394 136.969,275.765 196.671,275.765 C249.295,275.765 303.700,274.722 345.929,272.879 C403.527,270.390 420.886,267.279 426.971,264.859 L426.971,286.626 C426.971,286.626 410.570,297.912 335.365,304.117 ZM411.223,262.825 C373.813,267.924 276.601,270.453 196.671,270.453 C141.746,270.453 95.002,269.255 81.496,266.875 C81.496,266.875 81.435,265.787 81.372,264.041 C81.011,254.459 80.278,222.466 86.016,208.944 C86.016,208.944 86.443,209.255 87.035,209.711 C93.276,214.472 129.337,242.490 132.948,258.170 L200.241,258.170 C200.241,258.170 226.081,242.355 241.380,242.355 C243.314,242.355 245.081,242.609 246.605,243.178 C248.686,243.960 250.715,244.302 252.582,244.302 C262.873,244.302 268.190,233.934 249.999,229.633 C238.730,226.972 225.614,220.118 219.991,210.869 C214.890,202.471 215.952,192.112 230.206,181.102 C230.224,181.085 230.253,181.079 230.296,181.079 C232.873,181.079 275.568,213.476 320.113,226.813 C365.344,240.358 365.344,240.358 365.344,240.358 C365.344,240.358 426.411,245.515 426.971,258.170 C427.052,259.904 421.268,261.460 411.223,262.825 ZM248.764,234.807 C253.362,235.899 255.558,237.279 256.367,238.048 C255.749,238.466 254.485,238.996 252.577,238.996 C251.240,238.996 249.858,238.731 248.466,238.212 C246.405,237.440 244.021,237.049 241.374,237.049 C226.664,237.049 204.427,249.540 198.763,252.863 L136.704,252.863 C128.338,234.272 93.437,207.852 89.197,204.689 L86.336,202.555 C86.400,199.663 87.052,197.237 88.842,196.341 C94.494,193.521 101.849,202.347 123.899,210.915 C142.462,218.128 190.179,217.119 214.625,212.136 C220.666,223.547 235.650,231.711 248.764,234.807 Z" class="cls-3"/>
  <path d="M126.500,375.000 L375.500,125.031 L500.000,250.000 L352.500,398.000 L148.500,398.000 L126.500,375.000 Z" class="cls-2"/>
</svg>
