<svg xmlns="http://www.w3.org/2000/svg" xmlns:xlink="http://www.w3.org/1999/xlink" preserveAspectRatio="xMidYMid" width="64" height="64" viewBox="0 0 500 500">
  <defs>
    <style>
      .cls-1 {
        fill: #e67e22;
      }

      .cls-1, .cls-2, .cls-3 {
        fill-rule: evenodd;
      }

      .cls-2 {
        fill: #000;
        opacity: 0.15;
      }

      .cls-3 {
        fill: #fffefe;
      }
    </style>
  </defs>
  <path d="M177.000,426.000 L323.500,426.000 L250.000,500.000 " class="cls-1"/>
  <path d="M177.000,426.000 L250.000,500.000 L324.000,426.000 " class="cls-2"/>
  <path d="M-0.000,250.000 L250.000,-0.000 L500.000,250.000 L352.500,398.000 L148.500,398.000 " class="cls-1"/>
  <path d="M344.000,326.503 C344.000,352.141 323.177,373.000 297.581,373.000 C271.985,373.000 251.161,352.141 251.161,326.503 C251.161,306.954 263.271,290.196 280.366,283.331 C277.157,279.453 275.224,274.479 275.224,269.060 C275.224,262.447 278.104,256.495 282.670,252.392 C278.104,248.289 275.224,242.338 275.224,235.724 C275.224,225.353 282.298,216.610 291.864,214.073 L291.864,197.713 C291.864,195.828 290.332,194.294 288.448,194.294 C275.168,194.294 264.364,183.470 264.364,170.167 C264.364,156.864 275.169,146.041 288.448,146.041 C289.636,146.046 300.593,146.202 306.932,154.600 C309.112,157.487 310.041,156.996 311.775,155.711 C314.312,153.829 317.892,154.362 319.771,156.902 C321.650,159.443 321.117,163.030 318.581,164.912 C311.387,170.249 303.429,168.946 297.813,161.507 C295.357,158.253 290.220,157.506 288.448,157.493 C281.472,157.493 275.797,163.178 275.797,170.167 C275.797,182.247 288.841,182.851 289.034,182.870 C296.948,183.182 303.296,189.710 303.296,197.713 L303.296,214.073 C312.863,216.610 319.936,225.353 319.936,235.723 C319.936,242.337 317.056,248.288 312.490,252.391 C317.057,256.494 319.936,262.446 319.936,269.059 C319.936,274.478 318.004,279.453 314.795,283.330 C331.889,290.196 343.999,306.954 344.000,326.503 ZM297.602,224.782 C297.595,224.782 297.588,224.783 297.580,224.783 C297.572,224.783 297.566,224.782 297.558,224.782 C291.545,224.794 286.656,229.697 286.656,235.723 C286.656,241.756 291.557,246.665 297.580,246.665 C303.603,246.665 308.503,241.756 308.503,235.723 C308.503,229.697 303.615,224.794 297.602,224.782 ZM297.580,258.118 C291.557,258.118 286.656,263.026 286.656,269.059 C286.656,275.092 291.557,280.002 297.580,280.002 C303.603,280.002 308.503,275.092 308.503,269.059 C308.503,263.026 303.603,258.118 297.580,258.118 ZM297.580,291.454 C278.288,291.454 262.593,307.176 262.593,326.502 C262.593,345.826 278.288,361.547 297.580,361.547 C316.872,361.547 332.567,345.827 332.567,326.502 C332.567,307.176 316.872,291.454 297.580,291.454 ZM199.420,333.959 C173.824,333.959 153.000,313.100 153.000,287.461 C153.000,267.912 165.110,251.155 182.205,244.289 C178.996,240.412 177.063,235.437 177.063,230.019 C177.063,223.405 179.943,217.453 184.509,213.350 C179.943,209.247 177.063,203.296 177.063,196.682 C177.063,186.313 184.137,177.570 193.704,175.033 L193.704,158.671 C193.704,156.786 192.171,155.252 190.287,155.252 C177.007,155.252 166.203,144.429 166.203,131.126 C166.203,117.823 177.007,107.000 190.287,107.000 C191.462,107.006 202.430,107.161 208.771,115.559 C210.951,118.445 211.882,117.955 213.615,116.669 C216.152,114.787 219.731,115.321 221.611,117.862 C223.490,120.403 222.957,123.989 220.420,125.871 C213.226,131.211 205.268,129.905 199.652,122.466 C196.726,118.591 190.409,118.452 190.326,118.452 L190.325,118.452 C183.311,118.452 177.636,124.138 177.636,131.126 C177.636,143.815 190.680,143.809 190.873,143.828 C198.787,144.141 205.135,150.668 205.135,158.671 L205.135,175.032 C214.702,177.569 221.775,186.312 221.775,196.681 C221.775,203.295 218.896,209.247 214.329,213.350 C218.896,217.453 221.775,223.404 221.775,230.018 C221.775,235.436 219.843,240.411 216.634,244.288 C233.728,251.155 245.838,267.912 245.839,287.461 C245.839,313.100 225.016,333.959 199.420,333.959 ZM199.441,185.741 C199.434,185.741 199.427,185.742 199.419,185.742 C199.411,185.742 199.405,185.741 199.397,185.741 C193.384,185.753 188.495,190.655 188.495,196.681 C188.495,202.714 193.396,207.623 199.420,207.623 C205.443,207.623 210.343,202.714 210.343,196.681 C210.343,190.656 205.454,185.753 199.441,185.741 ZM188.495,230.018 C188.495,236.051 193.396,240.960 199.419,240.960 C205.442,240.960 210.342,236.051 210.342,230.018 C210.342,223.985 205.442,219.076 199.419,219.076 C193.396,219.076 188.495,223.985 188.495,230.018 ZM199.419,252.413 C180.127,252.413 164.432,268.135 164.432,287.461 C164.432,306.785 180.127,322.507 199.419,322.507 C218.711,322.507 234.406,306.785 234.406,287.461 C234.406,268.135 218.711,252.413 199.419,252.413 Z" class="cls-3"/>
  <path d="M126.500,375.000 L375.500,125.031 L500.000,250.000 L352.500,398.000 L148.500,398.000 L126.500,375.000 Z" class="cls-2"/>
</svg>
