<svg xmlns="http://www.w3.org/2000/svg" xmlns:xlink="http://www.w3.org/1999/xlink" preserveAspectRatio="xMidYMid" width="64" height="64" viewBox="0 0 500 500">
  <defs>
    <style>
      .cls-1 {
        fill: #e67e22;
      }

      .cls-1, .cls-2, .cls-3 {
        fill-rule: evenodd;
      }

      .cls-2 {
        fill: #000;
        opacity: 0.15;
      }

      .cls-3 {
        fill: #fff;
      }
    </style>
  </defs>
  <path d="M177.000,426.000 L323.500,426.000 L250.000,500.000 " class="cls-1"/>
  <path d="M177.000,426.000 L250.000,500.000 L324.000,426.000 " class="cls-2"/>
  <path d="M-0.000,250.000 L250.000,-0.000 L500.000,250.000 L352.500,398.000 L148.500,398.000 " class="cls-1"/>
  <path d="M278.659,288.577 L276.071,291.845 L243.756,262.820 L246.590,260.094 L357.408,153.199 C357.408,153.199 362.055,150.083 369.122,156.443 C372.699,159.671 373.785,162.524 373.993,164.556 L278.659,288.577 ZM168.009,315.084 C132.467,314.024 113.319,288.394 130.271,215.210 C143.686,157.360 191.006,115.081 247.644,122.915 C278.986,127.267 304.954,145.788 320.525,171.434 L191.525,301.806 C182.622,304.548 174.533,309.186 168.009,315.084 ZM152.853,257.082 C151.424,267.362 158.602,276.822 168.887,278.241 C179.164,279.683 188.658,272.519 190.088,262.246 C191.525,251.981 184.338,242.513 174.062,241.103 C163.785,239.652 154.282,246.841 152.853,257.082 ZM237.583,195.183 C251.453,197.111 264.261,187.436 266.194,173.593 C268.118,159.758 258.432,146.967 244.562,145.039 C230.684,143.118 217.876,152.785 215.952,166.628 C214.027,180.487 223.705,193.254 237.583,195.183 ZM200.812,199.231 C202.241,188.959 195.062,179.491 184.770,178.088 C174.501,176.638 164.998,183.818 163.577,194.067 C162.148,204.348 169.326,213.815 179.603,215.226 C189.880,216.668 199.382,209.488 200.812,199.231 ZM198.544,312.972 C198.616,312.956 198.664,312.932 198.728,312.916 C199.414,312.764 200.061,312.613 200.748,312.485 L231.027,339.829 C230.764,340.347 229.079,343.009 229.079,343.025 C215.816,365.443 194.959,354.094 187.516,361.131 C184.259,364.199 182.861,368.439 182.158,372.312 C181.839,374.002 180.545,375.389 178.845,375.827 C177.144,376.273 175.339,375.683 174.221,374.337 C150.010,344.945 174.070,318.734 198.544,312.972 ZM173.255,357.083 C173.678,358.414 174.812,359.394 176.186,359.625 C177.559,359.856 178.956,359.314 179.803,358.206 C180.545,357.242 181.384,356.286 182.310,355.417 C187.109,350.874 193.402,350.635 199.494,350.404 C205.020,350.189 210.370,349.982 215.257,346.969 C209.955,345.551 204.229,345.320 198.001,345.862 C188.044,346.754 182.662,342.937 176.489,336.227 C174.892,338.514 173.638,341.032 172.880,343.750 C171.562,348.380 171.890,352.899 173.255,357.083 ZM208.222,302.157 L237.823,269.219 L270.330,298.093 L240.522,331.222 L237.791,334.266 L205.483,305.217 L208.222,302.157 ZM220.359,305.664 L222.260,307.329 C223.817,308.724 226.180,308.549 227.554,307.010 L242.374,290.243 C243.037,289.494 243.364,288.529 243.309,287.517 C243.245,286.521 242.789,285.620 242.047,284.967 L240.138,283.285 C238.581,281.899 236.218,282.074 234.844,283.620 L220.024,300.388 C219.369,301.129 219.034,302.109 219.090,303.105 C219.162,304.102 219.609,305.002 220.359,305.664 Z" class="cls-3"/>
  <path d="M126.500,375.000 L375.500,125.031 L500.000,250.000 L352.500,398.000 L148.500,398.000 L126.500,375.000 Z" class="cls-2"/>
</svg>
