<svg xmlns="http://www.w3.org/2000/svg" xmlns:xlink="http://www.w3.org/1999/xlink" preserveAspectRatio="xMidYMid" width="64" height="64" viewBox="0 0 500 500">
  <defs>
    <style>
      .cls-1 {
        fill: #e67e22;
      }

      .cls-1, .cls-2, .cls-3 {
        fill-rule: evenodd;
      }

      .cls-2 {
        fill: #000;
        opacity: 0.15;
      }

      .cls-3 {
        fill: #fff;
      }
    </style>
  </defs>
  <path d="M177.000,426.000 L323.500,426.000 L250.000,500.000 " class="cls-1"/>
  <path d="M177.000,426.000 L250.000,500.000 L324.000,426.000 " class="cls-2"/>
  <path d="M-0.000,250.000 L250.000,-0.000 L500.000,250.000 L352.500,398.000 L148.500,398.000 " class="cls-1"/>
  <path d="M326.911,200.055 L326.911,171.404 C326.911,152.975 312.307,137.975 294.001,137.975 L204.273,137.975 C185.967,137.975 171.063,152.969 171.063,171.404 L171.063,200.050 L136.391,200.050 C128.411,200.050 121.941,206.563 121.941,214.596 L121.941,246.219 C121.941,254.252 128.411,260.765 136.391,260.765 L140.696,260.765 L156.485,348.084 C157.733,354.996 163.720,360.021 170.699,360.021 L327.575,360.021 C334.559,360.021 340.536,354.996 341.789,348.078 L357.572,260.765 L361.589,260.765 C369.569,260.765 376.038,254.252 376.038,246.219 L376.038,214.596 C376.038,206.563 369.569,200.050 361.589,200.050 L326.911,200.050 L326.911,200.055 ZM197.830,171.404 C197.830,167.888 200.781,164.923 204.273,164.923 L294.006,164.923 C297.498,164.923 300.149,167.888 300.149,171.404 L300.149,200.050 L197.830,200.050 L197.830,171.404 ZM217.817,308.034 C217.817,313.625 213.378,318.154 207.824,318.154 C202.275,318.154 197.830,313.625 197.830,308.034 L197.830,252.478 C197.830,246.887 202.275,242.358 207.824,242.358 C213.383,242.358 217.817,246.893 217.817,252.478 L217.817,308.034 ZM259.152,308.034 C259.152,313.625 254.707,318.154 249.158,318.154 C243.610,318.154 239.159,313.625 239.159,308.034 L239.159,252.478 C239.159,246.887 243.610,242.358 249.158,242.358 C254.712,242.358 259.152,246.893 259.152,252.478 L259.152,308.034 ZM300.487,308.034 C300.487,313.625 296.041,318.154 290.493,318.154 C284.939,318.154 280.499,313.625 280.499,308.034 L280.499,252.478 C280.499,246.887 284.945,242.358 290.493,242.358 C296.041,242.358 300.487,246.893 300.487,252.478 L300.487,308.034 Z" class="cls-3"/>
  <path d="M126.500,375.000 L375.500,125.031 L500.000,250.000 L352.500,398.000 L148.500,398.000 L126.500,375.000 Z" class="cls-2"/>
</svg>
