<svg xmlns="http://www.w3.org/2000/svg" xmlns:xlink="http://www.w3.org/1999/xlink" preserveAspectRatio="xMidYMid" width="64" height="64" viewBox="0 0 500 500">
  <defs>
    <style>
      .cls-1 {
        fill: #e67e22;
      }

      .cls-1, .cls-2, .cls-3 {
        fill-rule: evenodd;
      }

      .cls-2 {
        fill: #000;
        opacity: 0.15;
      }

      .cls-3 {
        fill: #fff;
      }
    </style>
  </defs>
  <path d="M177.000,426.000 L323.500,426.000 L250.000,500.000 " class="cls-1"/>
  <path d="M177.000,426.000 L250.000,500.000 L324.000,426.000 " class="cls-2"/>
  <path d="M-0.000,250.000 L250.000,-0.000 L500.000,250.000 L352.500,398.000 L148.500,398.000 " class="cls-1"/>
  <path d="M360.686,374.992 L307.426,374.992 C304.483,374.992 302.102,372.609 302.102,369.663 L302.102,284.337 C302.102,281.387 304.479,279.004 307.426,279.004 L360.686,279.004 C363.633,279.004 366.014,281.384 366.010,284.337 L366.010,369.663 C366.010,372.606 363.633,374.992 360.686,374.992 ZM355.358,289.669 L312.754,289.669 L312.754,300.331 L355.358,300.331 L355.358,289.669 ZM355.358,311.000 L312.754,311.000 L312.754,364.330 L355.358,364.330 L355.358,311.000 ZM334.942,276.255 C320.754,276.255 309.208,264.694 309.208,250.476 C309.208,237.912 327.213,215.246 330.823,210.832 L334.942,205.790 L339.064,210.832 C342.674,215.249 360.690,237.912 360.690,250.476 C360.690,264.694 349.144,276.255 334.942,276.255 ZM334.942,222.863 C327.714,232.539 319.860,245.069 319.860,250.476 C319.860,258.809 326.620,265.589 334.942,265.589 C343.267,265.589 350.041,258.805 350.041,250.476 C350.041,245.059 342.183,232.529 334.942,222.863 ZM251.504,374.992 L150.305,374.992 C134.152,374.992 121.014,361.835 121.014,345.664 L121.014,167.014 C121.014,164.065 123.395,161.682 126.338,161.682 L142.318,161.682 L142.318,124.349 C142.318,121.403 144.699,119.016 147.642,119.016 L168.943,119.016 C171.893,119.016 174.271,121.403 174.274,124.349 L174.274,151.016 L190.254,151.016 C193.194,151.016 195.578,153.396 195.578,156.349 L195.578,161.682 L275.470,161.682 C278.413,161.682 280.794,164.065 280.794,167.014 L280.794,345.664 C280.794,361.835 267.660,374.992 251.504,374.992 ZM150.305,364.330 L251.504,364.330 C258.219,364.330 264.100,360.741 267.382,355.391 L134.425,355.391 C137.707,360.741 143.587,364.330 150.305,364.330 ZM163.622,129.685 L152.970,129.685 L152.970,172.344 L163.622,172.344 L163.622,129.685 ZM163.622,183.012 L152.970,183.012 L152.970,193.678 L163.622,193.678 L163.622,183.012 ZM184.923,161.682 L174.271,161.682 L174.271,193.678 L184.923,193.678 L184.923,161.682 ZM206.227,172.344 L195.578,172.344 L195.578,193.678 L206.227,193.678 L206.227,172.344 ZM227.534,172.344 L216.882,172.344 L216.882,193.678 L227.534,193.678 L227.534,172.344 ZM248.838,172.344 L238.186,172.344 L238.186,193.678 L248.838,193.678 L248.838,172.344 ZM259.490,172.344 L259.490,199.010 C259.490,201.956 257.109,204.343 254.163,204.343 L147.639,204.343 C144.699,204.343 142.315,201.960 142.315,199.010 L142.315,172.344 L131.663,172.344 L131.663,250.813 L270.142,250.813 L270.142,172.344 L259.490,172.344 Z" class="cls-3"/>
  <path d="M126.500,375.000 L375.500,125.031 L500.000,250.000 L352.500,398.000 L148.500,398.000 L126.500,375.000 Z" class="cls-2"/>
</svg>
