<svg xmlns="http://www.w3.org/2000/svg" xmlns:xlink="http://www.w3.org/1999/xlink" preserveAspectRatio="xMidYMid" width="64" height="64" viewBox="0 0 500 500">
  <defs>
    <style>
      .cls-1 {
        fill: #e67e22;
      }

      .cls-1, .cls-2, .cls-3 {
        fill-rule: evenodd;
      }

      .cls-2 {
        fill: #000;
        opacity: 0.15;
      }

      .cls-3 {
        fill: #fff;
      }
    </style>
  </defs>
  <path d="M177.000,426.000 L323.500,426.000 L250.000,500.000 " class="cls-1"/>
  <path d="M177.000,426.000 L250.000,500.000 L324.000,426.000 " class="cls-2"/>
  <path d="M-0.000,250.000 L250.000,-0.000 L500.000,250.000 L352.500,398.000 L148.500,398.000 " class="cls-1"/>
  <g>
    <path d="M280.802,115.000 L160.195,115.000 C150.148,115.000 141.925,123.200 141.925,133.239 L141.925,366.754 C141.925,376.788 150.148,385.000 160.195,385.000 L280.802,385.000 C290.848,385.000 299.075,376.804 299.075,366.761 L299.075,133.239 C299.075,123.200 290.848,115.000 280.802,115.000 ZM201.207,128.146 L239.793,128.146 C241.016,128.146 242.004,129.133 242.004,130.361 C242.004,131.577 241.016,132.565 239.793,132.565 L201.207,132.565 C199.988,132.565 198.996,131.577 198.996,130.361 C198.996,129.133 199.988,128.146 201.207,128.146 ZM220.500,375.885 C215.454,375.885 211.363,371.802 211.363,366.761 C211.363,361.721 215.454,357.646 220.500,357.646 C225.542,357.646 229.633,361.721 229.633,366.761 C229.633,371.802 225.542,375.885 220.500,375.885 ZM286.365,351.250 L154.639,351.250 L154.639,143.921 L286.365,143.921 L286.365,351.250 Z" class="cls-3"/>
    <path d="M392.000,299.589 L392.000,220.310 C392.000,217.754 390.971,215.300 389.134,213.502 L372.239,196.826 C370.403,195.015 367.928,194.000 365.336,194.000 L320.513,194.000 C316.918,194.000 314.000,196.878 314.000,200.423 L314.000,299.576 C314.000,303.121 316.918,305.999 320.513,305.999 L385.487,305.999 C389.082,306.012 392.000,303.134 392.000,299.589 ZM376.291,239.491 C379.886,239.491 382.804,242.369 382.804,245.914 L382.804,253.918 L367.915,253.918 L367.915,239.491 L376.291,239.491 ZM382.804,277.556 L323.196,277.556 L323.196,260.341 L382.804,260.341 L382.804,277.556 L382.804,277.556 ZM361.532,253.918 L344.468,253.918 L344.468,239.491 L361.532,239.491 L361.532,253.918 ZM323.196,245.914 C323.196,242.369 326.114,239.491 329.709,239.491 L338.085,239.491 L338.085,253.918 L323.196,253.918 L323.196,245.914 ZM323.196,290.891 L323.196,283.980 L338.346,283.980 L338.346,297.315 L329.709,297.315 C326.114,297.315 323.196,294.437 323.196,290.891 ZM344.207,283.980 L361.793,283.980 L361.793,297.315 L344.207,297.315 L344.207,283.980 ZM382.804,290.891 C382.804,294.437 379.886,297.315 376.291,297.315 L367.654,297.315 L367.654,283.980 L382.804,283.980 L382.804,290.891 Z" class="cls-3"/>
  </g>
  <path d="M126.500,375.000 L375.500,125.031 L500.000,250.000 L352.500,398.000 L148.500,398.000 L126.500,375.000 Z" class="cls-2"/>
</svg>
