<svg xmlns="http://www.w3.org/2000/svg" xmlns:xlink="http://www.w3.org/1999/xlink" preserveAspectRatio="xMidYMid" width="64" height="64" viewBox="0 0 500 500">
  <defs>
    <style>
      .cls-1 {
        fill: #34495e;
      }

      .cls-1, .cls-2, .cls-3 {
        fill-rule: evenodd;
      }

      .cls-2 {
        fill: #000;
        opacity: 0.15;
      }

      .cls-3 {
        fill: #fff;
      }
    </style>
  </defs>
  <path d="M177.000,426.000 L323.500,426.000 L250.000,500.000 " class="cls-1"/>
  <path d="M177.000,426.000 L250.000,500.000 L324.000,426.000 " class="cls-2"/>
  <path d="M-0.000,250.000 L250.000,-0.000 L500.000,250.000 L352.500,398.000 L148.500,398.000 " class="cls-1"/>
  <path d="M348.237,185.787 L250.000,114.350 L151.763,185.787 L121.000,185.787 L250.000,91.987 L379.000,185.787 L348.237,185.787 ZM182.636,223.751 C182.636,186.552 212.795,156.376 250.000,156.376 C287.205,156.376 317.364,186.543 317.364,223.751 C317.364,260.962 287.205,291.138 250.000,291.138 C212.795,291.138 182.636,260.962 182.636,223.751 ZM269.073,261.063 C275.825,256.678 279.210,249.285 279.210,238.902 C279.210,231.694 276.572,226.267 271.315,222.596 C268.074,220.370 261.926,217.979 252.855,215.438 L252.855,186.897 C258.256,187.102 262.178,189.169 264.638,193.117 C265.957,195.259 266.763,197.831 267.032,200.800 L277.287,200.800 C277.093,194.184 274.910,188.867 270.753,184.825 C266.595,180.772 260.616,178.483 252.847,177.949 L252.847,170.259 L247.283,170.259 L247.283,178.046 C239.422,178.130 233.317,180.550 228.966,185.342 C224.603,190.097 222.428,195.457 222.428,201.383 C222.428,208.016 224.448,213.212 228.491,216.971 C232.544,220.731 238.805,223.389 247.283,225.007 L247.283,256.947 C240.669,256.409 236.139,253.939 233.703,249.520 C232.317,247.051 231.477,243.136 231.158,237.776 L220.794,237.776 C220.794,244.514 221.903,249.839 224.133,253.788 C228.190,261.097 235.911,265.129 247.283,265.852 L247.283,277.226 L252.847,277.226 L252.847,265.852 C259.910,265.079 265.327,263.458 269.073,261.063 ZM252.839,226.418 C257.710,227.746 261.195,229.157 263.270,230.619 C266.864,233.181 268.661,236.886 268.653,241.775 C268.653,244.824 267.981,247.572 266.663,249.924 C264.126,254.494 259.524,256.930 252.839,257.241 L252.839,226.418 ZM232.972,200.687 C232.972,197.477 234.064,194.415 236.248,191.491 C238.440,188.539 242.122,186.993 247.275,186.788 L247.275,214.338 C242.895,213.497 239.422,211.973 236.832,209.772 C234.261,207.587 232.972,204.551 232.972,200.687 ZM346.431,317.298 L153.569,317.298 L153.569,297.657 L346.431,297.657 L346.431,317.298 ZM373.995,348.013 L126.014,348.013 L126.014,328.371 L373.995,328.371 L373.995,348.013 Z" class="cls-3"/>
  <path d="M126.500,375.000 L375.500,125.031 L500.000,250.000 L352.500,398.000 L148.500,398.000 L126.500,375.000 Z" class="cls-2"/>
</svg>
