<svg xmlns="http://www.w3.org/2000/svg" xmlns:xlink="http://www.w3.org/1999/xlink" preserveAspectRatio="xMidYMid" width="64" height="64" viewBox="0 0 500 500">
  <defs>
    <style>
      .cls-1 {
        fill: #34495e;
      }

      .cls-1, .cls-2, .cls-3 {
        fill-rule: evenodd;
      }

      .cls-2 {
        fill: #000;
        opacity: 0.15;
      }

      .cls-3 {
        fill: #fff;
      }
    </style>
  </defs>
  <path d="M177.000,426.000 L323.500,426.000 L250.000,500.000 " class="cls-1"/>
  <path d="M177.000,426.000 L250.000,500.000 L324.000,426.000 " class="cls-2"/>
  <path d="M-0.000,250.000 L250.000,-0.000 L500.000,250.000 L352.500,398.000 L148.500,398.000 " class="cls-1"/>
  <path d="M391.208,302.179 L203.821,378.840 C201.931,379.617 199.936,380.006 197.902,380.006 C191.389,380.006 185.578,376.063 183.089,369.956 L154.428,299.587 L163.960,299.587 L173.452,322.901 L230.428,299.592 L331.258,299.592 L187.851,358.265 L191.253,366.617 C192.723,370.219 196.933,372.111 200.479,370.660 L387.873,293.999 C391.454,292.530 393.143,288.328 391.643,284.635 L388.239,276.282 L372.709,282.632 L372.709,241.377 L373.838,240.917 L372.709,238.157 L372.709,214.759 L399.814,281.288 C403.158,289.498 399.297,298.866 391.208,302.179 ZM351.240,291.468 L351.119,291.468 L250.285,291.468 L160.651,291.468 L151.119,291.468 L146.937,291.468 C144.523,291.468 142.255,290.881 140.204,289.904 C134.776,287.313 130.984,281.750 130.984,275.276 L130.984,156.186 C130.984,147.261 138.141,139.994 146.937,139.994 L351.240,139.994 C355.541,139.994 359.436,141.750 362.311,144.572 C365.306,147.518 367.193,151.625 367.193,156.186 L367.193,201.198 L367.193,224.602 L367.193,243.642 L367.193,275.276 C367.193,279.837 365.306,283.944 362.311,286.890 C359.436,289.714 355.541,291.468 351.240,291.468 ZM327.505,241.139 C328.306,241.811 329.332,242.148 330.590,242.148 C332.146,242.148 333.309,241.670 334.089,240.709 C334.865,239.751 335.261,238.663 335.261,237.442 C335.261,236.039 334.856,234.974 334.046,234.240 C333.236,233.505 332.288,233.138 331.202,233.138 C330.659,233.138 330.207,233.205 329.832,233.346 C329.607,233.430 329.297,233.603 328.897,233.864 L329.367,230.981 L334.749,230.981 L334.749,228.778 L327.505,228.778 L326.583,236.066 L328.901,236.177 C329.108,235.784 329.414,235.514 329.819,235.367 C330.047,235.287 330.323,235.248 330.633,235.248 C331.301,235.248 331.793,235.477 332.107,235.941 C332.417,236.406 332.577,236.978 332.560,237.654 C332.560,238.338 332.391,238.911 332.055,239.360 C331.719,239.811 331.232,240.038 330.590,240.038 C330.039,240.038 329.616,239.882 329.323,239.578 C329.039,239.273 328.841,238.839 328.737,238.274 L326.160,238.274 C326.246,239.511 326.699,240.466 327.505,241.139 ZM315.831,238.962 L321.041,238.962 L321.041,241.802 L323.575,241.802 L323.575,238.962 L325.066,238.962 L325.066,236.932 L323.579,236.932 L323.579,228.686 L320.671,228.686 L315.831,236.695 L315.831,238.962 ZM306.131,240.288 C306.855,241.511 308.156,242.120 310.018,242.120 C311.526,242.120 312.668,241.696 313.439,240.852 C314.211,240.001 314.594,239.021 314.594,237.907 C314.594,236.844 314.267,236.009 313.608,235.393 C313.164,234.987 312.827,234.784 312.586,234.784 C312.905,234.665 313.207,234.439 313.500,234.102 C313.957,233.568 314.185,232.912 314.185,232.134 C314.185,231.033 313.801,230.158 313.030,229.508 C312.259,228.856 311.242,228.530 309.983,228.530 C309.303,228.530 308.734,228.614 308.268,228.778 C307.803,228.945 307.402,229.180 307.062,229.489 C306.609,229.927 306.277,230.400 306.066,230.919 C305.868,231.506 305.752,232.130 305.730,232.784 L308.143,232.784 C308.131,232.134 308.268,231.616 308.553,231.227 C308.841,230.839 309.294,230.644 309.901,230.644 C310.431,230.644 310.841,230.804 311.138,231.117 C311.427,231.435 311.573,231.843 311.573,232.346 C311.573,233.125 311.285,233.637 310.712,233.894 C310.380,234.050 309.794,234.130 308.958,234.143 L308.958,236.000 C309.811,236.000 310.440,236.084 310.841,236.248 C311.535,236.540 311.888,237.118 311.897,237.978 C311.897,238.636 311.707,239.135 311.328,239.485 C310.949,239.835 310.509,240.008 310.001,240.008 C309.178,240.008 308.605,239.688 308.290,239.051 C308.122,238.705 308.036,238.269 308.036,237.743 L305.498,237.743 C305.540,238.790 305.752,239.640 306.131,240.288 ZM288.773,238.798 C289.011,238.595 289.454,238.258 290.105,237.801 L291.144,237.062 C292.014,236.442 292.643,235.881 293.026,235.376 C293.608,234.615 293.902,233.749 293.902,232.771 C293.902,231.493 293.488,230.471 292.665,229.698 C291.842,228.923 290.730,228.539 289.338,228.539 C287.576,228.539 286.351,229.197 285.658,230.515 C285.296,231.206 285.093,232.113 285.050,233.236 L287.567,233.236 C287.593,232.497 287.692,231.957 287.855,231.616 C288.135,231.029 288.679,230.733 289.463,230.733 C290.032,230.733 290.476,230.919 290.786,231.290 C291.092,231.657 291.247,232.122 291.247,232.683 C291.247,233.367 290.979,234.000 290.441,234.574 C290.088,234.946 289.316,235.561 288.127,236.415 C286.748,237.397 285.878,238.330 285.507,239.211 C285.123,239.992 284.921,240.861 284.899,241.807 L293.919,241.807 L293.919,239.520 L288.170,239.520 C288.334,239.245 288.532,239.008 288.773,238.798 ZM280.077,271.916 C280.957,272.628 281.978,272.983 283.132,272.983 C284.533,272.983 285.619,272.560 286.399,271.717 C286.903,271.182 287.179,270.659 287.239,270.141 L284.925,270.141 C284.787,270.400 284.636,270.603 284.455,270.746 C284.128,271.009 283.714,271.143 283.197,271.143 C282.706,271.143 282.292,271.031 281.939,270.815 C281.370,270.465 281.068,269.847 281.034,268.979 L287.360,268.979 C287.373,268.228 287.347,267.653 287.286,267.247 C287.179,266.569 286.951,265.969 286.593,265.451 C286.201,264.863 285.697,264.431 285.093,264.164 C284.490,263.896 283.805,263.758 283.055,263.758 C281.779,263.758 280.745,264.159 279.948,264.962 C279.146,265.770 278.750,266.923 278.750,268.431 C278.750,270.042 279.194,271.204 280.077,271.916 ZM278.362,241.802 L281.017,241.802 L281.017,228.610 L278.853,228.610 C278.853,228.725 278.819,228.897 278.750,229.137 C278.638,229.530 278.470,229.847 278.241,230.083 C277.923,230.428 277.501,230.657 276.975,230.772 C276.652,230.843 276.083,230.901 275.268,230.936 L275.268,232.700 L278.362,232.700 L278.362,241.802 ZM264.887,272.689 L267.190,272.689 L267.190,267.455 C267.190,266.980 267.249,266.621 267.371,266.383 C267.595,265.960 268.029,265.753 268.677,265.753 C269.235,265.753 269.606,265.960 269.804,266.383 C269.908,266.617 269.959,266.992 269.950,267.506 L269.950,272.689 L272.239,272.689 L272.239,267.506 C272.239,267.122 272.303,266.785 272.424,266.513 C272.661,265.991 273.096,265.727 273.721,265.727 C274.264,265.727 274.634,265.934 274.837,266.332 C274.941,266.547 274.997,266.820 274.997,267.148 L274.997,272.689 L277.319,272.689 L277.336,267.204 C277.336,266.638 277.311,266.211 277.259,265.917 C277.177,265.476 277.009,265.105 276.768,264.798 C276.466,264.427 276.126,264.168 275.755,264.017 C275.385,263.870 275.010,263.797 274.626,263.797 C274.053,263.797 273.531,263.913 273.062,264.155 C272.622,264.397 272.256,264.768 271.959,265.282 C271.786,264.854 271.536,264.500 271.209,264.233 C270.799,263.939 270.261,263.797 269.597,263.797 C268.899,263.797 268.328,263.969 267.888,264.310 C267.641,264.500 267.376,264.820 267.094,265.273 L267.094,264.004 L264.887,264.004 L264.887,272.689 ZM235.030,265.684 L236.243,265.684 L236.243,271.039 C236.243,271.583 236.373,271.985 236.627,272.249 C237.021,272.655 237.754,272.840 238.825,272.806 L239.902,272.767 L239.902,271.065 C239.827,271.074 239.751,271.074 239.674,271.082 C239.594,271.082 239.523,271.082 239.452,271.082 C238.989,271.082 238.715,271.039 238.622,270.953 C238.530,270.862 238.486,270.642 238.491,270.284 L238.491,265.684 L239.902,265.684 L239.902,264.069 L238.491,264.069 L238.491,261.637 L236.243,261.637 L236.243,264.069 L235.030,264.069 L235.030,265.684 ZM217.962,272.296 C218.479,272.741 219.132,272.966 219.922,272.966 C220.545,272.966 221.101,272.828 221.590,272.542 C221.999,272.305 222.366,272.016 222.680,271.670 C222.693,271.869 222.715,272.041 222.741,272.197 C222.768,272.352 222.816,272.516 222.883,272.694 L225.354,272.694 L225.354,272.361 C225.203,272.288 225.093,272.197 225.018,272.093 C224.943,271.985 224.899,271.782 224.882,271.488 C224.869,271.091 224.865,270.754 224.865,270.478 L224.865,266.487 C224.865,265.438 224.492,264.725 223.751,264.345 C223.005,263.969 222.159,263.779 221.206,263.779 C219.741,263.779 218.705,264.164 218.104,264.928 C217.725,265.416 217.513,266.042 217.464,266.803 L219.653,266.803 C219.705,266.470 219.812,266.202 219.974,266.008 C220.200,265.744 220.588,265.606 221.131,265.606 C221.616,265.606 221.982,265.675 222.234,265.813 C222.486,265.943 222.609,266.194 222.609,266.552 C222.609,266.841 222.445,267.057 222.129,267.213 C221.943,267.290 221.644,267.355 221.220,267.411 L220.442,267.506 C219.560,267.619 218.890,267.800 218.436,268.064 C217.606,268.543 217.190,269.316 217.190,270.383 C217.190,271.208 217.447,271.843 217.962,272.296 ZM207.994,272.689 L216.313,272.689 L216.313,270.573 L210.448,270.573 L210.448,260.920 L207.994,260.920 L207.994,272.689 ZM175.119,272.689 L177.423,272.689 L177.423,267.455 C177.423,266.980 177.480,266.621 177.603,266.383 C177.830,265.960 178.263,265.753 178.911,265.753 C179.471,265.753 179.842,265.960 180.036,266.383 C180.142,266.612 180.195,266.988 180.195,267.506 L180.195,272.689 L182.482,272.689 L182.482,267.506 C182.482,267.122 182.542,266.785 182.667,266.513 C182.904,265.991 183.337,265.727 183.964,265.727 C184.507,265.727 184.877,265.934 185.080,266.332 C185.185,266.547 185.244,266.820 185.229,267.148 L185.229,272.689 L187.556,272.689 L187.573,267.204 C187.573,266.638 187.547,266.211 187.493,265.917 C187.409,265.476 187.241,265.105 187.000,264.798 C186.698,264.427 186.360,264.168 185.989,264.017 C185.619,263.870 185.244,263.797 184.858,263.797 C184.285,263.797 183.764,263.913 183.296,264.155 C182.856,264.397 182.490,264.768 182.188,265.282 C182.021,264.854 181.770,264.500 181.443,264.233 C181.033,263.939 180.495,263.797 179.834,263.797 C179.131,263.797 178.562,263.969 178.121,264.310 C177.873,264.500 177.608,264.820 177.325,265.273 L177.325,264.004 L175.119,264.004 L175.119,272.689 ZM180.605,211.786 C183.959,210.782 186.707,208.363 188.071,205.173 L180.605,205.173 L180.605,211.786 ZM175.014,238.794 C175.253,238.591 175.699,238.254 176.347,237.797 L177.384,237.058 C177.397,237.047 177.405,237.039 177.418,237.030 C178.271,236.425 178.892,235.872 179.269,235.376 C179.851,234.615 180.142,233.749 180.142,232.771 C180.142,231.493 179.732,230.471 178.907,229.698 C178.082,228.923 176.974,228.539 175.578,228.539 C174.934,228.539 174.445,228.725 173.943,228.893 C173.669,228.990 173.381,229.070 173.148,229.219 C172.644,229.543 172.195,229.936 171.894,230.510 C171.532,231.201 171.329,232.108 171.286,233.231 L173.801,233.231 C173.831,232.493 173.928,231.953 174.091,231.612 C174.373,231.024 174.912,230.728 175.699,230.728 C176.272,230.728 176.713,230.914 177.021,231.286 C177.330,231.657 177.485,232.122 177.485,232.678 C177.485,233.363 177.216,233.996 176.677,234.570 C176.326,234.941 175.552,235.557 174.361,236.410 C172.984,237.392 172.115,238.326 171.745,239.207 C171.721,239.258 171.708,239.321 171.687,239.375 C171.355,240.118 171.161,240.917 171.139,241.802 L180.159,241.802 L180.159,239.515 L174.410,239.515 C174.572,239.241 174.777,239.004 175.014,238.794 ZM176.192,212.326 L176.192,205.173 L168.920,205.173 L168.920,212.326 L176.192,212.326 ZM166.281,272.296 C166.798,272.741 167.451,272.966 168.242,272.966 C168.862,272.966 169.418,272.828 169.909,272.542 C170.319,272.305 170.685,272.016 170.999,271.670 C171.012,271.869 171.034,272.041 171.060,272.197 C171.088,272.352 171.131,272.516 171.202,272.694 L173.674,272.694 L173.674,272.361 C173.523,272.288 173.413,272.197 173.337,272.093 C173.262,271.989 173.219,271.782 173.201,271.488 C173.186,271.091 173.182,270.754 173.182,270.478 L173.182,266.487 C173.182,265.438 172.811,264.725 172.070,264.345 C171.325,263.969 170.478,263.779 169.526,263.779 C168.061,263.779 167.022,264.164 166.423,264.928 C166.044,265.416 165.831,266.042 165.783,266.803 L167.972,266.803 C168.024,266.470 168.130,266.202 168.293,266.008 C168.520,265.744 168.907,265.606 169.450,265.606 C169.935,265.606 170.301,265.675 170.553,265.813 C170.804,265.952 170.928,266.194 170.928,266.552 C170.928,266.841 170.765,267.057 170.437,267.195 C170.252,267.278 169.952,267.342 169.530,267.394 L168.752,267.493 C167.871,267.601 167.199,267.792 166.744,268.051 C165.915,268.526 165.501,269.308 165.510,270.383 C165.510,271.208 165.766,271.843 166.281,272.296 ZM154.452,272.689 L156.736,272.689 L156.742,272.689 L156.742,264.341 L161.522,272.689 L163.969,272.689 L163.969,260.920 L161.683,260.920 L161.683,269.126 L157.025,260.920 L154.452,260.920 L154.452,272.689 ZM151.464,230.286 C150.789,231.467 150.453,233.152 150.453,235.328 C150.453,236.499 150.567,237.499 150.761,238.379 C150.929,239.140 151.151,239.816 151.464,240.359 C152.138,241.537 153.317,242.124 154.993,242.124 C156.671,242.124 157.845,241.537 158.520,240.359 C159.194,239.183 159.531,237.507 159.531,235.328 C159.531,235.134 159.490,234.996 159.485,234.810 C159.433,232.907 159.134,231.366 158.520,230.286 C157.850,229.104 156.671,228.513 154.993,228.513 C153.312,228.513 152.138,229.100 151.464,230.286 ZM164.508,179.873 C160.731,181.004 157.779,183.959 156.643,187.740 L164.508,187.740 L164.508,179.873 ZM164.508,192.162 L156.096,192.162 L156.096,200.561 C156.096,200.628 156.116,200.686 156.116,200.751 L164.508,200.751 L164.508,192.162 ZM164.508,205.173 L157.042,205.173 C158.406,208.363 161.155,210.782 164.508,211.786 L164.508,205.173 ZM167.257,241.195 L167.257,231.644 L167.257,228.610 L165.094,228.610 C165.094,228.725 165.059,228.897 164.993,229.137 C164.878,229.530 164.710,229.847 164.486,230.083 C164.163,230.428 163.741,230.657 163.219,230.772 C162.892,230.843 162.323,230.901 161.506,230.936 L161.506,232.700 L164.605,232.700 L164.605,232.722 L164.605,241.802 L164.605,241.807 L165.762,241.807 L167.257,241.807 L167.257,241.195 ZM177.278,179.333 L168.920,179.333 L168.920,200.751 L176.192,200.751 L176.192,187.744 L178.399,187.740 L188.469,187.740 C187.017,182.894 182.578,179.333 177.278,179.333 ZM189.021,192.162 L180.609,192.162 L180.609,200.751 L188.997,200.751 C188.997,200.686 189.016,200.628 189.016,200.561 L189.021,200.561 L189.021,192.162 ZM189.395,234.112 C189.854,233.577 190.083,232.922 190.083,232.143 C190.083,232.041 190.040,231.966 190.031,231.860 C189.965,230.901 189.628,230.100 188.928,229.508 C188.155,228.856 187.140,228.530 185.882,228.530 C185.203,228.530 184.634,228.614 184.166,228.778 C183.703,228.945 183.300,229.180 182.962,229.489 C182.507,229.927 182.175,230.400 181.965,230.919 C181.766,231.506 181.650,232.130 181.628,232.784 L184.042,232.784 C184.028,232.134 184.166,231.616 184.453,231.227 C184.740,230.839 185.190,230.644 185.800,230.644 C186.327,230.644 186.739,230.804 187.034,231.117 C187.325,231.435 187.472,231.843 187.472,232.346 C187.472,232.594 187.392,232.771 187.334,232.966 C187.207,233.382 187.000,233.722 186.610,233.894 C186.280,234.050 185.692,234.130 184.853,234.143 L184.853,236.000 C185.711,236.000 186.343,236.084 186.739,236.248 C187.439,236.540 187.788,237.118 187.788,237.986 C187.788,238.645 187.599,239.144 187.224,239.494 C186.845,239.843 186.403,240.016 185.897,240.016 C185.067,240.016 184.496,239.697 184.184,239.060 C184.016,238.716 183.932,238.278 183.932,237.751 L181.391,237.751 C181.434,238.798 181.645,239.649 182.027,240.299 C182.753,241.520 184.048,242.128 185.909,242.128 C187.418,242.128 188.562,241.705 189.333,240.861 C190.105,240.012 190.490,239.030 190.490,237.915 C190.490,236.853 190.163,236.017 189.501,235.404 C189.060,234.996 188.723,234.793 188.486,234.793 C188.803,234.674 189.105,234.447 189.395,234.112 ZM197.527,267.247 C197.422,266.569 197.193,265.969 196.836,265.451 C196.441,264.863 195.939,264.431 195.334,264.164 C194.730,263.896 194.046,263.758 193.291,263.758 C192.016,263.758 190.984,264.159 190.184,264.962 C189.387,265.770 188.989,266.923 188.989,268.431 C188.989,270.042 189.430,271.204 190.314,271.916 C191.195,272.628 192.214,272.983 193.371,272.983 C194.769,272.983 195.860,272.560 196.635,271.717 C197.139,271.182 197.417,270.659 197.480,270.141 L195.161,270.141 C195.026,270.400 194.871,270.603 194.694,270.746 C194.369,271.009 193.948,271.143 193.433,271.143 C192.942,271.143 192.528,271.031 192.179,270.815 C191.611,270.461 191.307,269.847 191.279,268.979 L197.603,268.979 C197.615,268.228 197.590,267.653 197.527,267.247 ZM211.308,236.932 L209.822,236.932 L209.822,228.686 L206.913,228.686 L202.073,236.695 L202.073,238.958 L202.073,238.962 L207.287,238.962 L207.287,241.802 L209.822,241.802 L209.822,238.962 L211.308,238.962 L211.308,236.932 ZM215.607,230.981 L220.984,230.981 L220.984,228.778 L213.741,228.778 L212.817,236.066 L215.139,236.177 C215.346,235.784 215.650,235.514 216.057,235.367 C216.285,235.287 216.559,235.248 216.874,235.248 C217.539,235.248 218.028,235.477 218.343,235.941 C218.655,236.406 218.815,236.978 218.815,237.650 C218.815,238.334 218.647,238.906 218.311,239.356 C217.977,239.807 217.486,240.034 216.845,240.034 C216.290,240.034 215.871,239.878 215.581,239.574 C215.292,239.269 215.094,238.835 214.992,238.269 L212.415,238.269 C212.504,239.507 212.954,240.461 213.758,241.135 C214.560,241.811 215.589,242.148 216.824,242.148 C218.382,242.148 219.548,241.670 220.327,240.709 C221.105,239.751 221.497,238.663 221.497,237.442 C221.497,236.039 221.096,234.974 220.284,234.240 C219.476,233.505 218.528,233.138 217.438,233.138 C216.900,233.138 216.445,233.205 216.070,233.346 C215.844,233.430 215.536,233.603 215.135,233.864 L215.607,230.981 ZM225.787,232.020 C226.138,231.072 226.739,230.599 227.582,230.599 C228.147,230.599 228.567,230.808 228.845,231.219 C229.013,231.471 229.092,231.704 229.092,231.919 L231.669,231.919 C231.577,230.873 231.169,230.038 230.441,229.409 C229.713,228.783 228.739,228.468 227.515,228.468 C226.668,228.468 225.936,228.662 225.333,229.053 C224.727,229.441 224.234,229.953 223.859,230.590 C223.422,231.337 223.126,232.272 222.975,233.395 C222.892,234.028 222.848,234.847 222.848,235.853 C222.848,237.574 223.152,238.971 223.766,240.060 C224.555,241.452 225.777,242.148 227.431,242.144 C228.976,242.144 230.116,241.675 230.848,240.731 C231.581,239.789 231.947,238.705 231.947,237.472 C231.947,236.239 231.573,235.222 230.825,234.426 C230.079,233.629 229.123,233.231 227.952,233.231 C227.410,233.231 226.925,233.320 226.500,233.497 C226.078,233.670 225.707,233.952 225.384,234.333 C225.460,233.311 225.591,232.540 225.787,232.020 ZM230.176,263.732 C229.034,263.732 228.147,264.025 227.515,264.600 C226.886,265.183 226.571,265.869 226.571,266.677 C226.571,267.355 226.774,267.878 227.177,268.240 C227.578,268.608 228.276,268.914 229.258,269.161 C230.631,269.484 231.426,269.714 231.637,269.847 C231.850,269.977 231.956,270.175 231.960,270.426 C231.960,270.690 231.827,270.893 231.562,271.022 C231.299,271.156 230.946,271.221 230.495,271.221 C229.730,271.221 229.207,271.074 228.925,270.763 C228.760,270.590 228.659,270.305 228.610,269.903 L226.307,269.903 C226.307,270.798 226.634,271.532 227.287,272.110 C227.935,272.689 228.946,272.974 230.314,272.974 C231.654,272.974 232.648,272.702 233.287,272.158 C233.927,271.614 234.251,270.910 234.251,270.050 C234.251,269.394 234.024,268.849 233.578,268.413 C233.128,267.982 232.449,267.662 231.544,267.446 C230.189,267.148 229.401,266.941 229.174,266.815 C228.955,266.703 228.840,266.513 228.840,266.250 C228.840,266.042 228.946,265.861 229.157,265.705 C229.370,265.554 229.721,265.476 230.217,265.476 C230.816,265.476 231.241,265.628 231.493,265.934 C231.624,266.107 231.708,266.340 231.738,266.630 L234.007,266.630 C233.906,265.563 233.514,264.820 232.828,264.384 C232.145,263.947 231.262,263.732 230.176,263.732 ZM242.417,228.778 L233.119,228.778 L233.085,231.109 L239.646,231.109 C239.001,231.733 238.209,232.838 237.254,234.421 C235.784,236.978 235.009,239.436 234.929,241.802 L237.616,241.802 C237.616,241.042 237.763,240.068 238.062,238.887 C238.361,237.705 238.693,236.704 239.064,235.885 C239.527,234.840 240.109,233.827 240.799,232.851 C241.490,231.869 242.029,231.188 242.417,230.808 L242.417,228.778 ZM253.741,266.833 C253.741,265.744 253.459,264.962 252.888,264.492 C252.319,264.017 251.591,263.783 250.697,263.783 C249.981,263.783 249.389,263.956 248.926,264.310 C248.665,264.500 248.391,264.829 248.101,265.273 L248.101,264.004 L245.903,264.004 L245.903,272.689 L248.176,272.689 L248.176,267.982 C248.176,267.437 248.251,266.997 248.398,266.651 C248.684,265.999 249.208,265.671 249.973,265.671 C250.589,265.671 251.013,265.896 251.233,266.340 C251.358,266.586 251.414,266.941 251.414,267.403 L251.414,272.694 L253.741,272.694 L253.741,266.833 ZM262.209,233.395 C262.399,232.899 262.496,232.435 262.496,232.007 C262.496,231.046 262.138,230.227 261.414,229.552 C260.690,228.876 259.671,228.539 258.357,228.539 C257.042,228.539 256.021,228.876 255.299,229.552 C254.579,230.227 254.218,231.046 254.218,232.007 C254.218,232.439 254.315,232.899 254.504,233.395 C254.694,233.890 255.109,234.350 255.743,234.771 C255.099,235.075 254.614,235.527 254.278,236.127 C253.944,236.729 253.776,237.401 253.776,238.140 C253.776,239.250 254.155,240.198 254.913,240.975 C255.670,241.753 256.786,242.144 258.260,242.144 C259.733,242.144 260.880,241.753 261.701,240.975 C262.521,240.198 262.933,239.250 262.933,238.140 C262.933,237.397 262.765,236.729 262.437,236.127 C262.108,235.527 261.616,235.045 260.968,234.683 C261.603,234.320 262.020,233.890 262.209,233.395 ZM263.431,272.361 C263.280,272.288 263.170,272.197 263.094,272.093 C263.021,271.985 262.976,271.782 262.959,271.488 C262.946,271.091 262.941,270.754 262.941,270.478 L262.941,266.487 C262.941,265.438 262.571,264.725 261.830,264.345 C261.084,263.969 260.236,263.779 259.283,263.779 C257.818,263.779 256.781,264.164 256.180,264.928 C255.801,265.416 255.590,266.042 255.540,266.803 L257.734,266.803 C257.788,266.470 257.893,266.202 258.057,266.008 C258.281,265.744 258.669,265.606 259.212,265.606 C259.697,265.606 260.063,265.675 260.315,265.813 C260.563,265.943 260.686,266.194 260.694,266.565 C260.694,266.858 260.532,267.075 260.205,267.213 C260.020,267.290 259.721,267.355 259.296,267.411 L258.520,267.506 C257.637,267.619 256.967,267.800 256.512,268.064 C255.683,268.543 255.267,269.316 255.267,270.383 C255.267,271.208 255.523,271.843 256.040,272.296 C256.555,272.741 257.208,272.966 257.999,272.966 C258.621,272.966 259.177,272.828 259.666,272.542 C260.078,272.305 260.440,272.016 260.757,271.670 C260.769,271.869 260.791,272.041 260.819,272.197 C260.845,272.352 260.888,272.516 260.959,272.694 L263.431,272.694 L263.431,272.361 ZM272.700,231.163 C271.959,229.383 270.584,228.493 268.580,228.493 C267.279,228.493 266.223,228.932 265.408,229.809 C264.592,230.683 264.185,231.830 264.185,233.244 C264.185,234.611 264.592,235.654 265.404,236.380 C266.214,237.105 267.145,237.468 268.192,237.468 C268.899,237.468 269.494,237.321 269.976,237.030 C270.248,236.872 270.502,236.645 270.726,236.341 C270.675,237.345 270.562,238.105 270.373,238.626 C270.028,239.574 269.425,240.046 268.576,240.046 C268.134,240.046 267.776,239.928 267.512,239.684 C267.249,239.440 267.085,239.126 267.022,238.738 L264.446,238.738 C264.559,239.857 265.014,240.709 265.801,241.299 C266.585,241.887 267.473,242.178 268.462,242.178 C270.528,242.178 271.950,241.165 272.726,239.131 C273.135,238.064 273.338,236.734 273.338,235.138 C273.338,233.497 273.126,232.169 272.700,231.163 ZM340.519,170.859 C338.821,167.927 336.520,165.398 333.702,163.541 C330.280,161.284 326.212,159.954 321.825,159.954 C316.710,159.954 312.069,161.811 308.354,164.787 C304.773,162.204 300.417,160.639 295.685,160.639 C283.676,160.639 273.906,170.429 273.906,182.464 C273.906,184.283 274.191,186.025 274.617,187.714 C275.350,190.664 276.682,193.348 278.478,195.687 C282.465,200.880 288.653,204.290 295.685,204.290 C300.848,204.290 305.536,202.400 309.277,199.375 C312.819,201.919 317.137,203.450 321.825,203.450 C333.788,203.450 343.518,193.694 343.518,181.704 C343.518,177.737 342.380,174.066 340.519,170.859 ZM339.545,232.029 C339.898,231.083 340.497,230.610 341.342,230.610 C341.902,230.610 342.324,230.817 342.605,231.227 C342.768,231.480 342.850,231.716 342.850,231.927 L345.427,231.927 C345.336,230.882 344.931,230.046 344.199,229.418 C343.475,228.791 342.496,228.476 341.277,228.476 C340.428,228.476 339.696,228.671 339.088,229.062 C338.485,229.450 337.993,229.962 337.614,230.599 C337.179,231.348 336.882,232.281 336.735,233.404 C336.649,234.037 336.606,234.855 336.606,235.862 C336.606,237.583 336.907,238.980 337.524,240.068 C338.312,241.457 339.532,242.152 341.191,242.152 C342.734,242.152 343.871,241.684 344.604,240.742 C345.336,239.798 345.707,238.716 345.707,237.481 C345.707,236.248 345.328,235.231 344.587,234.434 C343.837,233.637 342.880,233.240 341.712,233.240 C341.170,233.240 340.682,233.328 340.260,233.505 C339.838,233.678 339.467,233.961 339.144,234.341 C339.217,233.320 339.351,232.549 339.545,232.029 ZM341.139,235.309 C341.682,235.309 342.143,235.514 342.518,235.924 C342.893,236.332 343.083,236.924 343.083,237.693 C343.083,238.388 342.923,238.950 342.587,239.383 C342.259,239.816 341.803,240.034 341.230,240.034 C340.644,240.034 340.157,239.811 339.777,239.360 C339.394,238.915 339.205,238.334 339.205,237.624 C339.205,236.743 339.459,236.105 339.967,235.713 C340.303,235.442 340.700,235.309 341.139,235.309 ZM317.266,184.486 L315.060,184.486 L312.853,184.486 L305.864,184.486 L304.825,184.486 L302.619,184.486 L300.412,184.486 C300.503,185.192 300.572,185.900 300.731,186.587 C300.792,186.861 300.904,187.118 300.977,187.386 L303.270,187.386 L305.575,187.386 L312.259,187.386 L314.560,187.386 L316.852,187.386 L319.304,187.386 C318.943,188.559 318.481,189.677 317.913,190.744 L315.814,190.744 L313.371,190.744 L310.862,190.744 L307.152,190.744 L304.644,190.744 L302.149,190.744 C302.563,191.646 303.028,192.512 303.545,193.339 L306.238,193.339 L309.096,193.339 L309.122,193.339 L311.953,193.339 L314.439,193.339 L316.236,193.339 C315.314,194.542 314.241,195.605 313.056,196.551 C313.000,196.594 312.966,196.652 312.910,196.695 L312.052,196.695 L309.466,196.695 L309.078,196.695 L306.174,196.695 L305.614,196.695 C302.796,198.682 299.382,199.868 295.685,199.868 C290.514,199.868 285.921,197.551 282.736,193.946 C280.775,191.726 279.327,189.049 278.703,186.042 C278.466,184.887 278.328,183.693 278.328,182.464 C278.328,172.868 286.119,165.061 295.694,165.061 C299.193,165.061 302.451,166.128 305.183,167.922 C304.972,168.179 304.752,168.421 304.554,168.687 L306.174,168.687 L307.385,168.687 L309.600,168.687 L310.535,168.687 L312.431,168.687 L314.866,168.687 C315.439,169.276 315.866,169.981 316.348,170.643 C316.689,171.121 317.102,171.544 317.413,172.049 L314.698,172.049 L312.910,172.049 L312.207,172.049 L309.510,172.049 L307.484,172.049 L304.976,172.049 L302.485,172.049 C302.016,172.982 301.636,173.945 301.305,174.949 L303.597,174.949 L305.821,174.949 L305.907,174.949 L311.272,174.949 L313.750,174.949 L316.046,174.949 L318.878,174.949 C319.300,176.025 319.636,177.143 319.860,178.307 L317.042,178.307 L314.792,178.307 L312.491,178.307 L304.881,178.307 L302.675,178.307 L300.468,178.307 C300.322,179.232 300.210,180.169 300.184,181.128 L302.391,181.128 L304.597,181.128 L312.918,181.128 L314.069,181.128 L315.124,181.128 L317.331,181.128 L320.153,181.128 C320.162,181.376 320.227,181.607 320.227,181.853 C320.227,182.756 320.084,183.620 319.964,184.486 L317.266,184.486 ZM269.761,235.050 C269.442,235.257 269.110,235.358 268.752,235.358 C268.095,235.358 267.604,235.160 267.287,234.771 C266.971,234.380 266.811,233.793 266.811,233.011 C266.811,232.083 267.063,231.422 267.557,231.033 C267.869,230.785 268.248,230.662 268.690,230.662 C269.296,230.662 269.770,230.877 270.123,231.320 C270.468,231.754 270.640,232.346 270.640,233.093 C270.640,234.017 270.347,234.674 269.761,235.050 ZM258.656,271.307 C258.343,271.307 258.074,271.221 257.857,271.048 C257.641,270.875 257.531,270.599 257.531,270.210 C257.531,269.774 257.712,269.450 258.070,269.243 C258.281,269.122 258.630,269.014 259.115,268.932 L259.628,268.832 C259.882,268.785 260.091,268.733 260.236,268.681 C260.386,268.625 260.532,268.552 260.677,268.461 L260.677,269.308 C260.664,270.072 260.449,270.590 260.029,270.879 C259.608,271.169 259.150,271.307 258.656,271.307 ZM258.365,240.016 C257.775,240.016 257.305,239.839 256.971,239.481 C256.635,239.122 256.467,238.617 256.467,237.967 C256.467,237.291 256.635,236.782 256.980,236.434 C257.324,236.084 257.783,235.911 258.365,235.911 C258.947,235.911 259.406,236.084 259.751,236.434 C260.091,236.782 260.263,237.296 260.263,237.967 C260.263,238.617 260.095,239.122 259.759,239.481 C259.423,239.839 258.955,240.016 258.365,240.016 ZM258.361,233.927 C257.839,233.927 257.430,233.776 257.139,233.469 C256.842,233.164 256.697,232.771 256.697,232.294 C256.697,231.772 256.842,231.366 257.139,231.068 C257.430,230.772 257.839,230.627 258.361,230.627 C258.887,230.627 259.296,230.772 259.582,231.068 C259.869,231.366 260.016,231.772 260.016,232.294 C260.016,232.776 259.869,233.164 259.582,233.469 C259.296,233.776 258.891,233.927 258.361,233.927 ZM227.380,235.309 C227.927,235.309 228.386,235.514 228.760,235.924 C229.135,236.332 229.325,236.924 229.325,237.693 C229.325,238.388 229.162,238.950 228.832,239.383 C228.500,239.816 228.045,240.034 227.472,240.034 C226.884,240.034 226.399,239.811 226.020,239.360 C225.636,238.915 225.447,238.334 225.447,237.624 C225.447,236.743 225.703,236.105 226.209,235.713 C226.546,235.442 226.938,235.309 227.380,235.309 ZM207.284,231.245 L207.284,236.932 L203.997,236.932 L207.284,231.245 ZM193.287,265.632 C193.826,265.632 194.271,265.788 194.634,266.099 C194.996,266.414 195.198,266.867 195.237,267.476 L191.328,267.476 C191.412,266.911 191.611,266.457 191.932,266.124 C192.255,265.796 192.705,265.632 193.287,265.632 ZM156.512,238.807 C156.268,239.613 155.767,240.016 154.999,240.016 C154.230,240.016 153.719,239.613 153.472,238.807 C153.349,238.423 153.261,237.941 153.207,237.384 C153.140,236.792 153.105,236.110 153.105,235.328 C153.105,233.741 153.224,232.564 153.476,231.797 C153.728,231.033 154.234,230.653 155.004,230.653 C155.775,230.653 156.277,231.033 156.516,231.797 C156.755,232.560 156.874,233.741 156.874,235.328 C156.874,235.540 156.852,235.695 156.848,235.894 C156.815,237.110 156.719,238.118 156.512,238.807 ZM169.354,268.932 L169.869,268.832 C170.125,268.785 170.331,268.733 170.478,268.681 C170.629,268.625 170.773,268.552 170.920,268.461 L170.920,269.308 C170.907,270.072 170.689,270.595 170.271,270.879 C169.851,271.169 169.392,271.307 168.899,271.307 C168.584,271.307 168.315,271.221 168.095,271.048 C167.880,270.875 167.768,270.599 167.768,270.210 C167.768,269.774 167.949,269.450 168.306,269.243 C168.520,269.122 168.866,269.014 169.354,268.932 ZM221.034,268.932 L221.549,268.832 C221.806,268.785 222.014,268.733 222.159,268.681 C222.310,268.625 222.454,268.552 222.600,268.461 L222.600,269.308 C222.588,270.072 222.370,270.590 221.952,270.879 C221.532,271.169 221.073,271.307 220.579,271.307 C220.267,271.307 219.998,271.221 219.780,271.048 C219.565,270.875 219.455,270.599 219.455,270.210 C219.455,269.774 219.636,269.450 219.993,269.243 C220.200,269.122 220.549,269.014 221.034,268.932 ZM283.051,265.632 C283.585,265.632 284.033,265.788 284.395,266.099 C284.757,266.414 284.960,266.867 284.999,267.476 L281.090,267.476 C281.172,266.911 281.370,266.457 281.697,266.124 C282.016,265.796 282.465,265.632 283.051,265.632 ZM321.041,236.932 L317.757,236.932 L321.041,231.245 L321.041,236.932 Z" class="cls-3"/>
  <path d="M126.500,375.000 L375.500,125.031 L500.000,250.000 L352.500,398.000 L148.500,398.000 L126.500,375.000 Z" class="cls-2"/>
</svg>
