<svg xmlns="http://www.w3.org/2000/svg" xmlns:xlink="http://www.w3.org/1999/xlink" preserveAspectRatio="xMidYMid" width="64" height="64" viewBox="0 0 500 500">
  <defs>
    <style>
      .cls-1 {
        fill: #fff;
        fill-rule: evenodd;
      }
    </style>
  </defs>
  <path d="M411.379,190.467 L249.065,72.537 L86.750,190.467 L35.921,190.467 L249.065,35.620 L462.209,190.467 L411.379,190.467 ZM137.761,253.139 C137.761,191.730 187.591,141.915 249.065,141.915 C310.538,141.915 360.368,191.716 360.368,253.139 C360.368,314.569 310.538,364.384 249.065,364.384 C187.591,364.384 137.761,314.569 137.761,253.139 ZM280.579,314.735 C291.735,307.497 297.328,295.292 297.328,278.151 C297.328,266.252 292.970,257.293 284.283,251.233 C278.928,247.558 268.769,243.611 253.782,239.416 L253.782,192.299 C262.706,192.639 269.186,196.050 273.251,202.568 C275.431,206.104 276.762,210.349 277.207,215.251 L294.150,215.251 C293.831,204.329 290.223,195.551 283.354,188.880 C276.485,182.188 266.605,178.409 253.770,177.529 L253.770,164.833 L244.576,164.833 L244.576,177.688 C231.587,177.827 221.500,181.822 214.311,189.733 C207.102,197.582 203.507,206.431 203.507,216.214 C203.507,227.163 206.845,235.741 213.527,241.947 C220.222,248.154 230.567,252.542 244.576,255.212 L244.576,307.940 C233.647,307.052 226.162,302.975 222.138,295.680 C219.847,291.603 218.460,285.141 217.933,276.293 L200.809,276.293 C200.809,287.415 202.641,296.207 206.325,302.725 C213.028,314.791 225.787,321.448 244.576,322.641 L244.576,341.418 L253.770,341.418 L253.770,322.641 C265.438,321.364 274.389,318.689 280.579,314.735 ZM253.755,257.543 C261.804,259.734 267.563,262.064 270.990,264.477 C276.928,268.706 279.898,274.823 279.884,282.893 C279.884,287.928 278.774,292.463 276.596,296.346 C272.405,303.891 264.800,307.913 253.755,308.426 L253.755,257.543 ZM220.930,215.064 C220.930,209.765 222.734,204.711 226.342,199.884 C229.964,195.010 236.049,192.458 244.562,192.119 L244.562,237.600 C237.325,236.212 231.587,233.696 227.307,230.062 C223.060,226.456 220.930,221.443 220.930,215.064 ZM408.395,407.570 L89.734,407.570 L89.734,375.146 L408.395,375.146 L408.395,407.570 ZM453.939,458.274 L44.205,458.274 L44.205,425.850 L453.939,425.850 L453.939,458.274 Z" class="cls-1"/>
</svg>
