<svg xmlns="http://www.w3.org/2000/svg" xmlns:xlink="http://www.w3.org/1999/xlink" preserveAspectRatio="xMidYMid" width="50" height="50" viewBox="0 0 500 500">
  <defs>
    <style>
      .cls-1 {
        fill: #2c3e50;
      }

      .cls-2 {
        fill: #fffefe;
        fill-rule: evenodd;
      }
    </style>
  </defs>
  <circle cx="250" cy="250.938" r="250" class="cls-1"/>
  <path d="M382.000,369.848 C382.000,405.221 353.218,434.000 317.839,434.000 C282.461,434.000 253.678,405.221 253.678,369.848 C253.678,342.877 270.417,319.756 294.045,310.284 C289.609,304.934 286.939,298.071 286.939,290.594 C286.939,281.470 290.919,273.258 297.230,267.598 C290.919,261.937 286.939,253.725 286.939,244.600 C286.939,230.292 296.715,218.229 309.938,214.729 L309.938,192.157 C309.938,189.556 307.820,187.439 305.217,187.439 C286.861,187.439 271.927,172.506 271.927,154.152 C271.927,135.798 286.862,120.865 305.217,120.865 C306.858,120.872 322.003,121.087 330.765,132.673 C333.778,136.657 335.062,135.980 337.459,134.206 C340.965,131.611 345.913,132.345 348.511,135.850 C351.108,139.356 350.371,144.304 346.865,146.901 C336.922,154.265 325.923,152.467 318.160,142.203 C314.765,137.714 307.665,136.683 305.215,136.665 C295.574,136.665 287.730,144.509 287.730,154.151 C287.730,170.818 305.759,171.652 306.026,171.678 C316.965,172.108 325.740,181.115 325.740,192.156 L325.740,214.728 C338.962,218.229 348.738,230.292 348.738,244.599 C348.738,253.724 344.758,261.936 338.447,267.596 C344.759,273.257 348.738,281.469 348.738,290.593 C348.738,298.069 346.068,304.933 341.633,310.283 C365.260,319.755 381.999,342.877 382.000,369.848 ZM317.869,229.504 C317.858,229.504 317.849,229.505 317.838,229.505 C317.828,229.505 317.818,229.504 317.808,229.504 C309.497,229.521 302.740,236.284 302.740,244.599 C302.740,252.923 309.513,259.696 317.838,259.696 C326.163,259.696 332.936,252.923 332.936,244.599 C332.936,236.286 326.180,229.521 317.869,229.504 ZM317.838,275.497 C309.513,275.497 302.740,282.269 302.740,290.593 C302.740,298.917 309.513,305.690 317.838,305.690 C326.163,305.690 332.936,298.917 332.936,290.593 C332.936,282.269 326.163,275.497 317.838,275.497 ZM317.838,321.491 C291.173,321.491 269.479,343.182 269.479,369.847 C269.479,396.508 291.172,418.198 317.838,418.198 C344.503,418.198 366.197,396.509 366.197,369.847 C366.197,343.183 344.503,321.491 317.838,321.491 ZM182.161,380.135 C146.783,380.135 118.000,351.356 118.000,315.982 C118.000,289.011 134.739,265.890 158.367,256.418 C153.931,251.068 151.260,244.205 151.260,236.729 C151.260,227.604 155.241,219.392 161.552,213.731 C155.241,208.071 151.260,199.859 151.260,190.734 C151.260,176.428 161.037,164.366 174.260,160.865 L174.260,138.291 C174.260,135.689 172.142,133.573 169.539,133.573 C151.183,133.573 136.249,118.641 136.249,100.287 C136.249,81.933 151.183,67.000 169.538,67.000 C171.162,67.008 186.323,67.222 195.087,78.808 C198.100,82.791 199.386,82.114 201.782,80.340 C205.289,77.743 210.235,78.481 212.834,81.986 C215.431,85.492 214.694,90.440 211.187,93.037 C201.244,100.404 190.245,98.603 182.483,88.338 C178.437,82.991 169.706,82.801 169.592,82.801 L169.591,82.801 C159.896,82.801 152.052,90.645 152.052,100.287 C152.052,117.794 170.081,117.785 170.348,117.812 C181.287,118.243 190.062,127.248 190.062,138.290 L190.062,160.864 C203.284,164.365 213.060,176.427 213.060,190.733 C213.060,199.858 209.081,208.070 202.769,213.730 C209.081,219.391 213.060,227.602 213.060,236.728 C213.060,244.203 210.390,251.067 205.955,256.417 C229.582,265.890 246.321,289.011 246.322,315.982 C246.322,351.356 217.540,380.135 182.161,380.135 ZM182.191,175.639 C182.180,175.639 182.171,175.640 182.160,175.640 C182.150,175.640 182.140,175.639 182.130,175.639 C173.819,175.656 167.062,182.418 167.062,190.733 C167.062,199.057 173.835,205.830 182.161,205.830 C190.486,205.830 197.259,199.057 197.259,190.733 C197.259,182.420 190.502,175.656 182.191,175.639 ZM167.062,236.728 C167.062,245.052 173.835,251.824 182.160,251.824 C190.485,251.824 197.258,245.052 197.258,236.728 C197.258,228.404 190.485,221.631 182.160,221.631 C173.835,221.631 167.062,228.404 167.062,236.728 ZM182.160,267.626 C155.496,267.626 133.801,289.317 133.801,315.982 C133.801,342.643 155.494,364.334 182.160,364.334 C208.825,364.334 230.519,342.643 230.519,315.982 C230.519,289.318 208.825,267.626 182.160,267.626 Z" class="cls-2"/>
</svg>
