<svg xmlns="http://www.w3.org/2000/svg" xmlns:xlink="http://www.w3.org/1999/xlink" preserveAspectRatio="xMidYMid" width="50" height="50" viewBox="0 0 500 500">
  <defs>
    <style>
      .cls-1 {
        fill: #2c3e50;
      }

      .cls-2 {
        fill: #fff;
        fill-rule: evenodd;
      }
    </style>
  </defs>
  <circle cx="250" cy="250.938" r="250" class="cls-1"/>
  <path d="M414.474,138.224 C405.823,138.224 405.823,124.813 414.474,124.813 C423.124,124.813 423.124,138.224 414.474,138.224 ZM419.063,163.131 L419.063,201.775 C419.063,203.094 418.681,204.385 417.955,205.485 L399.756,233.082 L399.756,262.565 C399.845,262.999 399.890,263.445 399.890,263.903 L399.890,320.083 C399.890,323.807 396.873,326.826 393.145,326.826 C389.417,326.826 386.396,323.807 386.396,320.083 L386.396,273.817 L383.042,273.817 L379.688,273.817 L379.688,320.083 C379.688,323.807 376.671,326.826 372.943,326.826 C369.215,326.826 366.194,323.807 366.194,320.083 L366.194,263.903 C366.194,263.445 366.243,262.999 366.329,262.565 L366.329,233.222 L358.843,244.578 L358.843,274.061 C358.925,274.495 358.978,274.940 358.978,275.400 L358.978,331.579 C358.978,335.302 355.953,338.322 352.228,338.322 C348.504,338.322 345.480,335.302 345.480,331.579 L345.480,285.313 L342.126,285.313 L338.772,285.313 L338.772,331.579 C338.772,335.302 335.755,338.322 332.027,338.322 C328.299,338.322 325.282,335.302 325.282,331.579 L325.282,275.400 C325.282,274.940 325.326,274.495 325.416,274.061 L325.416,244.578 L322.867,240.714 L322.354,241.490 L322.354,239.935 L322.354,216.980 L322.354,215.426 L322.867,216.204 L326.135,211.247 L326.135,174.626 C326.135,170.901 329.156,167.881 332.880,167.881 C336.608,167.881 339.625,170.901 339.625,174.626 L339.625,193.830 C340.441,193.684 341.272,193.595 342.126,193.595 C343.851,193.595 345.495,193.924 347.018,194.493 L347.018,163.131 C347.018,159.406 350.039,156.386 353.767,156.386 C357.491,156.386 360.512,159.406 360.512,163.131 L360.512,199.756 L364.656,206.037 L364.656,174.628 C364.656,170.903 367.677,167.883 371.405,167.883 C375.129,167.883 378.150,170.903 378.150,174.628 L378.150,182.999 C379.673,182.428 381.317,182.101 383.038,182.101 C390.772,182.101 397.038,188.367 397.038,196.096 C397.038,203.825 390.772,210.089 383.038,210.089 C381.317,210.089 379.677,209.762 378.150,209.193 L378.150,213.270 C378.150,214.089 377.985,214.892 377.693,215.654 L383.042,215.654 L395.084,215.654 L405.572,199.752 L405.572,163.131 C405.572,159.406 408.589,156.386 412.318,156.386 C416.046,156.386 419.066,159.408 419.063,163.131 ZM354.194,214.670 C351.761,218.803 347.277,221.585 342.133,221.585 C340.059,221.585 338.098,221.123 336.324,220.312 L331.817,227.151 L342.133,227.151 L354.175,227.151 L358.300,220.896 L354.194,214.670 ZM385.314,104.097 C374.238,105.218 380.935,123.810 380.538,131.040 C380.175,137.721 375.986,143.856 369.735,146.103 C364.001,148.161 359.603,139.637 365.423,137.547 C376.855,133.440 367.358,116.403 369.930,107.608 C371.861,101.006 376.099,95.459 383.316,94.729 C389.394,94.114 391.465,103.474 385.314,104.097 ZM337.814,123.855 C329.163,123.855 329.163,110.444 337.814,110.444 C346.464,110.444 346.464,123.855 337.814,123.855 ZM313.711,338.322 C309.983,338.322 306.963,335.302 306.963,331.579 L306.963,285.313 L303.609,285.313 L300.255,285.313 L300.255,331.579 C300.255,335.302 297.238,338.322 293.509,338.322 C293.259,338.322 293.019,338.273 292.776,338.247 L292.776,337.921 C292.776,336.971 292.705,336.009 292.566,335.055 L292.566,293.249 L319.060,253.066 C319.539,252.340 319.944,251.582 320.326,250.808 L320.326,274.061 C320.408,274.495 320.460,274.940 320.460,275.400 L320.460,331.579 C320.460,335.302 317.440,338.322 313.711,338.322 ZM298.735,135.352 C301.801,140.718 292.918,144.348 289.893,139.061 C286.600,133.298 287.393,125.913 291.451,120.590 C295.845,114.835 313.011,105.033 305.312,96.993 C301.037,92.531 308.692,86.751 312.918,91.167 C317.934,96.404 317.555,103.371 314.737,109.649 C310.983,118.012 292.701,124.809 298.735,135.352 ZM222.400,323.395 L217.128,329.839 L217.128,289.560 L222.400,295.124 L222.400,323.395 ZM291.956,227.151 L291.956,215.339 L291.956,199.844 L291.956,179.414 L291.956,168.650 C291.956,162.905 296.616,158.246 302.366,158.246 C307.861,158.246 312.345,162.502 312.734,167.893 C312.757,168.145 312.772,168.396 312.772,168.650 L312.772,197.032 L312.772,218.155 L312.772,225.405 L312.772,227.153 L312.772,242.072 C312.772,244.106 312.180,246.096 311.057,247.795 L286.764,284.643 L282.984,290.379 L282.984,335.863 C283.119,336.529 283.193,337.218 283.193,337.925 L283.193,424.605 C283.193,430.349 278.529,435.011 272.784,435.011 C267.038,435.011 262.374,430.349 262.374,424.605 L262.374,353.222 L237.272,353.222 L219.726,374.660 L239.041,392.480 C243.265,396.382 243.529,402.965 239.629,407.186 C237.579,409.409 234.783,410.535 231.979,410.535 C229.455,410.535 226.922,409.625 224.922,407.777 L198.401,383.304 C194.353,379.562 193.919,373.328 197.406,369.062 L219.200,342.431 L230.623,328.477 L231.983,326.815 L231.983,291.319 L231.983,291.304 L217.263,275.775 L212.318,270.554 L197.905,255.341 C195.485,252.786 194.520,249.178 195.341,245.754 L200.342,224.919 L201.021,222.090 L201.461,220.262 C202.596,215.534 206.795,212.344 211.448,212.292 C211.487,212.292 211.527,212.280 211.566,212.280 C212.307,212.280 213.059,212.372 213.812,212.538 C213.879,212.553 213.945,212.559 214.012,212.574 C216.834,213.253 219.107,215.023 220.497,217.328 C221.057,218.256 221.465,219.276 221.714,220.344 C221.976,221.469 222.054,222.645 221.921,223.839 C221.906,223.976 221.882,224.109 221.869,224.243 C221.830,224.516 221.779,224.790 221.715,225.065 C221.710,225.084 221.708,225.104 221.704,225.123 L220.351,230.758 L216.902,245.125 L234.298,263.484 L248.393,263.484 L250.689,263.484 L275.782,263.484 L286.895,246.623 L291.956,238.949 L291.956,227.151 ZM276.486,109.486 C267.835,109.486 267.835,96.075 276.486,96.075 C285.136,96.075 285.136,109.486 276.486,109.486 ZM264.028,143.972 C255.378,143.972 255.378,130.561 264.028,130.561 C272.679,130.561 272.679,143.972 264.028,143.972 ZM263.250,173.891 C264.912,173.891 266.409,174.512 267.588,175.510 L267.588,174.626 C267.588,170.901 270.609,167.881 274.337,167.881 C278.061,167.881 281.082,170.901 281.082,174.626 L281.082,206.097 C278.058,202.474 274.274,199.526 269.995,197.428 C269.209,197.045 268.408,196.680 267.588,196.356 C264.133,194.990 260.405,194.193 256.503,194.053 L256.503,180.634 C256.503,176.911 259.523,173.891 263.250,173.891 ZM262.954,204.843 C264.586,205.393 266.132,206.119 267.592,206.989 C268.423,207.490 269.231,208.035 269.995,208.632 C274.270,211.953 277.384,216.681 278.649,222.127 C279.057,223.879 279.293,225.695 279.293,227.570 C279.293,229.198 279.128,230.788 278.821,232.326 C278.402,234.403 277.698,236.369 276.781,238.214 C272.855,246.121 264.717,251.571 255.290,251.571 C253.716,251.571 252.181,251.408 250.689,251.118 C248.226,250.641 245.896,249.792 243.765,248.624 C237.907,245.412 233.555,239.821 231.963,233.159 C231.706,232.087 231.506,230.992 231.397,229.868 C231.324,229.110 231.281,228.346 231.281,227.570 C231.281,227.488 231.293,227.409 231.293,227.329 C231.300,226.670 231.334,226.017 231.392,225.370 C231.412,225.235 231.414,225.099 231.429,224.962 C232.239,217.480 236.497,211.045 242.576,207.238 C243.514,206.652 244.487,206.123 245.505,205.670 C248.494,204.332 251.801,203.571 255.290,203.571 C255.700,203.571 256.100,203.612 256.505,203.632 C258.749,203.747 260.914,204.156 262.954,204.843 ZM231.493,169.573 L231.493,180.567 C232.666,179.573 234.169,178.948 235.831,178.948 C239.557,178.948 242.576,181.968 242.576,185.692 L242.576,196.508 C240.394,197.404 238.322,198.515 236.396,199.831 C234.635,201.034 232.992,202.396 231.493,203.904 C230.637,204.761 229.842,205.676 229.082,206.622 C228.268,207.636 227.525,208.710 226.831,209.820 C225.545,208.293 224.031,206.953 222.318,205.861 C220.986,205.010 219.546,204.302 217.999,203.778 L217.999,169.573 C217.999,165.848 221.016,162.828 224.744,162.828 C228.472,162.828 231.493,165.848 231.493,169.573 ZM243.430,130.306 C236.791,130.265 230.798,125.870 228.232,119.688 C225.457,113.002 225.594,93.240 214.770,95.861 C208.764,97.317 207.604,87.801 213.548,86.360 C220.595,84.652 226.432,88.476 230.449,94.063 C235.801,101.504 232.503,120.727 244.656,120.803 C250.839,120.843 249.522,130.344 243.430,130.306 ZM213.322,148.956 C219.318,150.459 215.788,159.378 209.878,157.898 C203.436,156.287 198.656,150.597 197.627,143.983 C196.516,136.830 201.328,117.664 190.196,117.647 C184.016,117.640 185.145,108.120 191.259,108.127 C198.512,108.137 203.277,113.235 205.856,119.614 C209.288,128.110 201.532,146.004 213.322,148.956 ZM192.974,169.573 L192.974,188.777 C193.786,188.629 194.619,188.541 195.472,188.541 C196.322,188.541 197.149,188.629 197.958,188.775 L197.958,180.636 C197.958,176.915 200.977,173.893 204.703,173.893 C208.429,173.893 211.450,176.911 211.450,180.636 L211.450,202.710 C210.774,202.714 210.112,202.757 209.455,202.826 C205.066,203.288 201.057,205.154 197.956,208.042 C195.588,210.250 193.749,213.046 192.663,216.247 C191.613,216.033 190.614,215.691 189.663,215.257 L185.152,222.094 L191.166,222.094 L186.021,243.522 C184.436,250.123 186.277,257.004 190.947,261.933 L212.320,284.486 L212.320,326.523 C212.320,330.247 209.301,333.266 205.573,333.266 C201.845,333.266 198.824,330.247 198.824,326.523 L198.824,280.257 L195.480,280.257 L192.126,280.257 L192.126,326.523 C192.126,330.247 189.103,333.266 185.377,333.266 C181.651,333.266 178.632,330.247 178.632,326.523 L178.632,270.343 C178.632,269.885 178.678,269.439 178.765,269.005 L178.765,239.522 L176.217,235.656 L173.670,239.522 L173.670,269.005 C173.758,269.439 173.805,269.885 173.805,270.343 L173.805,326.523 C173.805,330.247 170.784,333.266 167.060,333.266 C163.333,333.266 160.313,330.247 160.313,326.523 L160.313,280.257 L156.959,280.257 L153.605,280.257 L153.605,326.523 C153.605,330.247 150.584,333.266 146.860,333.266 C143.132,333.266 140.111,330.247 140.111,326.523 L140.111,270.343 C140.111,269.885 140.159,269.439 140.246,269.005 L140.246,239.522 L132.757,228.165 L132.757,257.510 C132.843,257.944 132.892,258.389 132.892,258.848 L132.892,315.028 C132.892,318.751 129.871,321.771 126.143,321.771 C122.417,321.771 119.396,318.751 119.396,315.028 L119.396,268.762 L116.042,268.762 L112.688,268.762 L112.688,315.028 C112.688,318.755 109.666,321.771 105.939,321.771 C102.215,321.771 99.194,318.755 99.194,315.028 L99.194,258.849 C99.194,258.391 99.241,257.944 99.329,257.511 L99.329,228.028 L81.133,200.431 C80.407,199.329 80.020,198.040 80.020,196.721 L80.020,158.077 C80.020,154.352 83.039,151.333 86.765,151.333 C90.491,151.333 93.512,154.352 93.512,158.077 L93.512,194.695 L103.997,210.596 L116.040,210.596 L121.387,210.596 C121.099,209.838 120.933,209.034 120.933,208.214 L120.933,204.137 C119.407,204.708 117.762,205.034 116.040,205.034 C108.309,205.034 102.041,198.768 102.041,191.039 C102.041,183.312 108.309,177.045 116.040,177.045 C117.764,177.045 119.407,177.373 120.933,177.942 L120.933,169.573 C120.933,165.848 123.954,162.828 127.680,162.828 C131.404,162.828 134.425,165.848 134.425,169.573 L134.425,200.979 L138.567,194.697 L138.567,158.077 C138.567,154.352 141.586,151.333 145.312,151.333 C149.040,151.333 152.061,154.352 152.061,158.077 L152.061,189.437 C153.586,188.867 155.231,188.541 156.953,188.541 C157.809,188.541 158.640,188.631 159.452,188.777 L159.452,169.573 C159.452,165.848 162.473,162.828 166.199,162.828 C169.925,162.828 172.944,165.848 172.944,169.573 L172.944,206.192 L176.212,211.148 L179.480,206.192 L179.480,169.573 C179.480,165.848 182.500,162.828 186.226,162.828 C189.953,162.828 192.974,165.848 192.974,169.573 ZM162.759,215.257 C160.986,216.065 159.025,216.529 156.950,216.529 C151.806,216.529 147.324,213.747 144.889,209.614 L140.785,215.841 L144.906,222.094 L156.950,222.094 L167.268,222.094 L162.759,215.257 ZM160.537,145.888 C151.887,145.888 151.887,132.477 160.537,132.477 C169.188,132.477 169.188,145.888 160.537,145.888 ZM127.244,140.202 C134.607,130.536 117.371,121.400 114.749,112.620 C112.780,106.030 113.319,99.070 118.977,94.538 C123.748,90.716 130.575,97.448 125.752,101.311 C117.066,108.273 132.797,120.238 136.396,126.521 C139.721,132.331 139.542,139.757 135.518,145.037 C131.823,149.881 123.495,145.117 127.244,140.202 ZM96.334,126.729 C87.684,126.729 87.684,113.318 96.334,113.318 C104.985,113.318 104.985,126.729 96.334,126.729 Z" class="cls-2"/>
</svg>
