<svg xmlns="http://www.w3.org/2000/svg" xmlns:xlink="http://www.w3.org/1999/xlink" preserveAspectRatio="xMidYMid" width="50" height="50" viewBox="0 0 500 500">
  <defs>
    <style>
      .cls-1 {
        fill: #2c3e50;
      }

      .cls-2 {
        fill: #fff;
        fill-rule: evenodd;
      }
    </style>
  </defs>
  <circle cx="250" cy="250.938" r="250" class="cls-1"/>
  <path d="M351.789,104.759 C350.631,104.759 349.616,104.323 348.543,104.110 L320.250,154.924 L373.971,154.924 L274.742,303.893 L266.006,303.893 L266.006,433.944 C298.646,434.861 322.860,438.318 322.860,442.437 C322.860,447.276 289.444,451.183 248.184,451.183 C206.907,451.183 173.457,447.276 173.457,442.437 C173.457,438.318 197.714,434.861 230.361,433.959 L230.361,303.907 L221.633,303.907 L144.352,187.878 C143.314,188.202 142.369,188.498 141.177,188.781 C116.651,194.551 92.027,179.315 86.248,154.797 C80.470,130.280 95.732,105.662 120.251,99.907 C144.755,94.123 169.392,109.358 175.158,133.877 C176.893,141.226 176.837,148.308 175.263,154.924 L310.781,154.924 L340.979,100.697 C337.014,97.480 334.319,92.796 334.319,87.296 C334.319,77.646 342.136,69.817 351.789,69.817 C361.442,69.817 369.286,77.646 369.286,87.296 C369.286,96.944 361.442,104.759 351.789,104.759 ZM136.620,182.305 L134.425,172.981 L125.768,160.003 L114.034,178.975 C120.843,182.278 128.688,183.560 136.620,182.305 ZM107.867,175.266 L123.711,149.678 L94.257,156.602 C96.811,164.290 101.680,170.681 107.867,175.266 ZM154.279,113.985 L138.962,138.701 L134.023,139.871 L132.851,134.920 L148.212,110.119 C141.552,106.720 133.903,105.211 126.086,106.170 L132.851,134.920 L130.163,139.237 L125.859,136.571 L119.050,107.709 C111.423,110.134 104.960,114.761 100.324,120.757 L125.846,136.571 L126.996,141.523 L122.057,142.665 L96.466,126.808 C92.966,133.664 91.476,141.579 92.592,149.605 L122.070,142.665 L126.389,145.359 L123.732,149.659 L128.661,148.519 L129.831,153.470 L128.922,154.924 L130.163,154.924 L129.831,153.470 L132.491,149.125 L136.823,151.834 L137.565,154.924 L141.855,154.924 L136.823,151.834 L135.653,146.854 L140.595,145.716 L136.287,143.032 L138.962,138.701 L167.155,132.071 C164.686,124.692 160.101,118.499 154.279,113.985 ZM168.800,139.081 L140.629,145.722 L155.522,154.938 L167.615,154.938 C169.076,149.901 169.569,144.527 168.800,139.081 ZM290.207,208.784 L280.753,208.813 L301.552,171.471 L153.327,171.471 L230.488,287.331 L265.865,287.331 L343.039,171.471 L311.007,171.471 L290.207,208.784 ZM262.605,284.116 L234.841,284.116 L182.327,208.869 L280.753,208.827 L245.008,272.942 L252.220,276.949 L290.207,208.784 L314.012,208.784 L262.605,284.116 ZM213.716,217.192 C210.923,217.192 208.630,219.449 208.630,222.270 C208.630,225.078 210.923,227.349 213.716,227.349 C216.518,227.349 218.797,225.064 218.797,222.270 C218.797,219.449 216.518,217.192 213.716,217.192 ZM255.296,241.626 C260.390,241.626 264.524,237.491 264.524,232.427 C264.524,227.320 260.390,223.202 255.296,223.202 C250.243,223.202 246.109,227.320 246.109,232.427 C246.109,237.491 250.243,241.626 255.296,241.626 ZM255.296,227.320 C258.118,227.320 260.390,229.605 260.390,232.414 C260.390,235.220 258.118,237.491 255.296,237.491 C252.502,237.491 250.216,235.220 250.216,232.414 C250.216,229.605 252.502,227.320 255.296,227.320 ZM131.955,140.337 L134.023,139.871 L134.496,141.917 L131.955,140.337 ZM130.714,148.011 L128.661,148.519 L128.166,146.460 L130.714,148.011 ZM133.600,147.348 L132.491,149.125 L130.714,148.011 L133.600,147.348 ZM135.181,144.794 L135.653,146.854 L133.600,147.348 L135.181,144.794 ZM126.375,145.345 L127.503,143.568 L128.166,146.460 L126.375,145.345 ZM127.016,141.523 L129.062,141.043 L127.503,143.568 L127.016,141.523 ZM130.178,139.237 L131.955,140.337 L129.062,141.043 L130.178,139.237 ZM136.287,143.018 L135.181,144.794 L134.496,141.917 L136.287,143.018 Z" class="cls-2"/>
</svg>
