<svg xmlns="http://www.w3.org/2000/svg" xmlns:xlink="http://www.w3.org/1999/xlink" preserveAspectRatio="xMidYMid" width="50" height="50" viewBox="0 0 500 500">
  <defs>
    <style>
      .cls-1 {
        fill: #2c3e50;
      }

      .cls-2 {
        fill: #fff;
        fill-rule: evenodd;
      }
    </style>
  </defs>
  <circle cx="250" cy="250.938" r="250" class="cls-1"/>
  <path d="M397.452,158.538 C394.523,129.961 389.861,107.710 382.477,98.962 C352.059,63.006 138.951,60.374 114.752,98.962 C108.833,108.418 104.683,130.592 101.897,158.585 C92.911,159.638 85.909,167.194 85.909,176.443 L85.909,211.452 C85.909,219.239 90.849,225.802 97.747,228.364 C96.113,283.494 97.439,341.024 99.886,369.631 C99.886,391.714 114.744,388.052 114.744,388.052 L128.675,388.052 L128.675,411.896 C128.675,421.345 138.439,429.000 150.465,429.000 C162.507,429.000 172.268,421.345 172.268,411.896 L172.268,388.052 L334.318,388.052 L334.318,411.896 C334.318,421.345 344.067,429.000 356.113,429.000 C368.143,429.000 377.899,421.345 377.899,411.896 L377.899,388.052 L382.477,388.052 C382.477,388.052 399.972,390.444 401.089,380.050 C401.089,351.519 402.885,288.287 401.405,228.603 C408.742,226.310 414.091,219.570 414.091,211.452 L414.091,176.443 C414.091,166.979 406.754,159.292 397.452,158.538 ZM166.799,104.093 L330.434,104.093 L330.434,128.808 L166.799,128.808 L166.799,104.093 ZM169.135,359.898 C156.288,359.898 145.879,349.503 145.879,336.669 C145.879,323.850 156.288,313.463 169.135,313.463 C181.982,313.463 192.402,323.850 192.402,336.669 C192.402,349.503 181.989,359.898 169.135,359.898 ZM329.562,359.898 C316.723,359.898 306.288,349.503 306.288,336.669 C306.288,323.850 316.708,313.463 329.562,313.463 C342.402,313.463 352.814,323.850 352.814,336.669 C352.822,349.503 342.402,359.898 329.562,359.898 ZM359.126,258.264 L138.104,258.264 L138.104,142.519 L359.126,142.519 L359.126,258.264 Z" class="cls-2"/>
</svg>
