<svg xmlns="http://www.w3.org/2000/svg" xmlns:xlink="http://www.w3.org/1999/xlink" preserveAspectRatio="xMidYMid" width="50" height="50" viewBox="0 0 500 500">
  <defs>
    <style>
      .cls-1 {
        fill: #2c3e50;
      }

      .cls-2 {
        fill: #fff;
        fill-rule: evenodd;
      }
    </style>
  </defs>
  <circle cx="250" cy="250.938" r="250" class="cls-1"/>
  <path d="M449.110,293.127 C447.330,333.661 400.073,345.235 370.701,345.791 C357.215,365.018 336.882,379.450 306.223,388.055 L186.410,388.055 C108.993,366.320 96.762,308.005 96.762,227.215 L395.878,227.215 C395.878,235.622 395.688,243.704 395.371,251.602 C406.713,250.348 423.933,250.514 436.164,260.405 C442.486,265.535 449.873,275.361 449.110,293.127 ZM422.344,277.536 C415.434,271.901 401.757,272.742 393.814,274.028 C391.971,291.921 388.635,308.179 383.012,322.611 C400.104,320.245 426.187,313.180 427.110,292.191 C427.570,281.793 423.614,278.569 422.344,277.536 ZM256.988,212.029 C271.205,202.115 274.144,190.604 264.223,170.329 C251.833,145.117 281.189,144.188 281.189,144.188 C281.189,144.188 268.766,149.864 277.773,165.764 C302.602,202.424 256.988,212.029 256.988,212.029 ZM249.458,163.717 C275.549,211.687 218.617,215.872 218.617,215.872 C218.617,215.872 242.278,203.853 223.494,173.711 C172.287,104.536 260.093,82.181 260.093,82.181 C233.286,102.599 228.505,125.199 249.458,163.717 ZM363.679,411.299 L315.692,411.299 C315.023,415.490 311.560,418.761 307.176,418.761 L198.086,418.761 C193.708,418.761 190.245,415.490 189.578,411.299 L141.589,411.299 C133.489,411.299 126.920,404.726 126.920,396.628 L378.374,396.628 C378.374,404.726 371.798,411.299 363.679,411.299 Z" class="cls-2"/>
</svg>
