<svg xmlns="http://www.w3.org/2000/svg" xmlns:xlink="http://www.w3.org/1999/xlink" preserveAspectRatio="xMidYMid" width="50" height="50" viewBox="0 0 500 500">
  <defs>
    <style>
      .cls-1 {
        fill: #2c3e50;
      }

      .cls-2 {
        fill: #fff;
        fill-rule: evenodd;
      }
    </style>
  </defs>
  <circle cx="250" cy="250.938" r="250" class="cls-1"/>
  <path d="M289.845,303.331 L286.368,307.730 L242.930,268.650 L246.740,264.980 L395.697,121.051 C395.697,121.051 401.944,116.855 411.443,125.418 C416.252,129.764 417.711,133.606 417.991,136.342 L289.845,303.331 ZM141.113,339.021 C93.339,337.593 67.601,303.084 90.388,204.545 C108.420,126.652 172.025,69.727 248.157,80.275 C290.285,86.134 325.190,111.071 346.120,145.602 L172.723,321.144 C160.755,324.835 149.882,331.080 141.113,339.021 ZM120.741,260.924 C118.820,274.766 128.469,287.503 142.294,289.413 C156.108,291.355 168.870,281.709 170.791,267.877 C172.723,254.056 163.063,241.308 149.249,239.409 C135.435,237.456 122.663,247.135 120.741,260.924 ZM234.633,177.579 C253.277,180.176 270.493,167.149 273.090,148.510 C275.677,129.882 262.658,112.659 244.014,110.063 C225.359,107.477 208.143,120.493 205.556,139.132 C202.970,157.792 215.978,174.983 234.633,177.579 ZM185.206,183.030 C187.127,169.199 177.478,156.451 163.643,154.562 C149.839,152.609 137.067,162.278 135.156,176.077 C133.235,189.919 142.884,202.667 156.698,204.567 C170.512,206.509 183.285,196.841 185.206,183.030 ZM182.158,336.177 C182.254,336.156 182.319,336.123 182.404,336.102 C183.328,335.898 184.197,335.694 185.120,335.522 L225.821,372.339 C225.467,373.037 223.202,376.621 223.202,376.642 C205.374,406.827 177.338,391.547 167.335,401.022 C162.956,405.153 161.077,410.862 160.133,416.077 C159.703,418.352 157.965,420.219 155.678,420.809 C153.392,421.410 150.966,420.616 149.464,418.802 C116.920,379.228 149.260,343.935 182.158,336.177 ZM148.165,395.571 C148.734,397.363 150.258,398.683 152.104,398.994 C153.950,399.305 155.829,398.575 156.966,397.084 C157.965,395.785 159.092,394.498 160.337,393.328 C166.787,387.212 175.245,386.890 183.435,386.578 C190.862,386.289 198.054,386.010 204.622,381.954 C197.496,380.044 189.800,379.732 181.428,380.462 C168.043,381.664 160.809,376.524 152.512,367.489 C150.365,370.568 148.680,373.959 147.661,377.618 C145.890,383.853 146.330,389.937 148.165,395.571 ZM195.166,321.616 L234.955,277.266 L278.650,316.143 L238.583,360.750 L234.912,364.849 L191.485,325.736 L195.166,321.616 ZM211.481,326.337 L214.036,328.580 C216.129,330.458 219.306,330.222 221.152,328.151 L241.073,305.573 C241.964,304.565 242.404,303.266 242.329,301.904 C242.243,300.562 241.631,299.350 240.633,298.470 L238.068,296.206 C235.975,294.339 232.797,294.575 230.951,296.656 L211.030,319.233 C210.150,320.231 209.699,321.551 209.774,322.893 C209.871,324.234 210.472,325.446 211.481,326.337 Z" class="cls-2"/>
</svg>
