<svg xmlns="http://www.w3.org/2000/svg" xmlns:xlink="http://www.w3.org/1999/xlink" preserveAspectRatio="xMidYMid" width="50" height="50" viewBox="0 0 500 500">
  <defs>
    <style>
      .cls-1 {
        fill: #2c3e50;
      }

      .cls-2 {
        fill: #fff;
        fill-rule: evenodd;
      }
    </style>
  </defs>
  <circle cx="250" cy="250.938" r="250" class="cls-1"/>
  <path d="M363.037,168.089 L348.583,160.485 L334.126,168.089 L336.857,151.969 L325.160,140.553 L341.355,138.205 L348.583,123.550 L355.824,138.205 L371.991,140.553 L360.280,151.969 L363.037,168.089 ZM322.741,125.503 L309.997,116.244 L297.267,125.503 L302.134,110.522 L289.389,101.270 L305.132,101.270 L309.997,86.291 L314.863,101.270 L330.620,101.270 L317.876,110.522 L322.741,125.503 ZM321.765,104.121 L312.756,104.121 L309.982,95.563 L307.197,104.121 L298.187,104.121 L305.485,109.426 L302.727,117.984 L309.969,112.686 L317.253,117.971 L314.466,109.411 L321.765,104.121 ZM284.169,82.251 L279.672,78.977 L275.159,82.251 L276.886,76.946 L272.387,73.673 L277.960,73.673 L279.672,68.374 L281.383,73.673 L286.927,73.673 L282.444,76.946 L284.169,82.251 ZM389.205,294.993 C389.205,297.142 389.007,299.236 388.936,301.343 L388.936,308.105 L388.624,308.105 C382.699,375.568 330.986,426.888 259.644,436.253 C259.644,436.253 255.344,437.441 247.805,436.904 C238.852,435.956 235.811,435.207 235.811,435.207 C166.759,423.451 118.117,373.346 112.374,308.105 L111.795,308.105 L111.795,299.519 L112.007,299.519 C111.965,297.991 111.795,296.520 111.795,294.993 C111.795,223.307 163.760,166.017 238.795,154.170 L238.795,121.690 L262.246,121.690 L262.246,154.388 C336.532,165.642 389.218,222.961 389.205,294.993 ZM246.221,424.229 L246.221,373.318 C246.164,373.318 246.079,373.318 245.995,373.318 C226.291,373.318 208.498,370.828 192.798,367.108 C204.919,386.092 222.486,404.849 246.221,424.229 ZM234.254,426.295 C209.644,404.878 192.049,384.536 180.535,363.826 C156.392,356.669 138.484,347.049 128.357,340.712 C144.256,384.450 183.081,416.633 234.254,426.295 ZM120.365,294.993 C120.365,296.520 120.536,297.991 120.563,299.490 L163.477,299.490 C163.477,299.490 163.477,299.490 163.477,299.463 C163.450,294.539 163.718,289.758 164.156,285.047 C164.184,284.863 164.213,284.681 164.213,284.497 C166.080,264.763 171.766,247.066 179.263,231.364 C150.338,240.516 131.583,253.028 125.967,257.089 C122.388,269.077 120.365,281.752 120.365,294.993 ZM130.805,243.720 C141.879,237.058 160.323,227.650 184.665,220.932 C198.754,195.830 217.028,176.810 230.182,164.482 C183.491,174.809 147.551,204.346 130.805,243.720 ZM246.206,165.105 C237.777,171.710 215.825,190.298 197.974,217.720 C212.430,214.629 228.570,212.663 246.206,212.676 L246.206,165.105 ZM246.235,308.105 L172.431,308.105 C173.675,324.896 178.371,340.938 186.702,356.696 C203.661,361.393 223.689,364.717 246.221,364.675 L246.235,364.675 L246.235,308.105 ZM380.690,294.993 C380.690,281.950 378.880,269.516 375.556,257.817 C354.367,245.849 334.070,237.361 314.820,231.612 C324.198,251.147 330.733,273.830 330.620,299.377 C330.620,299.406 330.620,299.463 330.620,299.490 L380.464,299.490 C380.521,297.991 380.676,296.520 380.690,294.993 ZM373.208,339.099 C352.797,350.048 333.152,357.942 314.508,363.318 C303.336,385.130 286.320,406.293 263.081,426.974 C316.262,418.458 357.154,385.017 373.208,339.099 ZM254.821,419.420 C275.909,401.058 291.411,383.829 302.260,366.515 C285.541,370.446 269.700,372.484 254.821,373.049 L254.821,419.420 ZM254.792,364.533 C271.356,363.912 289.191,361.336 308.102,356.215 C310.394,351.774 312.528,347.304 314.211,342.777 C314.481,342.041 314.792,341.278 315.033,340.513 C315.315,339.779 315.514,338.986 315.796,338.222 C318.965,328.319 320.903,318.291 321.652,308.092 L254.807,308.092 L254.792,308.092 L254.792,364.533 ZM254.807,221.356 L254.807,299.490 L322.034,299.490 C322.062,295.516 321.850,291.654 321.553,287.807 C321.298,284.779 320.916,281.781 320.450,278.810 C320.364,278.272 320.308,277.735 320.251,277.210 C317.310,259.543 311.015,243.168 303.179,228.422 C286.093,224.163 269.912,221.964 254.807,221.356 ZM264.183,163.280 C273.108,172.014 283.760,183.585 293.887,197.491 C299.290,204.635 304.523,212.585 309.361,221.165 C329.007,226.391 349.812,234.377 371.510,245.849 C354.637,202.852 315.485,171.901 264.183,163.280 ZM214.000,125.184 L204.099,117.998 L194.227,125.184 L197.989,113.564 L188.131,106.385 L200.337,106.385 L204.099,94.763 L207.875,106.385 L220.097,106.385 L210.225,113.564 L214.000,125.184 ZM184.425,133.892 L186.802,126.500 L189.191,133.892 L196.943,133.892 L190.676,138.453 L193.067,145.823 L186.802,141.275 L180.507,145.823 L182.911,138.453 L176.646,133.892 L184.425,133.892 ZM185.938,90.258 L177.367,84.049 L168.838,90.258 L172.105,80.207 L163.548,74.004 L174.099,74.004 L177.367,63.954 L180.634,74.004 L191.200,74.004 L182.671,80.207 L185.938,90.258 ZM159.913,149.883 L154.283,145.781 L148.640,149.883 L150.789,143.264 L145.174,139.174 L152.133,139.174 L154.283,132.540 L156.434,139.174 L163.393,139.174 L157.749,143.264 L159.913,149.883 Z" class="cls-2"/>
</svg>
