<svg xmlns="http://www.w3.org/2000/svg" xmlns:xlink="http://www.w3.org/1999/xlink" preserveAspectRatio="xMidYMid" width="50" height="50" viewBox="0 0 500 500">
  <defs>
    <style>
      .cls-1 {
        fill: #2c3e50;
      }

      .cls-2 {
        fill: #fff;
        fill-rule: evenodd;
      }
    </style>
  </defs>
  <circle cx="250" cy="250.938" r="250" class="cls-1"/>
  <path d="M369.120,112.868 L357.309,124.506 L390.201,158.103 L390.201,332.069 C390.201,334.922 389.603,336.899 388.405,338.132 C385.607,340.888 378.601,340.694 375.090,340.660 C367.373,340.660 361.582,339.120 358.815,336.316 C357.051,334.517 357.003,332.588 357.019,332.037 L357.019,163.014 L327.994,163.014 L327.994,79.920 L166.177,79.920 L166.177,379.144 L130.894,379.144 L130.894,420.755 L363.215,420.755 L363.215,379.144 L327.978,379.144 L327.978,179.678 L340.403,179.678 L340.419,331.388 C340.371,332.313 339.903,340.337 346.405,347.469 C352.457,354.018 362.051,357.341 374.911,357.341 L377.436,357.372 C383.551,357.372 393.290,356.627 400.005,349.997 C404.503,345.589 406.799,339.591 406.799,332.102 L406.799,151.310 L369.120,112.868 ZM307.221,196.317 L191.044,196.317 L191.044,113.152 L307.205,113.152 L307.205,196.317 L307.221,196.317 Z" class="cls-2"/>
</svg>
