<svg xmlns="http://www.w3.org/2000/svg" xmlns:xlink="http://www.w3.org/1999/xlink" preserveAspectRatio="xMidYMid" width="50" height="50" viewBox="0 0 500 500">
  <defs>
    <style>
      .cls-1 {
        fill: #2c3e50;
      }

      .cls-2 {
        fill: #fff;
        fill-rule: evenodd;
      }
    </style>
  </defs>
  <circle cx="250" cy="250.938" r="250" class="cls-1"/>
  <path d="M308.856,329.184 L308.856,187.894 L261.766,187.894 L261.766,329.184 L308.856,329.184 ZM379.524,329.184 L379.524,187.894 L332.421,187.894 L332.421,329.184 L379.524,329.184 ZM403.088,160.156 L250.016,70.149 L96.925,160.156 C96.925,160.156 86.358,169.677 96.925,176.111 L403.088,176.111 C403.088,176.111 411.652,169.106 403.088,160.156 ZM238.234,329.184 L238.234,187.894 L191.131,187.894 L191.131,329.184 L238.234,329.184 ZM167.586,329.184 L167.586,187.894 L120.469,187.894 L120.469,329.184 L167.586,329.184 ZM392.750,345.831 L111.025,346.616 L85.156,380.417 L85.156,399.851 L414.844,399.851 L414.844,380.417 L392.750,345.831 Z" class="cls-2"/>
</svg>
