<svg xmlns="http://www.w3.org/2000/svg" xmlns:xlink="http://www.w3.org/1999/xlink" preserveAspectRatio="xMidYMid" width="50" height="50" viewBox="0 0 500 500">
  <defs>
    <style>
      .cls-1 {
        fill: #2c3e50;
      }

      .cls-2 {
        fill: #fff;
        fill-rule: evenodd;
      }
    </style>
  </defs>
  <circle cx="250" cy="250.938" r="250" class="cls-1"/>
  <path d="M371.991,414.992 L128.008,414.992 C106.470,414.992 89.009,397.551 89.009,376.022 L89.009,124.977 C89.009,103.455 106.463,86.007 128.008,86.007 L371.991,86.007 C393.536,86.007 410.990,103.448 410.990,124.977 L410.990,376.022 C410.990,397.544 393.536,414.992 371.991,414.992 ZM386.952,369.779 L386.952,131.679 C386.952,119.973 377.458,110.479 365.736,110.479 L133.812,110.479 C122.090,110.479 112.589,119.973 112.589,131.679 L112.589,369.779 C112.589,381.485 122.090,390.979 133.812,390.979 L365.743,390.979 C377.458,390.979 386.959,381.492 386.959,369.779 L386.952,369.779 ZM365.736,376.037 L133.812,376.037 C130.351,376.037 127.550,373.230 127.550,369.786 L127.550,131.686 C127.550,128.228 130.358,125.435 133.812,125.435 L365.736,125.435 C369.190,125.435 371.991,128.228 371.991,131.679 L371.991,369.786 C371.991,373.237 369.182,376.037 365.736,376.037 ZM300.527,176.842 C288.404,167.147 270.406,162.300 245.085,162.300 C220.036,162.300 202.381,163.918 189.685,166.073 L189.685,345.207 L230.045,345.207 L230.045,280.184 C234.129,280.721 238.736,280.993 244.117,280.993 C268.364,280.993 289.164,275.072 303.164,261.891 C313.947,251.667 319.894,236.596 319.902,218.818 C319.902,201.063 312.106,185.984 300.527,176.842 ZM243.852,249.497 C237.927,249.497 233.671,249.233 230.045,248.424 L230.045,194.869 C233.219,194.060 238.729,193.259 247.084,193.259 C267.547,193.259 279.133,203.210 279.140,219.900 C279.140,238.457 265.670,249.497 243.852,249.497 Z" class="cls-2"/>
</svg>
