<svg xmlns="http://www.w3.org/2000/svg" xmlns:xlink="http://www.w3.org/1999/xlink" preserveAspectRatio="xMidYMid" width="50" height="50" viewBox="0 0 500 500">
  <defs>
    <style>
      .cls-1 {
        fill: #2c3e50;
      }

      .cls-2 {
        fill: #fff;
        fill-rule: evenodd;
      }
    </style>
  </defs>
  <circle cx="250" cy="250.938" r="250" class="cls-1"/>
  <path d="M405.692,388.338 C410.895,393.093 412.681,404.769 405.966,411.465 C399.289,418.233 387.668,416.438 382.956,411.210 C339.348,364.099 295.747,316.973 252.142,269.847 L247.185,264.525 C201.567,313.788 155.965,363.081 110.362,412.374 C105.664,417.594 94.061,419.397 87.391,412.628 C80.659,405.917 82.433,394.227 87.629,389.479 C136.784,343.488 185.906,297.474 235.047,251.460 C235.047,251.460 211.263,225.650 201.011,214.575 C177.006,231.882 141.446,225.302 120.064,198.747 C97.072,170.724 77.233,120.620 96.435,100.104 C116.848,80.776 166.628,100.773 194.478,123.881 C220.867,145.412 227.448,181.138 210.204,205.298 C222.562,216.883 234.920,228.436 247.289,240.013 C247.264,240.035 247.249,240.049 247.220,240.072 C247.220,240.072 247.990,240.682 247.289,240.013 C258.852,229.181 270.416,218.355 281.979,207.522 C272.208,190.743 278.698,167.208 294.569,153.780 C312.767,138.436 380.195,80.201 382.016,82.048 C383.823,83.858 336.529,128.810 304.932,160.687 L310.201,165.980 C343.922,136.248 391.541,91.652 393.377,93.470 C395.184,95.295 349.364,141.711 318.808,174.653 L324.041,179.902 C356.736,149.135 402.888,103.045 404.673,104.852 C406.487,106.684 362.156,154.583 332.598,188.511 L337.830,193.763 C369.499,161.985 414.162,114.412 415.983,116.211 C417.812,118.043 344.804,204.098 344.710,204.225 C344.695,204.211 360.198,185.897 344.652,204.182 C329.808,221.652 307.635,226.938 291.244,216.875 C280.599,228.363 269.982,239.850 259.351,251.336 C258.419,250.450 356.924,342.666 405.692,388.338 Z" class="cls-2"/>
</svg>
