<svg xmlns="http://www.w3.org/2000/svg" xmlns:xlink="http://www.w3.org/1999/xlink" preserveAspectRatio="xMidYMid" width="50" height="50" viewBox="0 0 500 500">
  <defs>
    <style>
      .cls-1 {
        fill: #2c3e50;
      }

      .cls-2 {
        fill: #fff;
        fill-rule: evenodd;
      }
    </style>
  </defs>
  <circle cx="250" cy="250.938" r="250" class="cls-1"/>
  <path d="M345.860,304.964 C260.369,312.031 54.665,298.548 54.665,298.548 C50.157,284.035 50.413,274.354 52.375,267.877 L56.192,268.546 C70.972,271.149 120.313,272.709 188.185,272.709 C248.011,272.709 309.861,271.522 357.870,269.424 C423.350,266.593 443.085,263.053 450.003,260.300 L450.003,285.064 C450.003,285.064 431.357,297.905 345.860,304.964 ZM432.099,257.986 C389.570,263.788 279.054,266.665 188.185,266.665 C125.744,266.665 72.603,265.302 57.248,262.594 C57.248,262.594 57.179,261.356 57.107,259.370 C56.697,248.468 55.863,212.070 62.387,196.686 C62.387,196.686 62.873,197.039 63.545,197.558 C70.640,202.975 111.637,234.851 115.742,252.690 L192.244,252.690 C192.244,252.690 221.621,234.697 239.013,234.697 C241.211,234.697 243.220,234.986 244.952,235.634 C247.318,236.523 249.625,236.913 251.748,236.913 C263.447,236.913 269.492,225.117 248.811,220.224 C236.001,217.196 221.089,209.398 214.696,198.875 C208.898,189.321 210.105,177.536 226.310,165.010 C226.330,164.990 226.363,164.984 226.412,164.984 C229.342,164.984 277.879,201.841 328.520,217.015 C379.942,232.426 379.942,232.426 379.942,232.426 C379.942,232.426 449.366,238.292 450.003,252.690 C450.095,254.663 443.519,256.433 432.099,257.986 ZM247.407,226.110 C252.634,227.352 255.131,228.922 256.051,229.797 C255.349,230.273 253.911,230.876 251.742,230.876 C250.223,230.876 248.651,230.574 247.069,229.984 C244.726,229.106 242.016,228.660 239.006,228.660 C222.283,228.660 197.002,242.871 190.564,246.653 L120.011,246.653 C110.501,225.501 70.824,195.443 66.003,191.845 L62.751,189.416 C62.824,186.126 63.565,183.366 65.600,182.347 C72.025,179.138 80.386,189.180 105.454,198.928 C126.558,207.134 180.805,205.987 208.596,200.317 C215.464,213.299 232.499,222.587 247.407,226.110 Z" class="cls-2"/>
</svg>
