<svg xmlns="http://www.w3.org/2000/svg" xmlns:xlink="http://www.w3.org/1999/xlink" preserveAspectRatio="xMidYMid" width="50" height="50" viewBox="0 0 500 500">
  <defs>
    <style>
      .cls-1 {
        fill: #2c3e50;
      }

      .cls-2 {
        fill: #fff;
        fill-rule: evenodd;
      }
    </style>
  </defs>
  <circle cx="250" cy="250.938" r="250" class="cls-1"/>
  <path d="M412.790,174.790 C410.592,171.790 407.082,170.015 403.352,170.015 L140.520,170.015 C140.010,170.015 139.503,170.045 139.012,170.111 L128.196,139.074 C127.074,135.864 124.606,133.305 121.433,132.062 L66.919,110.744 C60.912,108.403 54.132,111.340 51.772,117.313 C49.416,123.290 52.367,130.043 58.371,132.391 L107.883,151.752 L168.485,325.635 C165.810,326.558 163.544,328.602 162.512,331.463 L144.989,379.912 C143.915,382.880 144.358,386.181 146.186,388.762 C148.011,391.343 150.978,392.880 154.148,392.880 L163.147,392.880 C157.570,399.057 154.148,407.195 154.148,416.136 C154.148,435.371 169.872,451.019 189.192,451.019 C208.513,451.019 224.237,435.371 224.237,416.136 C224.237,407.195 220.814,399.057 215.238,392.880 L291.640,392.880 C286.066,399.057 282.644,407.195 282.644,416.136 C282.644,435.371 298.363,451.019 317.688,451.019 C337.013,451.019 352.732,435.371 352.732,416.136 C352.732,407.195 349.310,399.057 343.736,392.880 L354.679,392.880 C360.056,392.880 364.414,388.543 364.414,383.190 C364.414,377.838 360.056,373.501 354.679,373.501 L167.999,373.501 L178.850,343.496 C180.253,344.083 181.766,344.431 183.352,344.431 L354.679,344.431 C359.760,344.431 364.254,341.165 365.798,336.354 L414.471,185.193 C415.611,181.654 414.988,177.790 412.790,174.790 ZM189.192,431.639 C180.602,431.639 173.617,424.686 173.617,416.136 C173.617,407.585 180.602,400.632 189.192,400.632 C197.782,400.632 204.768,407.585 204.768,416.136 C204.768,424.686 197.782,431.639 189.192,431.639 ZM317.688,431.639 C309.098,431.639 302.113,424.686 302.113,416.136 C302.113,407.585 309.098,400.632 317.688,400.632 C326.278,400.632 333.263,407.585 333.263,416.136 C333.263,424.686 326.278,431.639 317.688,431.639 ZM378.917,219.433 L319.312,219.433 L319.312,193.270 L387.343,193.270 L378.917,219.433 ZM361.752,272.727 L319.312,272.727 L319.312,242.688 L371.430,242.688 L361.752,272.727 ZM242.082,272.727 L242.082,242.688 L295.949,242.688 L295.949,272.727 L242.082,272.727 ZM295.949,295.982 L295.949,321.176 L242.082,321.176 L242.082,295.982 L295.949,295.982 ZM164.307,242.688 L218.719,242.688 L218.719,272.727 L174.777,272.727 L164.307,242.688 ZM242.082,219.433 L242.082,193.270 L295.949,193.270 L295.949,219.433 L242.082,219.433 ZM218.719,193.270 L218.719,219.433 L156.200,219.433 L147.081,193.270 L218.719,193.270 ZM182.884,295.982 L218.719,295.982 L218.719,321.176 L191.664,321.176 L182.884,295.982 ZM319.312,321.176 L319.312,295.982 L354.268,295.982 L346.162,321.176 L319.312,321.176 Z" class="cls-2"/>
</svg>
