<svg xmlns="http://www.w3.org/2000/svg" xmlns:xlink="http://www.w3.org/1999/xlink" preserveAspectRatio="xMidYMid" width="50" height="50" viewBox="0 0 500 500">
  <defs>
    <style>
      .cls-1 {
        fill: #2c3e50;
      }

      .cls-2 {
        fill: #fff;
        fill-rule: evenodd;
      }
    </style>
  </defs>
  <circle cx="250" cy="250.938" r="250" class="cls-1"/>
  <path d="M353.660,184.758 L353.660,146.567 C353.660,122.002 334.232,102.008 309.882,102.008 L190.524,102.008 C166.174,102.008 146.347,121.995 146.347,146.567 L146.347,184.751 L100.226,184.751 C89.611,184.751 81.005,193.433 81.005,204.141 L81.005,246.292 C81.005,257.001 89.611,265.683 100.226,265.683 L105.953,265.683 L126.955,382.074 C128.615,391.288 136.580,397.986 145.863,397.986 L354.543,397.986 C363.833,397.986 371.784,391.288 373.451,382.067 L394.445,265.683 L399.788,265.683 C410.403,265.683 419.009,257.001 419.009,246.292 L419.009,204.141 C419.009,193.433 410.403,184.751 399.788,184.751 L353.660,184.751 L353.660,184.758 ZM181.954,146.567 C181.954,141.881 185.879,137.928 190.524,137.928 L309.889,137.928 C314.534,137.928 318.060,141.881 318.060,146.567 L318.060,184.751 L181.954,184.751 L181.954,146.567 ZM208.541,328.690 C208.541,336.143 202.635,342.180 195.247,342.180 C187.867,342.180 181.954,336.143 181.954,328.690 L181.954,254.636 C181.954,247.184 187.867,241.147 195.247,241.147 C202.642,241.147 208.541,247.191 208.541,254.636 L208.541,328.690 ZM263.525,328.690 C263.525,336.143 257.612,342.180 250.231,342.180 C242.851,342.180 236.931,336.143 236.931,328.690 L236.931,254.636 C236.931,247.184 242.851,241.147 250.231,241.147 C257.619,241.147 263.525,247.191 263.525,254.636 L263.525,328.690 ZM318.509,328.690 C318.509,336.143 312.596,342.180 305.216,342.180 C297.828,342.180 291.922,336.143 291.922,328.690 L291.922,254.636 C291.922,247.184 297.835,241.147 305.216,241.147 C312.596,241.147 318.509,247.191 318.509,254.636 L318.509,328.690 Z" class="cls-2"/>
</svg>
