<svg xmlns="http://www.w3.org/2000/svg" xmlns:xlink="http://www.w3.org/1999/xlink" preserveAspectRatio="xMidYMid" width="50" height="50" viewBox="0 0 500 500">
  <defs>
    <style>
      .cls-1 {
        fill: #2c3e50;
      }

      .cls-2 {
        fill: #fff;
        fill-rule: evenodd;
      }
    </style>
  </defs>
  <circle cx="250" cy="250.938" r="250" class="cls-1"/>
  <path d="M400.190,413.990 L331.930,413.990 C328.158,413.990 325.106,410.936 325.106,407.161 L325.106,297.823 C325.106,294.044 328.153,290.990 331.930,290.990 L400.190,290.990 C403.966,290.990 407.018,294.040 407.013,297.823 L407.013,407.161 C407.013,410.932 403.966,413.990 400.190,413.990 ZM393.361,304.657 L338.758,304.657 L338.758,318.319 L393.361,318.319 L393.361,304.657 ZM393.361,331.990 L338.758,331.990 L338.758,400.328 L393.361,400.328 L393.361,331.990 ZM367.195,287.467 C349.011,287.467 334.213,272.653 334.213,254.434 C334.213,238.335 357.289,209.290 361.916,203.634 L367.195,197.174 L372.478,203.634 C377.105,209.294 400.194,238.335 400.194,254.434 C400.194,272.653 385.396,287.467 367.195,287.467 ZM367.195,219.051 C357.931,231.449 347.865,247.505 347.865,254.434 C347.865,265.112 356.529,273.800 367.195,273.800 C377.865,273.800 386.546,265.108 386.546,254.434 C386.546,247.492 376.476,231.436 367.195,219.051 ZM260.258,413.990 L130.558,413.990 C109.856,413.990 93.018,397.130 93.018,376.409 L93.018,147.486 C93.018,143.706 96.070,140.652 99.842,140.652 L120.322,140.652 L120.322,92.815 C120.322,89.039 123.374,85.981 127.146,85.981 L154.445,85.981 C158.226,85.981 161.274,89.039 161.278,92.815 L161.278,126.986 L181.758,126.986 C185.526,126.986 188.582,130.035 188.582,133.819 L188.582,140.652 L290.974,140.652 C294.746,140.652 297.798,143.706 297.798,147.486 L297.798,376.409 C297.798,397.130 280.964,413.990 260.258,413.990 ZM130.558,400.328 L260.258,400.328 C268.856,400.328 276.388,395.737 280.597,388.892 L110.218,388.892 C114.426,395.737 121.957,400.328 130.558,400.328 ZM147.626,99.652 L133.974,99.652 L133.974,154.315 L147.626,154.315 L147.626,99.652 ZM147.626,167.986 L133.974,167.986 L133.974,181.652 L147.626,181.652 L147.626,167.986 ZM174.925,140.652 L161.274,140.652 L161.274,181.652 L174.925,181.652 L174.925,140.652 ZM202.229,154.315 L188.582,154.315 L188.582,181.652 L202.229,181.652 L202.229,154.315 ZM229.538,154.315 L215.886,154.315 L215.886,181.652 L229.538,181.652 L229.538,154.315 ZM256.842,154.315 L243.190,154.315 L243.190,181.652 L256.842,181.652 L256.842,154.315 ZM270.494,154.315 L270.494,188.486 C270.494,192.261 267.442,195.319 263.666,195.319 L127.141,195.319 C123.374,195.319 120.318,192.265 120.318,188.486 L120.318,154.315 L106.666,154.315 L106.666,254.865 L284.146,254.865 L284.146,154.315 L270.494,154.315 Z" class="cls-2"/>
</svg>
