<svg xmlns="http://www.w3.org/2000/svg" xmlns:xlink="http://www.w3.org/1999/xlink" preserveAspectRatio="xMidYMid" width="50" height="50" viewBox="0 0 500 500">
  <defs>
    <style>
      .cls-1 {
        fill: #2c3e50;
      }

      .cls-2 {
        fill: #fff;
        fill-rule: evenodd;
      }
    </style>
  </defs>
  <circle cx="250" cy="250.938" r="250" class="cls-1"/>
  <path d="M405.724,247.749 L404.239,247.749 L406.805,254.014 C411.808,266.234 415.879,286.921 415.879,300.128 L415.879,387.673 C415.879,398.330 407.232,406.999 396.603,406.999 L373.435,406.999 C362.807,406.999 354.159,398.330 354.159,387.673 L354.159,366.156 L145.597,366.156 L145.597,387.673 C145.597,398.330 136.951,406.999 126.321,406.999 L103.149,406.999 C92.519,406.999 83.873,398.330 83.873,387.673 L83.873,300.128 C83.873,286.921 87.944,266.234 92.946,254.014 L95.513,247.749 L94.276,247.749 C83.648,247.749 75.000,239.080 75.000,228.423 L75.000,219.096 C75.000,209.968 81.279,203.341 89.929,203.340 C91.506,203.340 93.128,203.567 94.746,204.014 L111.522,208.647 L129.466,164.827 C134.849,151.675 150.768,140.976 164.947,140.976 L177.149,140.976 L177.149,104.596 C177.149,98.202 182.337,93.000 188.715,93.000 L311.287,93.000 C317.665,93.000 322.852,98.202 322.852,104.596 L322.852,140.976 L334.808,140.976 C348.989,140.976 364.906,151.677 370.289,164.828 L388.257,208.709 L405.255,204.015 C406.873,203.567 408.494,203.341 410.073,203.341 C418.722,203.341 425.000,209.968 425.000,219.096 L425.000,228.423 C425.000,239.080 416.354,247.749 405.724,247.749 ZM119.285,298.066 L119.285,322.854 C119.285,327.105 122.755,330.584 126.995,330.584 L179.108,330.584 C183.348,330.584 186.818,327.105 186.818,322.854 L186.818,298.066 C186.818,293.814 183.348,290.335 179.108,290.335 L126.995,290.335 C122.755,290.335 119.285,293.814 119.285,298.066 ZM222.756,108.463 C222.756,108.208 222.547,108.000 222.293,108.000 L190.049,108.000 C189.794,108.000 189.586,108.208 189.586,108.463 L189.586,114.150 C189.586,114.405 189.794,114.614 190.049,114.614 L200.758,114.614 C201.013,114.614 201.221,114.823 201.221,115.078 L201.221,140.620 C201.221,140.775 201.309,140.892 201.424,140.976 L210.856,140.976 C210.971,140.891 211.059,140.775 211.059,140.620 L211.059,115.078 C211.059,114.823 211.267,114.614 211.522,114.614 L222.293,114.614 C222.547,114.614 222.756,114.405 222.756,114.150 L222.756,108.463 ZM291.459,140.724 L279.598,126.014 C279.439,125.816 279.422,125.480 279.564,125.267 L290.753,108.388 C290.893,108.174 290.801,108.001 290.546,108.001 L280.640,108.001 C280.386,108.001 280.068,108.177 279.935,108.395 L274.168,117.768 C274.035,117.986 273.816,117.986 273.684,117.768 L267.921,108.395 C267.788,108.179 267.471,108.001 267.216,108.001 L257.315,108.001 C257.060,108.001 256.966,108.174 257.108,108.388 L268.288,125.267 C268.428,125.479 268.413,125.816 268.253,126.014 L256.604,140.462 L243.896,108.432 C243.802,108.194 243.516,108.001 243.262,108.001 L232.555,108.001 C232.301,108.001 232.016,108.194 231.919,108.434 L218.959,140.656 C218.905,140.790 218.937,140.898 219.013,140.977 L228.542,140.977 C228.679,140.898 228.796,140.787 228.845,140.648 L231.198,133.938 C231.282,133.696 231.559,133.500 231.814,133.500 L243.950,133.500 C244.204,133.500 244.477,133.698 244.556,133.941 L246.739,140.645 C246.784,140.786 246.901,140.897 247.037,140.977 L266.848,140.977 C266.987,140.905 267.111,140.807 267.184,140.691 L273.679,130.247 C273.815,130.031 274.034,130.031 274.169,130.247 L280.679,140.691 C280.751,140.807 280.876,140.905 281.015,140.977 L291.528,140.977 C291.558,140.912 291.539,140.821 291.459,140.724 ZM306.294,108.465 C306.294,108.210 306.085,108.001 305.831,108.001 L296.921,108.001 C296.667,108.001 296.458,108.210 296.458,108.465 L296.458,140.620 C296.458,140.775 296.546,140.891 296.662,140.976 L306.090,140.976 C306.206,140.891 306.294,140.775 306.294,140.620 L306.294,108.465 ZM374.613,236.977 L347.311,170.294 C344.090,162.427 334.515,155.990 326.034,155.990 L173.721,155.990 C165.240,155.990 155.665,162.427 152.444,170.294 L125.142,236.977 C121.920,244.844 126.224,251.281 134.705,251.281 L365.049,251.281 C373.531,251.281 377.835,244.844 374.613,236.977 ZM379.970,298.066 C379.970,293.814 376.501,290.335 372.260,290.335 L320.148,290.335 C315.907,290.335 312.437,293.814 312.437,298.066 L312.437,322.854 C312.437,327.105 315.907,330.584 320.148,330.584 L372.260,330.584 C376.501,330.584 379.970,327.105 379.970,322.854 L379.970,298.066 ZM241.785,126.886 L234.045,126.886 C233.791,126.886 233.670,126.697 233.775,126.465 L237.845,117.564 C237.950,117.332 238.119,117.335 238.221,117.569 L242.064,126.460 C242.164,126.694 242.039,126.886 241.785,126.886 Z" class="cls-2"/>
</svg>
